<svg height="316.227766" viewBox="0 0 64 64" width="316.227766" xmlns="http://www.w3.org/2000/svg" xmlns:xlink="http://www.w3.org/1999/xlink"><radialGradient id="a" cx="47.261312275" cy="47.5528076" gradientUnits="userSpaceOnUse" r="54.472168575"><stop offset="0" stop-color="#379be8"/><stop offset=".51476" stop-color="#006fde"/></radialGradient><linearGradient id="b" gradientUnits="userSpaceOnUse" x1="38.61994" x2="9.14053" y1="3.82268" y2="54.88251"><stop offset="0" stop-color="#e63a00"/><stop offset=".03093" stop-color="#e63a00" stop-opacity=".88336"/><stop offset=".09894" stop-color="#e63a00" stop-opacity=".6517"/><stop offset=".1678" stop-color="#e63a00" stop-opacity=".45209"/><stop offset=".23618" stop-color="#e63a00" stop-opacity=".28904"/><stop offset=".30392" stop-color="#e63a00" stop-opacity=".16252"/><stop offset=".3709" stop-color="#e63a00" stop-opacity=".07227"/><stop offset=".43681" stop-color="#e63a00" stop-opacity=".01813"/><stop offset=".50036" stop-color="#e63a00" stop-opacity="0"/></linearGradient><linearGradient id="c" gradientUnits="userSpaceOnUse" x1="4.25" x2="32" y1="31.99999" y2="31.99999"><stop offset=".72165" stop-color="#fff"/><stop offset=".99962" stop-color="#333"/></linearGradient><mask id="d" height="63.99961" maskUnits="userSpaceOnUse" width="28" x="4.00094" y="-.00028"><path d="m31.09779.18946-22.65465 9.91619c-2.54731 1.11497-4.19314 3.63197-4.19314 6.41261v35.5407l26.84779 11.75157c.28757.12587.59488.1888.90221.1888v-63.99867c-.30733 0-.61464.06293-.90221.1888z" fill="url(#b)"/><path d="m31.09779.18946-22.65465 9.91619c-2.54731 1.11497-4.19314 3.63197-4.19314 6.41261v35.5407l26.84779 11.75157c.28757.12587.59488.1888.90221.1888v-63.99867c-.30733 0-.61464.06293-.90221.1888z" fill="url(#c)"/></mask><linearGradient id="e" gradientUnits="userSpaceOnUse" x1="38.55182" x2="9.00992" y1="3.78188" y2="54.94996"><stop offset=".00439" stop-color="#08f"/><stop offset=".05916" stop-color="#0a8cff" stop-opacity=".79702"/><stop offset=".12321" stop-color="#1591ff" stop-opacity=".58812"/><stop offset=".18811" stop-color="#1e96ff" stop-opacity=".40794"/><stop offset=".25253" stop-color="#2599ff" stop-opacity=".26085"/><stop offset=".31639" stop-color="#2b9cff" stop-opacity=".14665"/><stop offset=".37952" stop-color="#2f9eff" stop-opacity=".0652"/><stop offset=".44162" stop-color="#329fff" stop-opacity=".01636"/><stop offset=".5015" stop-color="#33a0ff" stop-opacity="0"/></linearGradient><linearGradient id="f" gradientUnits="userSpaceOnUse" x1="16.5" x2="47.5" y1="31.998" y2="31.998"><stop offset="0" stop-color="#808080"/><stop offset=".0502" stop-color="#979797"/><stop offset=".14189" stop-color="#bcbcbc"/><stop offset=".23367" stop-color="#d9d9d9"/><stop offset=".32445" stop-color="#eee"/><stop offset=".41379" stop-color="#fafafa"/><stop offset=".5" stop-color="#fff"/><stop offset=".56365" stop-color="#fafafa"/><stop offset=".62966" stop-color="#eee"/><stop offset=".69674" stop-color="#d9d9d9"/><stop offset=".76458" stop-color="#bcbcbc"/><stop offset=".83306" stop-color="#979797"/><stop offset=".902" stop-color="#696969"/><stop offset=".97009" stop-color="#333"/><stop offset="1" stop-color="#1a1a1a"/></linearGradient><mask id="g" height="63.99868" maskUnits="userSpaceOnUse" width="31" x="16.5" y=".00066"><path d="m33.69048 63.2342 12.06879-13.7401c1.12199-1.27736 1.74074-2.91939 1.74074-4.61954v-38.29549l-14.5978-6.38961c-.57512-.25174-1.22929-.25174-1.80441 0l-14.59779 6.38962v38.29548c0 1.70015.61875 3.34218 1.74074 4.61954l12.06879 13.7401c.9055 1.03092 2.50379.99866 3.38095 0z" fill="url(#f)"/></mask><linearGradient id="h" gradientUnits="userSpaceOnUse" x1="32" x2="32" y1=".00066" y2="63.99934"><stop offset=".00339" stop-color="#0a67c4" stop-opacity="0"/><stop offset=".08022" stop-color="#0a67c4" stop-opacity=".02128"/><stop offset=".15984" stop-color="#0a67c4" stop-opacity=".08476"/><stop offset=".24076" stop-color="#0a67c4" stop-opacity=".19056"/><stop offset=".3226" stop-color="#0a67c4" stop-opacity=".3389"/><stop offset=".40516" stop-color="#0a67c4" stop-opacity=".5299"/><stop offset=".48721" stop-color="#0a67c4" stop-opacity=".7604"/><stop offset=".50002" stop-color="#0a67c4" stop-opacity=".8"/><stop offset=".58935" stop-color="#0a67c4" stop-opacity=".77872"/><stop offset=".68193" stop-color="#0a67c4" stop-opacity=".71526"/><stop offset=".77602" stop-color="#0a67c4" stop-opacity=".60949"/><stop offset=".87111" stop-color="#0a67c4" stop-opacity=".46132"/><stop offset=".96613" stop-color="#0a67c4" stop-opacity=".27254"/><stop offset=".99808" stop-color="#0a67c4" stop-opacity=".2"/></linearGradient><path d="m4 16.72132v35.33703l27.09921 11.75358c.57376.24888 1.22642.25029 1.80018.00141l22.71627-9.85377c2.6619-1.15467 4.38435-3.77935 4.38435-6.68089v-35.33642l-27.09922-11.7542c-.57376-.24888-1.2283-.24842-1.80206.00047l-22.71438 9.8519c-2.6619 1.15467-4.38435 3.77935-4.38435 6.68089z" fill="url(#a)"/><g mask="url(#d)"><path d="m31.09873.18853-22.73234 9.8584c-2.65038 1.1494-4.36545 3.76258-4.36545 6.65145v35.35965l27.09779 11.75157c.28757.12587.59488.1888.90221.1888v-63.99868c-.30733 0-.61464.06293-.90221.1888z" fill="url(#e)"/></g><g mask="url(#g)"><path d="m30.30952 63.23419c.42719.48635 1.04315.76515 1.69048.76515s1.26329-.2788 1.69048-.76515l12.06878-13.74009c1.12199-1.27736 1.74074-2.91939 1.74074-4.61954v-38.29549l-14.59779-6.38961c-.57512-.25174-1.22929-.25174-1.80441 0l-14.59779 6.33241v38.35269c0 1.70015.61875 3.34218 1.74074 4.61954l12.06878 13.74009z" fill="url(#h)"/></g><path d="m32.00009 12.9c-11.10105 0-20.10009 8.99913-20.10009 20.1s8.99904 20.1 20.10009 20.1 20.09991-8.99904 20.09991-20.1-8.99904-20.1-20.09991-20.1zm0 35.56645c-4.07235 0-7.78547-1.53288-10.59848-4.05075.17123-1.27554.76553-2.90473 1.6029-4.28999.85579-1.41608-.31128-2.64543-1.6184-3.29899s-4.52131-1.50215-5.22502-2.86735 1.14756-2.3543 2.53273-3.13578c1.38517-.78139-.22138-2.57157.83373-3.48271 1.4851-1.28232 2.23768-.90503 2.8544-2.65172.41449-1.17382-.37346-2.30296-1.30566-3.78168 4.32455-4.18551 8.68928-4.50611 10.9238-4.23884 7.96235.95235 3.43351 3.56659 4.01735 5.06045s2.98694 1.97987 2.77213 4.27127c-.14005 1.49385-3.12906.90665-4.01986.90665-1.52358 0-5.07307 2.53369-4.83875 4.9168.28466 2.89379 1.28925 3.14205 3.16441 3.18107 1.87534.03912 3.08066.50795 2.45555 2.03153-.62493 1.52367-.83665 3.31706-.28976 5.46575.54707 2.14869 2.14887 1.09395 3.00813.15628.85962-.93758 3.39892-3.5551 3.35989-5.19594-.03921-1.64083 1.3673-2.30488 2.22674-3.67227.85944-1.3673-.05015-3.82886-.05015-3.82886 1.58722 0 4.20146.03823 4.09314 2.50567-.38495 8.77228-7.11823 15.9994-15.89881 15.9994z" fill="#fff"/><path d="m0 0h64v64h-64z" fill="none"/></svg>
