<svg xmlns="http://www.w3.org/2000/svg" viewBox="0 0 240 234"><path fill="#00005B" d="M42.5,0h155C221,0,240,19,240,42.5v149c0,23.5-19,42.5-42.5,42.5h-155C19,234,0,215,0,191.5v-149C0,19,19,0,42.5,0z"/><path fill="#9999FF" d="M33.8,60.9c0.1-0.6,0.6-1,1.2-1c0,0,0,0,0,0h28.1c0.8-0.1,1.5,0.4,1.7,1.1c0.7,2.8,1.6,6.1,2.6,10.1c1,3.9,2.1,8.2,3.3,13c1.2,4.7,2.4,9.6,3.6,14.5c1.2,4.9,2.4,9.7,3.6,14.4c1.2,4.7,2.2,9,3,12.9c0.8,3.9,1.5,7.2,2,9.7h0.2c0.4-2.3,1.1-5.3,2.1-9c1-3.8,2.2-8,3.5-12.6c1.3-4.7,2.7-9.5,4.1-14.4c1.4-4.9,2.7-9.8,4.1-14.7c1.3-4.8,2.6-9.3,3.7-13.4c1.2-4.1,2.1-7.6,2.8-10.4c0.1-0.7,0.7-1.2,1.4-1.1h27.4c0.7-0.1,1.3,0.4,1.4,1c0,0,0,0.1,0,0.1l3.7,102.9c0.1,0.4,0,0.8-0.2,1c-0.3,0.3-0.6,0.4-1,0.4h-19.9c-0.3,0-0.5-0.1-0.8-0.2c-0.2-0.2-0.3-0.6-0.3-0.9c0-5.5,0-11.2-0.1-17.2c-0.1-6-0.1-12-0.2-18.1c-0.1-6.1-0.1-11.9,0-17.5c0.1-5.6,0.2-10.7,0.2-15.5c0-4.7,0-8.8,0.1-12.3c0.1-3.5,0.1-6.1,0.1-7.8h-0.2c-0.6,2.7-1.4,6.2-2.4,10.5c-1,4.3-2.2,9.2-3.6,14.7c-1.4,5.4-2.9,11-4.4,16.8c-1.6,5.8-3.1,11.5-4.6,17.2c-1.5,5.7-2.9,11-4.3,15.9c-1.4,4.9-2.5,9.3-3.4,13c-0.2,0.8-0.9,1.3-1.7,1.3H73.1c-0.9,0.1-1.7-0.4-1.8-1.3c-0.9-3.8-2-8.1-3.1-13c-1.2-4.9-2.4-10.1-3.6-15.5c-1.2-5.4-2.5-10.9-3.9-16.5c-1.4-5.6-2.7-11.1-3.9-16.3c-1.2-5.3-2.3-10.2-3.3-14.8c-1-4.6-1.9-8.7-2.7-12.2h-0.3v12.7c0,4.9-0.1,10.4-0.2,16.3c-0.2,6-0.3,12.2-0.5,18.7c-0.2,6.5-0.3,13.2-0.5,20.1c-0.2,6.9-0.5,13.8-0.8,20.5c0,0.9-0.4,1.3-1.2,1.3H29.6c-0.3,0-0.7-0.1-1-0.2c-0.3-0.2-0.3-0.6-0.2-1.2L33.8,60.9zM196.7,130.3H165c0.4,3,1.4,5.9,3.1,8.5c1.8,2.7,4.3,4.8,7.3,6c3.3,1.5,7.5,2.3,12.8,2.3c3.5,0,7-0.3,10.4-0.9c3.2-0.6,6.4-1.5,9.4-2.8c0.5-0.4,0.8-0.2,0.8,0.8v15.3c0,0.4-0.1,0.8-0.2,1.2c-0.2,0.3-0.4,0.5-0.7,0.7c-3.3,1.6-6.8,2.7-10.5,3.5c-4.7,0.9-9.4,1.3-14.2,1.2c-7.6,0-14-1.2-19.2-3.5c-4.9-2.1-9.2-5.4-12.6-9.5c-3.2-3.9-5.5-8.3-6.9-13.1c-1.4-4.7-2.1-9.6-2.1-14.6c0-5.4,0.8-10.7,2.5-15.9c1.6-5,4.1-9.6,7.5-13.7c3.3-4,7.4-7.2,12.1-9.5c5.2-2.4,11-3.6,16.7-3.5c5.3-0.1,10.6,0.9,15.5,3.1c4.1,1.9,7.8,4.7,10.5,8.3c2.6,3.4,4.7,7.2,6,11.4c1.3,4,1.9,8.1,1.9,12.2c0,2.4-0.1,4.5-0.2,6.4c-0.2,1.9-0.3,3.3-0.4,4.2c-0.1,0.7-0.7,1.3-1.4,1.3c-0.6,0-1.7,0.1-3.3,0.2c-1.6,0.2-3.5,0.3-5.8,0.3C201.7,130.2,199.2,130.3,196.7,130.3z M165,114.6H186c2.6,0,4.5,0,5.7-0.1c0.8,0,1.6-0.1,2.3-0.2v-1c0-1.3-0.2-2.5-0.6-3.7c-1.8-5.6-7.1-9.4-13-9.2c-5.5-0.3-10.7,2.6-13.3,7.6C166,110.1,165.3,112.3,165,114.6z"/></svg>