<svg xmlns="http://www.w3.org/2000/svg" width="256" height="256"><path fill="#FA0F00" d="M45.257 0h165.485C235.886 0 256 20.114 256 45.257v165.486C256 235.886 235.886 256 210.742 256H45.257C20.114 256 0 235.886 0 210.743V45.257C0 20.114 20.114 0 45.257 0z"/><path fill="#FFF" d="M204.144 147.657c-11.887-12.343-44.344-7.314-52.115-6.4-11.428-10.972-19.199-24.229-21.942-28.8 4.114-12.343 6.856-24.686 7.314-37.942 0-11.429-4.571-23.771-17.372-23.771-4.571 0-8.686 2.742-10.972 6.399-5.485 9.601-3.2 28.801 5.486 48.458-5.028 14.171-9.6 27.885-22.4 52.114-13.257 5.484-41.143 18.285-43.429 32-.914 4.113.457 8.229 3.657 11.428 3.2 2.743 7.314 4.114 11.429 4.114 16.914 0 33.371-23.313 44.8-42.972 9.6-3.199 24.686-7.771 39.772-10.514 17.828 15.543 33.371 17.828 41.6 17.828 10.971 0 15.086-4.571 16.457-8.686 2.285-4.57.914-9.599-2.285-13.256zm-11.43 7.772c-.457 3.2-4.57 6.399-11.885 4.571-8.686-2.285-16.457-6.4-23.314-11.886 5.943-.915 19.199-2.286 28.8-.457 3.657.914 7.314 3.2 6.399 7.772zm-76.342-94.172c.914-1.371 2.286-2.285 3.657-2.285 4.114 0 5.028 5.028 5.028 9.143-.457 9.601-2.286 19.2-5.485 28.343-6.858-18.286-5.486-31.087-3.2-35.201zm-.914 88.686c3.657-7.314 8.686-20.115 10.514-25.601 4.114 6.856 10.971 15.086 14.629 18.743 0 .458-14.172 3.2-25.143 6.858zm-26.972 18.286C77.972 185.6 67 196.571 61.057 196.571c-.914 0-1.829-.457-2.743-.914-1.372-.915-1.829-2.286-1.372-4.114 1.372-6.4 13.258-15.086 31.544-23.314z"/></svg>