<svg version="1.2" xmlns="http://www.w3.org/2000/svg" viewBox="0 0 3785 726" width="3785" height="726">
    <title>WinApps_Banner_Light</title>
    <style>
        .s0 { fill: #0e63a4 }
        .s1 { fill: #f96d2b }
        .s2 { fill: #4c9b4c }
        .s3 { fill: #000000 }
    </style>
    <g id="Icon">
        <path id="Blue Arc" class="s0" d="m0 523.8c0 0 167.5-545.3 414.9-516.5 120.4 14.1 130.5 297.2 130.5 297.2 0 0-54.6-159.2-169.5-156.2-120.9 3.1-204.6 82.6-375.9 375.5z"/>
        <path id="Orange Arc" class="s1" d="m494.3 0c0 0 388.6 417.7 239.8 617.5-72.3 97.3-322.6-35.5-322.6-35.5 0 0 165.2 32.3 220.1-68.7 57.7-106.3 30.7-218.5-137.3-513.3z"/>
        <path id="Green Arc" class="s2" d="m700.8 690c0 0-556 127.6-654.7-101.1-48.1-111.3 192.1-261.6 192.1-261.6 0 0-110.6 126.9-50.6 225 63.2 103 173.8 135.8 513.2 137.7z"/>
    </g>
    <path id="Subheading (Unageo Italic Regular 180px)" class="s3" aria-label="Unified Software Experience for Linux®"  d="m880.1 524h-14.3l-11.7 74q-3.7 23.9 7.8 39.2 11.5 15 32.2 15 20.9 0 37.3-15 16.3-14.9 20.1-39.2l11.7-74h-14l-11.7 74q-3.1 18.2-14.6 29-12.1 11.1-26.5 11.1-14.4 0-22.8-11.1-8.3-11-5.2-29zm-4.8 0h-14.2l-11.7 74q-3.8 23.9 7.7 39.2 11.5 14.9 32.2 14.9 20.9 0 37.3-14.9 16.4-14.9 20.2-39.2l11.7-74h-14.1l-11.7 74q-3 18.1-14.6 28.9-12 11.2-26.4 11.2-14.4 0-22.9-11.2-8.3-10.9-5.2-28.9zm154.2 126h14l7.6-47.9q1.6-9.9 0.1-18-1.2-8.1-5.7-14.1-8.8-12.2-25-12.2-15 0-25.8 10.8-0.7 0.5-1.4 1.3-0.6 0.7-1.3 1.4l1.8-11.3h-13.7l-14.2 90h14.1l7.5-48.1q1.3-7 4-12.4 2.7-5.4 6.8-9.4 8.3-8.3 18.9-8.3 10.6 0 16.4 8.3 5.8 7.8 3.4 21.8zm-4.7 0h14l7.6-47.9q1.6-9.9 0.1-18-1.2-8.1-5.7-14-8.8-12.3-25-12.3-15 0-25.8 10.8-0.7 0.6-1.4 1.3-0.6 0.7-1.3 1.4l1.8-11.3h-13.7l-14.2 90h14.1l7.5-48.1q1.3-7 4-12.4 2.7-5.4 6.8-9.3 8.3-8.3 18.9-8.3 10.6 0 16.4 8.3 5.8 7.7 3.4 21.7zm51.9-90l-14.2 90h14.1l14.2-90zm20.9-29.8q0.7-4-1.5-6.5-2.1-2.5-6.1-2.5-3.8 0-6.7 2.5-3 2.7-3.7 6.5-0.6 3.6 1.8 6.3 2.3 2.7 5.9 2.7 4 0 6.8-2.7 2.9-2.7 3.5-6.3zm-25.7 29.8l-14.2 90h14l14.3-90zm20.8-29.8q0.8-4-1.4-6.5-2.2-2.5-6.1-2.5-3.8 0-6.7 2.5-3 2.7-3.8 6.5-0.5 3.6 1.8 6.3 2.4 2.7 6 2.7 3.9 0 6.8-2.7 2.9-2.7 3.4-6.3zm74.8-8.7h-10.2q-12.5 0-22.5 8.8-10.1 8.7-12.1 21.1l-1.4 8.6h-16.6l-2.2 14.1h16.6l-12.1 75.9h14.1l12-75.9h26.1l2.2-14.1h-26.1l1.4-8.6q0.6-3.2 2.2-6.1 1.6-2.9 4.3-5.1 5.2-4.6 11.9-4.6h10.3zm-4.8 0h-10.3q-12.4 0-22.5 8.8-10 8.6-12 21l-1.5 8.7h-16.5l-2.2 14h16.6l-12.1 76h14.1l12-76h26.1l2.2-14h-26.1l1.4-8.7q0.6-3.2 2.2-6.1 1.6-2.9 4.3-5 5.2-4.7 11.9-4.7h10.2zm8.2 38.5l-14.2 90h14l14.3-90zm20.8-29.9q0.8-3.9-1.4-6.4-2.2-2.6-6.1-2.6-3.8 0-6.7 2.6-3 2.7-3.8 6.4-0.5 3.6 1.8 6.3 2.4 2.7 6 2.7 3.9 0 6.8-2.7 2.9-2.7 3.4-6.3zm-25.6 29.9l-14.2 90h14l14.2-90zm20.9-29.9q0.7-3.9-1.4-6.4-2.2-2.6-6.1-2.6-3.8 0-6.7 2.6-3.1 2.7-3.8 6.4-0.5 3.6 1.8 6.3 2.4 2.7 6 2.7 3.9 0 6.8-2.7 2.9-2.7 3.4-6.3zm21.3 81.6h70.8l0.9-6.5q3.2-20.2-6-33.8-8.8-13.5-27.7-13.5-19.4 0-34.2 13.6-14.6 13.5-17.8 33.5-3.2 19.6 7.4 33.5 10.6 13.7 30 13.7 11.4 0 20.7-3.3 9.4-3.2 17.5-9.7l-7.2-9.7q-5.9 4.7-13 7.2-6.8 2.3-15.8 2.3-12.1 0-18.9-7.7-3.4-4-5.2-8.8-1.6-5.1-1.5-10.8zm36-40.2q11.6 0 17.1 7.6 5.8 7.4 5.3 20h-56.6q3.6-12.1 13-19.8 9.4-7.8 21.2-7.8zm-40.7 40.2h70.7l0.9-6.5q3.3-20.2-5.9-33.8-8.8-13.5-27.7-13.5-19.5 0-34.2 13.6-14.6 13.5-17.9 33.5-3.2 19.6 7.4 33.5 10.6 13.7 30.1 13.7 11.3 0 20.7-3.3 9.3-3.2 17.4-9.7l-7.2-9.7q-5.9 4.7-12.9 7.2-6.9 2.3-15.9 2.3-12 0-18.9-7.7-3.4-4-5.2-8.8-1.6-5.1-1.4-10.8zm36-40.2q11.5 0 17.1 7.6 5.7 7.4 5.2 20h-56.5q3.6-12.1 12.9-19.8 9.4-7.8 21.3-7.8zm98.5 0.4q-13.7 0-23.6 9.5-9.9 9.6-12 23.6-2.4 14.1 4.7 23.6 7 9.5 20.5 9.5 13.3 0 22.8-9.5 4.9-4.9 7.8-10.6 3-6 4.1-13 1.3-7.2 0-12.9-1.1-6-4.5-10.7-6.5-9.5-19.8-9.5zm1.8-14q16.8 0 24.9 11.7 0.9 0.7 1.4 1.8 0.7 0.9 1.3 1.9l7.7-49.3h14.2l-20 126h-13.5l2.2-13.7q-0.9 0.9-1.8 2-0.9 1.1-1.8 2-12.2 11.9-29.5 11.9-19.3 0-29.7-13.7-10.3-13.7-7-33.5 3.2-19.8 17.6-33.5 14.6-13.6 34-13.6zm-6.5 14q-13.7 0-23.6 9.5-9.9 9.6-12.1 23.6-2.3 14.1 4.7 23.6 7 9.5 20.5 9.5 13.3 0 22.9-9.5 4.8-4.9 7.7-10.6 3.1-6 4.2-13 1.2-7.2 0-12.9-1.1-6-4.5-10.7-6.5-9.5-19.8-9.5zm1.8-14q16.7 0 24.8 11.7 0.9 0.7 1.4 1.8 0.8 0.9 1.3 1.9l7.7-49.3h14.3l-20 126h-13.5l2.1-13.7q-0.9 0.9-1.8 2-0.9 1.1-1.8 2-12.2 11.9-29.5 11.9-19.2 0-29.7-13.7-10.2-13.7-7-33.5 3.2-19.8 17.6-33.5 14.6-13.6 34.1-13.6zm149.4-36q-16 0-28.2 9.7-6.1 4.8-9.7 11-3.6 5.9-4.7 12.9-2.4 14.2 6.6 22.3 8.9 8.1 24.9 11.2 5.9 1.1 10.4 3.2 4.5 2.2 7.8 5.4 6.4 6.5 5 16.1-0.9 5-3.4 9.5-2.5 4.3-7 7.7-9 7.2-20 7.2-4.5 0-8.5-1-3.8-1.3-6.6-3.5-6.2-4.5-7.6-11.7l-14 4.4q1.9 11.5 11.5 18.7 9.2 7.2 22.8 7.2 17.5 0 30.6-11.2 6.7-5.6 10.8-12.4 4.2-7 5.4-14.9 2.6-15.7-7.2-25.6-9.9-9.9-27-13-12.7-2.3-17.6-8.1-3.8-4.5-2.9-11.5 1.5-8.6 8.8-14 7.2-5.6 17.5-5.6 8.5 0 13.7 3.4 4.8 3.3 6.1 9.7l14.2-4.5q-1.8-10.4-10.4-16.5-8.5-6.1-21.3-6.1zm-4.7 0q-16 0-28.3 9.7-6.1 4.8-9.7 11-3.6 5.9-4.7 12.9-2.3 14.2 6.7 22.3 8.8 8.1 24.8 11.2 6 1.1 10.5 3.2 4.5 2.2 7.7 5.4 6.5 6.5 5 16.1-0.9 5-3.4 9.5-2.5 4.3-7 7.7-9 7.2-20 7.2-4.5 0-8.4-1-3.8-1.3-6.7-3.5-6.1-4.5-7.6-11.7l-14 4.4q2 11.5 11.5 18.7 9.2 7.2 22.9 7.2 17.4 0 30.6-11.2 6.6-5.6 10.8-12.4 4.1-7 5.4-14.9 2.5-15.7-7.2-25.6-9.9-9.9-27-13-12.8-2.3-17.7-8.1-3.7-4.5-2.8-11.5 1.4-8.6 8.8-14 7.2-5.6 17.4-5.6 8.5 0 13.7 3.4 4.9 3.3 6.1 9.7l14.3-4.5q-1.8-10.4-10.5-16.5-8.4-6.1-21.2-6.1zm93.7 50q13.3 0 20.1 9.5 7 9.8 4.9 23.6-2.2 13.9-12.3 23.6-9.7 9.5-23.2 9.5-13.7 0-20.7-9.5-6.8-9.5-4.7-23.6 2.4-14 12.1-23.6 9.9-9.5 23.8-9.5zm2.1-14q-19.4 0-34.2 13.6-14.7 13.7-17.8 33.5-3.2 19.6 7.2 33.5 10.4 13.7 29.9 13.7 19.2 0 34-13.7 14.8-13.9 18-33.5 3.2-19.4-7.6-33.5-10.4-13.6-29.5-13.6zm-6.9 14q13.3 0 20.2 9.5 7 9.8 4.8 23.6-2.1 13.9-12.2 23.6-9.7 9.5-23.2 9.5-13.7 0-20.7-9.5-6.9-9.5-4.7-23.6 2.3-14 12-23.6 9.9-9.5 23.8-9.5zm2.2-14q-19.5 0-34.2 13.6-14.8 13.7-17.9 33.5-3.2 19.6 7.2 33.5 10.5 13.7 29.9 13.7 19.3 0 34-13.7 14.8-13.9 18-33.5 3.3-19.4-7.5-33.5-10.5-13.6-29.5-13.6zm119-36.4h-10.2q-12.5 0-22.5 8.8-10.1 8.7-12.1 21.1l-1.4 8.6h-16.6l-2.2 14.1h16.6l-12.1 75.9h14.1l12-75.9h26.1l2.2-14.1h-26.1l1.4-8.6q0.6-3.3 2.2-6.1 1.6-2.9 4.3-5.1 5.2-4.7 11.9-4.7h10.3zm-4.8 0h-10.3q-12.4 0-22.5 8.9-10 8.6-12 21l-1.5 8.7h-16.5l-2.2 14h16.6l-12.1 76h14.1l12-76h26.1l2.2-14h-26.1l1.4-8.7q0.6-3.2 2.2-6.1 1.6-2.9 4.3-5 5.2-4.7 11.9-4.7h10.2zm32 10.4h-14.1l-4.5 28.1h-15.6l-2.2 14h15.7l-6.1 39.1q-2.6 15.3 6.4 25.9 9.4 11 24.5 11h4.5l2.4-14h-4.5q-9.6 0-15.3-6.9-5.4-6.3-4-16l6.1-39.1h27.6l2.1-14h-27.5zm-4.8 0h-14l-4.5 28.1h-15.7l-2.1 14h15.6l-6.1 39.1q-2.5 15.3 6.5 25.9 9.3 11 24.5 11h4.5l2.3-14.1h-4.5q-9.5 0-15.3-6.8-5.4-6.3-4-16l6.2-39.1h27.5l2.2-14h-27.6zm165.7 28.1h-14.8l-34.7 67.8-11-67.8h-14.9l-34.8 67.8-10.9-67.8h-14.8l14.6 90h14.7l34.8-67.9 11.1 67.9h14.6zm-4.7 0h-14.8l-34.7 67.8-11-67.8h-15l-34.7 67.8-11-67.8h-14.7l14.5 90h14.8l34.7-67.9 11.2 67.9h14.6zm95.1 0h-13.5l-2.2 13.8q-0.5-0.9-1-1.8-0.4-1.1-1.1-2-8.3-12.2-25.9-12.2-19.5 0-34.1 13.7-14.4 13.5-17.6 33.5-3.2 19.6 7 33.4 10.5 13.7 29.7 13.7 17.7 0 29.9-12.2 0.9-0.7 1.6-1.6 0.9-1.1 1.6-2l-2.1 13.7h13.5zm-45.6 11.8q13.4 0 19.8 9.6 3.5 4.7 4.5 10.6 1.3 5.8 0 13-1 7-4.1 12.9-2.9 5.8-7.7 10.6-9.6 9.6-22.9 9.6-13.5 0-20.5-9.6-7-9.5-4.7-23.5 2.2-14.1 12.1-23.6 9.9-9.6 23.5-9.6zm40.8-11.8h-13.5l-2.1 13.8q-0.6-0.9-1.1-1.8-0.4-1.1-1.1-2-8.3-12.2-25.9-12.2-19.5 0-34 13.7-14.4 13.5-17.7 33.5-3.2 19.6 7 33.4 10.5 13.7 29.7 13.7 17.7 0 29.9-12.2 0.9-0.7 1.6-1.6 0.9-1.1 1.7-2l-2.2 13.7h13.5zm-45.5 11.8q13.3 0 19.8 9.6 3.4 4.7 4.5 10.6 1.2 5.8 0 13-1.1 7-4.2 12.9-2.9 5.8-7.7 10.6-9.6 9.6-22.9 9.6-13.5 0-20.5-9.6-7-9.5-4.7-23.5 2.2-14.1 12.1-23.6 9.9-9.6 23.6-9.6zm84.1-11.8h-13.7l-14.2 90h14l7.6-47.4q1.4-6.6 4.5-12 3.2-5.4 8.6-9.9 10.8-8.9 23.6-8.9l2.2-14q-10.5 0-19.6 4.5-6.2 2.9-11.7 7.7-0.9 0.8-1.7 1.7-0.7 0.7-1.6 1.6zm-4.7 0h-13.7l-14.2 90h14l7.6-47.4q1.4-6.6 4.5-12 3.2-5.4 8.6-9.9 10.8-8.8 23.6-8.8l2.1-14.1q-10.4 0-19.6 4.5-6.1 2.9-11.7 7.8-0.9 0.7-1.6 1.6-0.7 0.7-1.6 1.6zm48.3 51.7h70.7l0.9-6.5q3.3-20.2-5.9-33.9-8.8-13.5-27.7-13.5-19.5 0-34.2 13.7-14.6 13.5-17.8 33.5-3.3 19.6 7.3 33.5 10.7 13.7 30.1 13.7 11.3 0 20.7-3.3 9.4-3.2 17.5-9.7l-7.2-9.7q-6 4.7-13 7.2-6.8 2.3-15.8 2.3-12.1 0-18.9-7.7-3.5-4-5.3-8.8-1.6-5.1-1.4-10.8zm36-40.2q11.5 0 17.1 7.6 5.8 7.4 5.2 20h-56.5q3.6-12.1 13-19.8 9.3-7.8 21.2-7.8zm-40.8 40.2h70.8l0.9-6.5q3.2-20.2-6-33.9-8.8-13.5-27.7-13.5-19.4 0-34.2 13.7-14.6 13.5-17.8 33.5-3.2 19.6 7.4 33.5 10.6 13.7 30 13.7 11.4 0 20.7-3.3 9.4-3.2 17.5-9.7l-7.2-9.7q-5.9 4.7-13 7.2-6.8 2.3-15.8 2.3-12.1 0-18.9-7.7-3.4-4-5.2-8.8-1.6-5.1-1.5-10.8zm36-40.2q11.6 0 17.1 7.6 5.8 7.4 5.3 20h-56.6q3.6-12.1 13-19.8 9.4-7.8 21.2-7.8zm110.5-47.5l-20 126h74.9l2.1-14h-60.5l6.7-43.2h49l2.3-14.3h-49l6.3-40.5h60.7l2.2-14zm-4.8 0l-20 126h74.9l2.2-14h-60.5l6.6-43.2h49l2.3-14.3h-48.9l6.3-40.5h60.6l2.2-14zm88.6 126l27.2-32.2 16.9 32.2h17.1l-23.5-45 37.8-45h-17l-27.5 32.4-17.1-32.4h-17.1l23.8 45-38 45zm-4.8 0l27.2-32.2 16.9 32.2h17.1l-23.6-45 37.8-45h-16.9l-27.5 32.4-17.1-32.4h-17.1l23.7 45-37.9 45zm90.4-90h13.5l-2.2 13.7q0.9-0.9 1.7-2 0.9-1.1 1.8-1.8 12.2-12.1 29.7-12.1 19.2 0 29.7 13.7 10.4 13.9 7.2 33.5-3.3 19.6-17.9 33.5-14.5 13.7-34 13.7-17.1 0-25.4-11.9-0.7-0.9-1.2-1.8-0.4-0.9-0.9-1.8l-7.9 49.3h-14.1zm31.3 78.1q13.7 0 23.6-9.5 10.1-9.7 12.3-23.6 2.1-13.9-4.9-23.6-7-9.5-20.5-9.5-13.5 0-23.1 9.5-9.5 9.6-11.7 23.6-1.9 14 4.4 23.6 6.4 9.5 19.9 9.5zm-36-78.1h13.5l-2.2 13.7q0.9-0.9 1.6-2 0.9-1.1 1.8-1.8 12.3-12.1 29.7-12.1 19.3 0 29.7 13.7 10.5 13.9 7.2 33.5-3.2 19.6-17.8 33.5-14.6 13.7-34 13.7-17.1 0-25.4-11.9-0.7-0.9-1.3-1.8-0.3-0.9-0.9-1.8l-7.9 49.3h-14zm31.3 78.1q13.7 0 23.6-9.5 10.1-9.7 12.2-23.6 2.2-13.9-4.8-23.6-7.1-9.5-20.6-9.5-13.5 0-23 9.5-9.5 9.6-11.7 23.6-2 14 4.3 23.6 6.5 9.5 20 9.5zm78.6-26.4h70.7l0.9-6.5q3.2-20.2-5.9-33.9-8.9-13.5-27.8-13.5-19.4 0-34.2 13.7-14.5 13.5-17.8 33.5-3.2 19.6 7.4 33.5 10.6 13.7 30.1 13.7 11.3 0 20.7-3.3 9.3-3.2 17.4-9.7l-7.2-9.7q-5.9 4.7-12.9 7.2-6.9 2.3-15.9 2.3-12 0-18.9-7.7-3.4-4-5.2-8.8-1.6-5.1-1.4-10.8zm36-40.2q11.5 0 17.1 7.6 5.7 7.4 5.2 20h-56.5q3.6-12.1 12.9-19.8 9.4-7.8 21.3-7.8zm-40.8 40.2h70.7l0.9-6.5q3.3-20.2-5.9-33.9-8.8-13.5-27.7-13.5-19.5 0-34.2 13.7-14.6 13.5-17.8 33.5-3.3 19.6 7.3 33.5 10.7 13.7 30.1 13.7 11.3 0 20.7-3.3 9.4-3.2 17.5-9.7l-7.2-9.7q-6 4.7-13 7.2-6.8 2.3-15.8 2.3-12.1 0-18.9-7.7-3.5-4-5.3-8.8-1.6-5.1-1.4-10.8zm36-40.2q11.5 0 17.1 7.6 5.8 7.4 5.2 20h-56.5q3.6-12.1 13-19.8 9.3-7.8 21.2-7.8zm74.6-11.5h-13.7l-14.2 90h14l7.6-47.3q1.4-6.7 4.5-12.1 3.2-5.4 8.6-9.9 10.8-8.8 23.6-8.8l2.2-14.1q-10.5 0-19.6 4.5-6.2 2.9-11.7 7.8-0.9 0.7-1.7 1.6-0.7 0.7-1.6 1.6zm-4.7 0h-13.7l-14.2 90h14l7.6-47.3q1.4-6.7 4.5-12.1 3.2-5.4 8.6-9.9 10.8-8.8 23.6-8.8l2.1-14q-10.4 0-19.6 4.5-6.1 2.8-11.7 7.7-0.9 0.7-1.6 1.6-0.7 0.7-1.6 1.6zm47.6 0l-14.2 90h14l14.2-90zm20.9-29.8q0.7-4-1.4-6.5-2.2-2.5-6.2-2.5-3.7 0-6.6 2.5-3.1 2.7-3.8 6.5-0.5 3.6 1.8 6.3 2.3 2.7 5.9 2.7 4 0 6.9-2.7 2.9-2.7 3.4-6.3zm-25.6 29.8l-14.3 90h14.1l14.2-90zm20.9-29.8q0.7-4-1.5-6.5-2.1-2.5-6.1-2.5-3.8 0-6.6 2.5-3.1 2.7-3.8 6.5-0.6 3.6 1.8 6.3 2.3 2.7 5.9 2.7 4 0 6.9-2.7 2.8-2.7 3.4-6.3zm21.3 81.5h70.7l0.9-6.5q3.3-20.1-5.9-33.8-8.8-13.5-27.7-13.5-19.5 0-34.2 13.7-14.6 13.5-17.8 33.4-3.3 19.7 7.3 33.5 10.7 13.7 30.1 13.7 11.3 0 20.7-3.2 9.4-3.3 17.5-9.8l-7.2-9.7q-6 4.7-13 7.2-6.8 2.4-15.8 2.4-12.1 0-18.9-7.8-3.5-3.9-5.3-8.8-1.6-5-1.4-10.8zm36-40.1q11.5 0 17.1 7.5 5.8 7.4 5.2 20h-56.5q3.6-12.1 13-19.8 9.3-7.7 21.2-7.7zm-40.8 40.1h70.8l0.9-6.5q3.2-20.1-6-33.8-8.8-13.5-27.7-13.5-19.4 0-34.2 13.7-14.6 13.5-17.8 33.4-3.2 19.7 7.4 33.5 10.6 13.7 30 13.7 11.4 0 20.7-3.2 9.4-3.3 17.5-9.8l-7.2-9.7q-5.9 4.7-13 7.2-6.8 2.4-15.8 2.4-12.1 0-18.9-7.8-3.4-3.9-5.2-8.8-1.6-5-1.5-10.8zm36-40.1q11.6 0 17.1 7.5 5.8 7.4 5.3 20h-56.6q3.6-12.1 13-19.8 9.4-7.7 21.2-7.7zm110.3 78.4h14l7.6-47.8q1.6-9.9 0.2-18-1.3-8.1-5.8-14.1-8.8-12.2-25-12.2-15 0-25.8 10.8-0.7 0.5-1.4 1.2-0.5 0.8-1.3 1.5l1.8-11.4h-13.6l-14.3 90h14.1l7.5-48q1.3-7 4-12.4 2.7-5.4 6.8-9.4 8.3-8.3 18.9-8.3 10.7 0 16.4 8.3 5.8 7.7 3.4 21.8zm-4.7 0h14l7.6-47.9q1.6-9.9 0.2-18-1.3-8.1-5.8-14-8.8-12.3-25-12.3-15 0-25.8 10.8-0.7 0.6-1.4 1.3-0.5 0.7-1.3 1.4l1.8-11.3h-13.6l-14.3 90h14.1l7.5-48.1q1.3-7 4-12.4 2.7-5.4 6.8-9.4 8.3-8.2 18.9-8.2 10.7 0 16.4 8.2 5.8 7.8 3.4 21.8zm90.7-92.1q-19.7 0-34.2 13.6-14.6 13.5-17.9 33.5-3.2 19.6 7.2 33.5 10.5 13.7 29.9 13.7 18.9 0 33.9-13.5l-8.3-10.3q-10.3 9.7-23.2 9.7-13.7 0-20.7-9.5-7.1-9.5-4.7-23.6 2.3-14 12-23.6 9.9-9.5 23.8-9.5 13 0 20.2 9.7l11.5-10.2q-10.6-13.5-29.5-13.5zm-4.8 0q-19.6 0-34.2 13.6-14.6 13.5-17.8 33.5-3.3 19.6 7.2 33.5 10.4 13.7 29.9 13.7 18.9 0 33.8-13.5l-8.3-10.3q-10.2 9.7-23.2 9.7-13.7 0-20.7-9.5-7-9.5-4.7-23.6 2.4-14 12.1-23.6 9.9-9.5 23.7-9.5 13 0 20.2 9.7l11.5-10.2q-10.6-13.5-29.5-13.5zm50.8 53.8h70.8l0.9-6.5q3.2-20.2-6-33.8-8.8-13.5-27.7-13.5-19.4 0-34.2 13.6-14.6 13.5-17.8 33.5-3.2 19.6 7.4 33.5 10.6 13.7 30 13.7 11.4 0 20.7-3.3 9.4-3.2 17.5-9.7l-7.2-9.7q-5.9 4.7-13 7.2-6.8 2.3-15.8 2.3-12.1 0-18.9-7.7-3.4-4-5.2-8.8-1.6-5.1-1.5-10.8zm36-40.2q11.6 0 17.1 7.6 5.8 7.4 5.3 20h-56.6q3.6-12.1 13-19.8 9.4-7.8 21.2-7.8zm-40.7 40.2h70.7l0.9-6.5q3.3-20.2-5.9-33.8-8.8-13.5-27.7-13.5-19.5 0-34.2 13.6-14.6 13.5-17.9 33.5-3.2 19.6 7.4 33.5 10.6 13.7 30.1 13.7 11.3 0 20.7-3.3 9.3-3.2 17.4-9.7l-7.2-9.7q-5.9 4.7-12.9 7.2-6.9 2.3-15.9 2.3-12 0-18.9-7.7-3.4-4-5.2-8.8-1.6-5.1-1.4-10.8zm36-40.2q11.5 0 17.1 7.6 5.7 7.4 5.2 20h-56.5q3.6-12.1 12.9-19.8 9.4-7.8 21.3-7.8zm155.8-50h-10.3q-12.4 0-22.5 8.8-10.1 8.7-12.1 21.1l-1.4 8.6h-16.6l-2.1 14.1h16.5l-12 75.9h14l12.1-75.9h26.1l2.1-14.1h-26.1l1.5-8.6q0.5-3.3 2.1-6.1 1.7-2.9 4.4-5.1 5.2-4.7 11.8-4.7h10.3zm-4.8 0h-10.2q-12.4 0-22.5 8.9-10.1 8.6-12.1 21l-1.4 8.7h-16.6l-2.1 14h16.5l-12 76h14l12.1-76h26.1l2.1-14h-26.1l1.5-8.7q0.5-3.2 2.1-6.1 1.6-2.9 4.3-5 5.3-4.7 11.9-4.7h10.3zm44.2 50.4q13.3 0 20.1 9.5 7 9.7 4.9 23.6-2.2 13.9-12.3 23.6-9.7 9.5-23.2 9.5-13.7 0-20.7-9.5-6.8-9.6-4.7-23.6 2.4-14 12.1-23.6 9.9-9.5 23.8-9.5zm2.1-14.1q-19.4 0-34.2 13.7-14.7 13.7-17.8 33.5-3.2 19.6 7.2 33.5 10.4 13.7 29.9 13.7 19.2 0 34-13.7 14.8-13.9 18-33.5 3.2-19.4-7.6-33.5-10.4-13.7-29.5-13.7zm-6.9 14.1q13.3 0 20.2 9.5 7 9.7 4.8 23.6-2.1 13.9-12.2 23.6-9.7 9.5-23.2 9.5-13.7 0-20.7-9.5-6.9-9.6-4.7-23.6 2.3-14 12-23.6 9.9-9.5 23.8-9.5zm2.2-14.1q-19.5 0-34.2 13.7-14.8 13.7-17.9 33.5-3.2 19.6 7.2 33.5 10.5 13.7 29.9 13.7 19.3 0 34-13.7 14.8-13.9 18-33.5 3.3-19.4-7.5-33.5-10.5-13.7-29.5-13.7zm77.4 2.2h-13.6l-14.3 90h14.1l7.5-47.3q1.5-6.7 4.5-12.1 3.3-5.4 8.7-9.9 10.8-8.8 23.6-8.8l2.1-14.1q-10.4 0-19.6 4.5-6.1 2.9-11.7 7.8-0.9 0.7-1.6 1.6-0.7 0.7-1.6 1.6zm-4.8 0h-13.7l-14.2 90h14l7.6-47.3q1.4-6.7 4.5-12.1 3.2-5.4 8.6-9.9 10.8-8.8 23.6-8.8l2.2-14q-10.5 0-19.6 4.5-6.2 2.8-11.7 7.7-0.9 0.7-1.7 1.6-0.7 0.7-1.6 1.6zm96-36l-19.9 126h74.7l2.3-14h-60.5l17.7-112zm-4.8 0l-20 126h74.7l2.4-14h-60.5l17.6-112zm84.5 36l-14.2 90h14l14.3-90zm20.8-29.8q0.8-4-1.4-6.5-2.2-2.5-6.1-2.5-3.8 0-6.7 2.5-3 2.7-3.8 6.5-0.5 3.6 1.8 6.3 2.4 2.7 6 2.7 3.9 0 6.8-2.7 2.9-2.7 3.4-6.3zm-25.6 29.8l-14.2 90h14l14.2-90zm20.9-29.8q0.7-4-1.4-6.5-2.2-2.5-6.1-2.5-3.8 0-6.7 2.5-3.1 2.7-3.8 6.5-0.5 3.6 1.8 6.3 2.4 2.7 6 2.7 3.9 0 6.8-2.7 2.9-2.7 3.4-6.3zm68.9 119.8h14l7.6-47.8q1.6-9.9 0.1-18-1.2-8.1-5.7-14.1-8.8-12.2-25-12.2-15 0-25.8 10.8-0.7 0.5-1.4 1.2-0.6 0.8-1.3 1.5l1.8-11.4h-13.7l-14.2 90h14.1l7.5-48q1.3-7 4-12.4 2.7-5.4 6.8-9.4 8.3-8.3 18.9-8.3 10.6 0 16.4 8.3 5.8 7.7 3.4 21.8zm-4.7 0h14l7.6-47.9q1.6-9.9 0.1-18-1.2-8.1-5.7-14-8.8-12.3-25-12.3-15 0-25.8 10.8-0.7 0.6-1.4 1.3-0.6 0.7-1.3 1.4l1.8-11.3h-13.7l-14.2 90h14.1l7.5-48.1q1.3-7 4-12.4 2.7-5.4 6.8-9.4 8.3-8.2 18.9-8.2 10.6 0 16.4 8.2 5.8 7.8 3.4 21.8zm62.6-90h-14.1l-7.5 47.9q-3.3 19.8 6.1 32 9.3 12.3 25.7 12.3 16.2 0 29.5-12.3 13.2-12 16.2-32l7.6-47.9h-14l-7.6 48.1q-1.3 7-4 12.4-2.5 5.4-6.6 9.4-4.2 4.1-8.8 6.3-4.7 1.9-9.9 1.9-10.7 0-16.4-8.2-6-8.1-3.8-21.8zm-4.8 0h-14l-7.6 47.9q-3.2 19.8 6.2 32 9.3 12.2 25.7 12.2 16.2 0 29.5-12.2 13.2-12.1 16.2-32l7.6-47.9h-14.1l-7.5 48q-1.3 7.1-4 12.5-2.5 5.4-6.6 9.3-4.2 4.2-8.9 6.3-4.6 2-9.9 2-10.6 0-16.3-8.3-6-8.1-3.8-21.8zm78.4 90l27.1-32.2 17 32.2h17.1l-23.6-45 37.8-45h-16.9l-27.6 32.4-17.1-32.4h-17.1l23.8 45-38 45zm-4.8 0l27.2-32.2 16.9 32.2h17.1l-23.5-45 37.8-45h-17l-27.5 32.4-17.1-32.4h-17.1l23.8 45-38 45zm136.6-128.1q-20.1 0-36.7 14.4-16.5 14.2-19.8 34.4-3.2 20.1 9 34.5 12.1 14.1 32.2 14.1 20.2 0 36.6-14.1 16.5-14.4 19.8-34.5 3.2-20.2-8.8-34.4-12.3-14.4-32.3-14.4zm-1.9 12q15.3 0 24.4 10.8 4.5 5.4 6.2 11.9 1.6 6.5 0.3 14.1-2.3 14.9-14.7 25.9-12.5 10.8-27.8 10.8-15.1 0-24.3-10.8-9-10.8-6.6-25.9 2.3-15 14.9-26 12.4-10.8 27.6-10.8zm1.8 10.3h-19.8l-8.3 52.7h11.5l3.1-19.8h3.9l5.2 19.8h12.3l-5.4-21q3.9-1.8 7-5.8 1.6-2 2.7-4.3 1.1-2.3 1.4-5.2 1.1-6.5-2.8-11.4-4.2-5-10.8-5zm-11.7 21.6l1.6-10.4h7.5q2.2 0 3.8 1.6 1.3 1.2 0.9 3.6-0.2 2.7-2.1 3.9-1.8 1.3-4.2 1.3z"/>
    <path id="Heading (Unageo Regular 500px)" class="s3" aria-label="WinApps"  d="m1834.6 48h-42.5l-80.5 278-81.5-278h-42l-81 278-81.5-278h-42l103 350h41l81.5-277 82 277h41zm-13.2 0h-42.5l-80.5 278-81.5-278h-42l-81 278-81.5-278h-42l103 350h41l81.5-277 82 277h41zm41.7 100v250h39v-250zm45-83q0-11-7-18-7-7-18-7-10.5 0-17.5 7-7.5 7.5-7.5 18 0 10 7.5 17.5 7.5 7.5 17.5 7.5 10.5 0 18-7.5 7-7 7-17.5zm-58.2 83v250h39v-250zm45-83q0-11-7-18-7-7-18-7-10.5 0-17.5 7-7.5 7.5-7.5 18 0 10 7.5 17.5 7.5 7.5 17.5 7.5 10.5 0 18-7.5 7-7 7-17.5zm243.7 333h39v-133q0-27.5-7.5-50-7-22.5-22-39-30-34-75-34-41.5 0-67 30-1.5 1.5-3 3.5-1.5 2-3 4v-31.5h-38v250h39v-133.5q0-19.5 5-34.5 5.5-15 15-26 19.5-23 49-23 30 0 49 23 19.5 22 19.5 60.5zm-13.2 0h39v-133q0-27.5-7.5-50-7-22.5-22-39-30-34-75-34-41.5 0-67 30-1.5 1.5-3 3.5-1.5 2-3 4v-31.5h-38v250h39v-133.5q0-19.5 5-34.5 5.5-15 15-26 19.5-23 49-23 30 0 49 23 19.5 22 19.5 60.5zm280.2-132.5h-119l59-162.5zm-166.5 132.5l33.5-93h147.5l33.5 93h42l-130-350h-40l-129 350zm153.3-132.5h-119l59-162.5zm-166.5 132.5l33.5-93h147.5l33.5 93h42l-130-350h-40l-129 350zm298.2-250h37.5v38q2-2.5 4-5.5 2-3 4-5 28.5-33.5 77-33.5 53.5 0 88.5 38 34.5 38 34.5 93 0 54.5-34.5 93-35 38-88.5 38-47.5 0-76-33-2-2-4-4.5-1.5-3-3.5-5.5v137h-39zm121 217q38 0 61.5-26.5 23.5-27 23.5-65.5 0-39-23.5-65.5-23.5-26.5-61.5-26.5-37 0-59.5 26.5-22.5 26.5-22.5 65.5 0 38.5 22.5 65.5 22.5 26.5 59.5 26.5zm-134.2-217h37.5v38q2-2.5 4-5.5 2-3 4-5 28.5-33.5 77-33.5 53.5 0 88.5 38 34.5 38 34.5 93 0 54.5-34.5 93-35 38-88.5 38-47.5 0-76-33-2-2-4-4.5-1.5-3-3.5-5.5v137h-39zm121 217q38 0 61.5-26.5 23.5-27 23.5-65.5 0-39-23.5-65.5-23.5-26.5-61.5-26.5-37 0-59.5 26.5-22.5 26.5-22.5 65.5 0 38.5 22.5 65.5 22.5 26.5 59.5 26.5zm181.7-217h37.5v38q2-2.5 4-5.5 2-3 4-5 28.5-33.5 77-33.5 53.5 0 88.5 38 34.5 38 34.5 93 0 54.5-34.5 93-35 38-88.5 38-47.5 0-76-33-2-2-4-4.5-1.5-3-3.5-5.5v137h-39zm121 217q38 0 61.5-26.5 23.5-27 23.5-65.5 0-39-23.5-65.5-23.5-26.5-61.5-26.5-37 0-59.5 26.5-22.5 26.5-22.5 65.5 0 38.5 22.5 65.5 22.5 26.5 59.5 26.5zm-134.2-217h37.5v38q2-2.5 4-5.5 2-3 4-5 28.5-33.5 77-33.5 53.5 0 88.5 38 34.5 38 34.5 93 0 54.5-34.5 93-35 38-88.5 38-47.5 0-76-33-2-2-4-4.5-1.5-3-3.5-5.5v137h-39zm121 217q38 0 61.5-26.5 23.5-27 23.5-65.5 0-39-23.5-65.5-23.5-26.5-61.5-26.5-37 0-59.5 26.5-22.5 26.5-22.5 65.5 0 38.5 22.5 65.5 22.5 26.5 59.5 26.5zm292.7-163l37-13q-9-22-28.5-34.5-20.5-12.5-48.5-12.5-34 0-56.5 20-22.5 19.5-22.5 50.5 0 27.5 20 45 10.5 8.5 23.5 15.5 13.5 6.5 29 10.5 8.5 2 15.5 4.5 7 2.5 13 6 25.5 12 25.5 31 0.5 17-14 29.5-14 12-36.5 12-34.5 0-48-28l-36.5 13q11 24.5 33 38.5 22 14 52 14 19.5 0 35-5.5 15.5-6 28-16.5 26.5-22.5 27-56.5 0-29.5-21.5-49.5-18.5-18-57.5-28.5-6.5-2-13-4-6-2-11.5-4-23.5-10.5-23.5-26.5-0.5-14.5 10.5-24 5-5 12.5-7 7.5-2.5 16.5-2.5 14.5 0 25.5 6 11 6.5 14.5 16.5zm-13.2 0l37-13q-9-22-28.5-34.5-20.5-12.5-48.5-12.5-34 0-56.5 20-22.5 19.5-22.5 50.5 0 27.5 20 45 10.5 8.5 23.5 15.5 13.5 6.5 29 10.5 8.5 2 15.5 4.5 7 2.5 13 6 25.5 12 25.5 31 0.5 17-14 29.5-14 12-36.5 12-34.5 0-48-28l-36.5 13q11 24.5 33 38.5 22 14 52 14 19.5 0 35-5.5 15.5-6 28-16.5 26.5-22.5 27-56.5 0-29.5-21.5-49.5-18.5-18-57.5-28.5-6.5-2-13-4-6-2-11.5-4-23.5-10.5-23.5-26.5-0.5-14.5 10.5-24 5-5 12.5-7 7.5-2.5 16.5-2.5 14.5 0 25.5 6 11 6.5 14.5 16.5z"/>
</svg>
