<?xml version="1.0" encoding="utf-8"?>
<!-- Generator: Adobe Illustrator 23.0.1, SVG Export Plug-In . SVG Version: 6.00 Build 0)  -->
<!DOCTYPE svg PUBLIC "-//W3C//DTD SVG 1.1//EN" "http://www.w3.org/Graphics/SVG/1.1/DTD/svg11.dtd" [
    <!ENTITY ns_extend "http://ns.adobe.com/Extensibility/1.0/">
    <!ENTITY ns_ai "http://ns.adobe.com/AdobeIllustrator/10.0/">
    <!ENTITY ns_graphs "http://ns.adobe.com/Graphs/1.0/">
    <!ENTITY ns_vars "http://ns.adobe.com/Variables/1.0/">
    <!ENTITY ns_imrep "http://ns.adobe.com/ImageReplacement/1.0/">
    <!ENTITY ns_sfw "http://ns.adobe.com/SaveForWeb/1.0/">
    <!ENTITY ns_custom "http://ns.adobe.com/GenericCustomNamespace/1.0/">
    <!ENTITY ns_adobe_xpath "http://ns.adobe.com/XPath/1.0/">
]>
<svg version="1.1" id="Layer_1" xmlns:x="&ns_extend;" xmlns:i="&ns_ai;" xmlns:graph="&ns_graphs;"
     xmlns="http://www.w3.org/2000/svg" xmlns:xlink="http://www.w3.org/1999/xlink" x="0px" y="0px" viewBox="0 0 256.4 250"
     enable-background="new 0 0 256.4 250" xml:space="preserve">
<metadata>
    <sfw  xmlns="&ns_sfw;">
        <slices></slices>
        <sliceSourceBounds  bottomLeftOrigin="true" height="250" width="256.4" x="-8.2" y="-8"></sliceSourceBounds>
    </sfw>
</metadata>
<g id="Layer_2_1_">
    <path fill="#001E36" d="M45.4,0H211c25.1,0,45.4,20.3,45.4,45.4v159.2c0,25.1-20.3,45.4-45.4,45.4H45.4C20.3,250,0,229.7,0,204.6
        V45.4C0,20.3,20.3,0,45.4,0z"/>
    <g id="Lr">
        <path fill="#31A8FF" d="M134.6,176.7H66.9c-1.2,0-1.7-0.6-1.7-1.9V65.6c-0.1-0.7,0.4-1.4,1.2-1.5c0.1,0,0.2,0,0.4,0h20.9
            c0.5-0.1,1.2,0.3,1.2,0.9c0,0.1,0,0.2,0,0.3V155h49.4c1.1,0,1.4,0.5,1.2,1.5l-3.1,18.6c0,0.5-0.3,1-0.6,1.3
            C135.4,176.6,135,176.7,134.6,176.7z"/>
        <path fill="#31A8FF" d="M151.7,91.2h18.7c1.1,0,1.9,0.7,2.2,1.7c0.4,0.7,0.7,1.6,0.9,2.5c0.2,1.1,0.4,2.2,0.5,3.3
            c0.1,1.2,0.2,2.5,0.2,3.8c3.2-3.7,7.1-6.8,11.4-9.2c4.9-2.7,10.4-4,15.9-3.8c0.7-0.1,1.4,0.4,1.5,1.2c0,0.1,0,0.2,0,0.4V112
            c0,0.9-0.5,1.2-1.7,1.2c-6.9-0.4-13.9,0.9-20.2,3.6c-2.1,1-4.2,2.2-5.8,4v54.5c0,1.1-0.4,1.5-1.4,1.5h-20.8
            c-0.9,0.1-1.6-0.4-1.7-1.3c0-0.1,0-0.3,0-0.4v-59.2c0-2.6,0-5.2-0.1-8c-0.1-2.8-0.1-5.6-0.2-8.3c-0.1-2.4-0.3-4.7-0.6-7.1
            c-0.1-0.5,0.2-1.1,0.7-1.2C151.4,91.1,151.5,91.1,151.7,91.2L151.7,91.2z"/>
    </g>
</g>
</svg>
