<?xml version="1.0" encoding="utf-8"?>
<!-- Generator: Adobe Illustrator 20.1.0, SVG Export Plug-In . SVG Version: 6.00 Build 0)  -->
<svg version="1.1" id="ai_x5F_cc_x5F_app_x5F_RGB.svg"
	xmlns="http://www.w3.org/2000/svg"
	xmlns:xlink="http://www.w3.org/1999/xlink" x="0px" y="0px" viewBox="0 0 240 234" width="320" height="312" enable-background="new 0 0 240 234" xml:space="preserve">
	<path fill="#260C00" d="M41.9,7.5C13.8,7.5,7.3,24.2,7.3,52.4L7.4,189c0,28.2,8.8,37.6,36.9,37.6H195c28.1,0,37.6-9.4,37.6-37.5
	V47.2c0-28.2-10.5-39.7-38.6-39.7C194,7.5,41.9,7.5,41.9,7.5z"/>
	<g>
		<g>
			<path fill="#FF6000" d="M0,43.1v148.2C0,214.9,18.2,234,41.9,234h155.3c23.7,0,42.9-19.1,42.9-42.8V42.8C240,19.2,220.8,0,197.1,0
			H41.9C18.2,0,0,19.2,0,42.8V43.1z M194,10.1c19.1,0,35.9,15.7,35.9,34.8v142.3c0,19.1-15.5,36.7-34.6,36.7H44.7
			c-19.1,0-34.6-16.2-34.6-35.3l0-141.7c0-19,15.5-36.8,34.5-36.8L194,10.1L194,10.1z"/>
		</g>
	</g>
	<g>
		<g>
			<path fill="#FEDCCA" d="M182.3,171.3H57.7c-7.4,0-9.7-2.4-9.7-9.8V71.1c0-7.4,2.4-9.8,9.7-9.8h124.5c7.4,0,9.7,2.4,9.7,9.8v90.5
			C192,168.9,189.6,171.3,182.3,171.3z M57.7,65.3c-5.1,0-5.7,0.6-5.7,5.8v90.5c0,5.2,0.6,5.8,5.7,5.8h124.5c5.1,0,5.7-0.6,5.7-5.8
			V71.1c0-5.2-0.6-5.8-5.7-5.8H57.7z"/>
		</g>
		<g>
			<path fill="#FF6000" d="M57,162.3h61v-92H57V162.3z M67,93h44v2H67V93z M67,102.1h44v2H67V102.1z M67,111h44v2H67V111z M67,120h44
			v2H67V120z M67,129.1h44v2H67V129.1z M67,138h44v2H67V138z"/>
			<path fill="#FF6000" d="M158.7,70.3H122v92h61V94.2L158.7,70.3z M129.3,92.5h24.5v2h-24.5V92.5z M129.3,101.6l43.6,0.2l0,2
			l-43.6-0.2L129.3,101.6z M173.3,139.5h-44.1v-2h44.1V139.5z M173.3,130.6h-44.1v-2h44.1V130.6z M173.3,121.5h-44.1v-2h44.1V121.5z
			 M173.3,112.5h-44.1v-2h44.1V112.5z M158.3,94.6V72.4L181,94.6H158.3z"/>
		</g>
	</g>
</svg>