<svg id="svg" version="1.1" xmlns="http://www.w3.org/2000/svg" xmlns:xlink="http://www.w3.org/1999/xlink" width="400" height="400" viewBox="0, 0, 400,400"><g id="svgg"><path id="path0" d="M157.000 193.468 C 152.216 197.627,151.046 198.650,150.650 199.024 C 150.206 199.442,143.502 205.407,140.000 208.500 C 139.010 209.374,136.850 211.305,135.200 212.790 C 131.356 216.252,128.056 219.154,122.048 224.359 L 121.096 225.184 119.639 224.031 C 118.419 223.065,110.411 216.018,108.952 214.627 C 108.706 214.392,107.371 213.210,105.986 212.000 C 102.961 209.357,96.095 203.268,94.126 201.483 C 91.450 199.056,90.931 198.593,88.224 196.219 C 85.808 194.100,83.932 192.800,83.290 192.800 C 82.965 192.800,83.594 298.958,83.920 299.250 C 84.074 299.388,99.170 299.601,117.467 299.723 L 150.733 299.945 151.789 297.672 C 152.369 296.423,153.221 294.590,153.681 293.600 C 154.141 292.610,154.672 291.530,154.860 291.200 C 155.048 290.870,155.381 290.150,155.601 289.600 C 155.820 289.050,156.181 288.330,156.402 288.000 C 156.834 287.357,156.941 287.145,157.609 285.600 C 157.847 285.050,158.437 283.941,158.921 283.136 C 159.404 282.330,160.408 280.620,161.150 279.336 C 161.893 278.051,162.737 276.730,163.026 276.400 C 169.603 268.881,175.156 266.306,184.647 266.374 C 188.079 266.398,188.029 266.419,191.656 263.425 C 192.017 263.127,198.227 258.152,205.456 252.370 C 212.685 246.588,218.690 241.727,218.800 241.568 C 218.910 241.409,223.691 237.526,229.425 232.940 C 235.158 228.353,239.922 224.420,240.010 224.200 C 240.178 223.783,235.694 220.018,229.200 215.122 C 225.547 212.369,224.896 211.839,223.275 210.304 C 221.246 208.382,220.939 208.540,210.326 216.969 C 204.902 221.276,200.154 224.800,199.773 224.800 C 199.186 224.800,197.117 223.353,194.800 221.321 C 194.470 221.032,192.670 219.587,190.800 218.110 C 188.930 216.633,187.220 215.278,187.000 215.100 C 186.780 214.921,185.064 213.566,183.186 212.087 C 181.308 210.609,179.508 209.174,179.186 208.897 C 178.864 208.620,177.502 207.535,176.161 206.486 C 174.819 205.437,173.439 204.313,173.093 203.989 C 172.747 203.665,172.045 203.080,171.532 202.688 C 169.504 201.138,165.734 198.172,165.183 197.693 C 163.005 195.797,158.569 192.385,158.317 192.413 C 158.253 192.420,157.660 192.895,157.000 193.468 M261.358 242.325 C 260.721 242.926,258.409 245.033,256.220 247.008 C 254.032 248.984,251.581 251.230,250.775 252.000 C 249.273 253.434,245.557 256.826,237.813 263.831 C 235.400 266.014,233.139 268.070,232.788 268.400 C 227.699 273.194,220.382 279.973,216.400 283.582 C 207.942 291.248,208.022 291.102,207.814 299.152 C 207.798 299.780,314.154 300.148,315.924 299.526 L 316.848 299.202 316.724 291.458 L 316.600 283.715 315.275 282.601 C 313.792 281.354,300.881 271.153,298.820 269.600 C 298.090 269.050,297.022 268.181,296.447 267.670 C 295.871 267.158,294.950 266.440,294.400 266.075 C 292.701 264.945,277.933 253.273,275.481 251.121 C 274.206 250.001,272.406 248.542,271.481 247.877 C 270.556 247.212,268.540 245.646,267.000 244.397 C 262.913 241.081,262.745 241.019,261.358 242.325 " stroke="none" fill="#0b58b8" fill-rule="evenodd"></path><path id="path1" d="M365.000 123.600 C 364.787 124.271,364.395 124.400,362.573 124.400 C 360.954 124.400,360.400 124.546,360.400 124.973 C 360.400 125.288,360.040 125.660,359.600 125.800 C 359.160 125.940,358.800 126.312,358.800 126.627 C 358.800 126.942,358.440 127.200,358.000 127.200 C 357.482 127.200,357.200 127.467,357.200 127.955 C 357.200 128.501,356.814 128.783,355.811 128.972 C 355.047 129.115,354.282 129.464,354.111 129.746 C 353.940 130.029,353.485 130.376,353.100 130.518 C 352.715 130.659,352.400 131.051,352.400 131.387 C 352.400 131.733,352.052 132.000,351.600 132.000 C 351.067 132.000,350.800 132.267,350.800 132.800 C 350.800 133.333,350.533 133.600,350.000 133.600 C 349.467 133.600,349.200 133.867,349.200 134.400 C 349.200 134.922,348.933 135.200,348.433 135.200 C 347.241 135.200,346.400 135.631,346.400 136.243 C 346.400 136.549,346.052 136.800,345.627 136.800 C 345.202 136.800,344.740 137.160,344.600 137.600 C 344.460 138.040,344.100 138.400,343.800 138.400 C 343.500 138.400,343.140 138.760,343.000 139.200 C 342.860 139.640,342.488 140.000,342.173 140.000 C 341.858 140.000,341.600 140.360,341.600 140.800 C 341.600 141.420,341.333 141.600,340.414 141.600 C 339.638 141.600,339.080 141.876,338.800 142.400 C 338.565 142.840,338.018 143.200,337.586 143.200 C 337.154 143.200,336.800 143.449,336.800 143.753 C 336.800 144.058,336.440 144.401,336.000 144.516 C 335.555 144.632,335.200 145.062,335.200 145.484 C 335.200 147.561,332.769 150.008,322.728 158.042 C 317.158 162.499,312.510 166.260,312.400 166.401 C 312.290 166.542,310.940 167.621,309.400 168.800 C 307.860 169.979,306.510 171.058,306.400 171.198 C 306.290 171.337,300.710 175.832,294.000 181.185 C 287.290 186.538,281.620 191.132,281.400 191.394 C 281.180 191.656,279.380 193.099,277.400 194.602 C 275.420 196.104,273.710 197.466,273.600 197.628 C 273.490 197.790,272.230 198.836,270.800 199.954 C 269.370 201.071,267.930 202.232,267.600 202.533 C 266.584 203.459,247.351 218.822,243.260 221.974 C 237.426 226.469,219.456 240.842,219.000 241.377 C 218.780 241.635,212.660 246.593,205.400 252.394 C 198.140 258.196,192.110 263.047,192.000 263.174 C 191.890 263.301,190.951 264.034,189.912 264.803 C 187.761 266.395,187.647 266.643,188.900 267.009 C 200.106 270.286,208.132 279.800,208.392 290.114 C 208.402 290.517,209.569 289.882,210.600 288.914 C 211.040 288.500,213.650 286.112,216.400 283.606 C 220.378 279.981,228.115 272.802,232.788 268.400 C 233.139 268.070,235.400 266.014,237.813 263.831 C 245.557 256.826,249.273 253.434,250.775 252.000 C 251.581 251.230,254.032 248.982,256.220 247.005 C 258.409 245.029,261.910 241.697,264.000 239.602 C 267.642 235.952,271.856 232.007,282.802 222.000 C 283.592 221.278,291.735 213.714,295.965 209.773 C 297.634 208.218,301.164 204.973,303.810 202.563 C 306.455 200.152,308.983 197.825,309.427 197.390 C 310.546 196.294,318.407 189.036,324.400 183.566 C 327.150 181.056,329.940 178.499,330.600 177.885 C 332.218 176.378,333.858 175.600,335.415 175.600 C 336.370 175.600,336.761 175.392,336.916 174.800 C 337.031 174.360,337.412 174.000,337.763 174.000 C 338.113 174.000,338.400 173.751,338.400 173.447 C 338.400 173.142,338.760 172.799,339.200 172.684 C 339.640 172.569,340.000 172.188,340.000 171.837 C 340.000 171.487,340.270 171.200,340.600 171.200 C 340.933 171.200,341.200 170.844,341.200 170.400 C 341.200 169.867,341.467 169.600,342.000 169.600 C 342.533 169.600,342.800 169.333,342.800 168.800 C 342.800 168.260,343.067 168.000,343.619 168.000 C 344.070 168.000,344.855 167.550,345.365 167.000 C 345.875 166.450,346.496 166.000,346.746 166.000 C 346.996 166.000,347.200 165.816,347.200 165.590 C 347.200 165.365,347.650 165.009,348.200 164.800 C 348.750 164.591,349.200 164.166,349.200 163.857 C 349.200 163.547,349.560 163.199,350.000 163.084 C 350.440 162.969,350.800 162.609,350.800 162.284 C 350.800 161.959,351.160 161.599,351.600 161.484 C 352.040 161.369,352.400 161.009,352.400 160.684 C 352.400 160.359,352.760 159.999,353.200 159.884 C 353.640 159.769,354.000 159.388,354.000 159.037 C 354.000 158.687,354.226 158.400,354.503 158.400 C 354.779 158.400,355.584 157.770,356.290 157.000 C 356.997 156.230,357.761 155.600,357.988 155.600 C 358.214 155.600,358.400 155.240,358.400 154.800 C 358.400 154.267,358.667 154.000,359.200 154.000 C 359.733 154.000,360.000 153.733,360.000 153.200 C 360.000 152.667,360.267 152.400,360.800 152.400 C 361.333 152.400,361.600 152.133,361.600 151.600 C 361.600 151.067,361.867 150.800,362.400 150.800 C 362.933 150.800,363.200 150.533,363.200 150.000 C 363.200 149.482,363.467 149.200,363.957 149.200 C 364.374 149.200,364.821 148.921,364.952 148.581 C 365.083 148.241,365.732 147.773,366.395 147.542 C 367.058 147.311,367.600 146.869,367.600 146.561 C 367.600 146.252,367.960 146.000,368.400 146.000 C 368.865 146.000,369.200 145.733,369.200 145.363 C 369.200 145.012,369.554 144.633,369.987 144.519 C 370.419 144.406,370.882 143.973,371.014 143.557 C 371.146 143.141,371.500 142.800,371.800 142.800 C 372.100 142.800,372.460 142.440,372.600 142.000 C 372.740 141.560,373.091 141.200,373.380 141.200 C 373.670 141.200,374.001 140.840,374.116 140.400 C 374.231 139.960,374.612 139.600,374.963 139.600 C 375.517 139.600,375.600 138.836,375.600 133.747 L 375.600 127.895 373.853 126.147 C 372.375 124.670,371.859 124.400,370.515 124.400 C 369.432 124.400,368.693 124.145,368.200 123.600 C 367.802 123.160,366.976 122.800,366.365 122.800 C 365.605 122.800,365.174 123.053,365.000 123.600 " stroke="none" fill="#f91445" fill-rule="evenodd"></path><path id="path2" d="M83.867 50.666 C 83.191 51.342,83.574 148.015,84.254 148.276 C 84.614 148.414,85.136 148.364,85.413 148.164 C 92.379 143.145,95.798 141.912,103.155 141.764 L 108.909 141.649 109.874 139.124 C 117.547 119.037,139.373 110.678,157.976 120.703 C 162.463 123.121,168.855 129.395,170.707 133.200 C 170.975 133.750,171.354 134.470,171.550 134.800 C 172.408 136.248,173.532 139.118,173.766 140.461 C 174.100 142.371,174.448 142.461,179.355 141.912 C 191.150 140.594,199.601 144.818,205.796 155.127 L 206.991 157.117 209.396 155.258 C 218.077 148.548,230.394 148.055,239.205 154.063 C 239.684 154.390,240.392 153.886,242.605 151.644 C 248.593 145.578,255.809 142.235,263.936 141.761 C 268.825 141.476,274.844 142.050,276.600 142.968 C 277.260 143.313,278.007 143.596,278.260 143.598 C 279.142 143.602,283.166 145.686,286.162 147.690 C 288.887 149.514,294.637 155.828,295.586 158.041 C 295.813 158.568,296.167 159.270,296.374 159.600 C 298.172 162.468,300.000 168.651,300.000 171.867 C 300.000 174.506,300.355 174.945,301.566 173.802 C 302.639 172.790,304.703 171.200,304.944 171.200 C 305.070 171.200,305.803 170.570,306.573 169.800 C 307.343 169.030,308.094 168.400,308.241 168.400 C 308.388 168.400,308.903 167.995,309.385 167.500 C 309.866 167.005,310.779 166.240,311.413 165.800 C 312.047 165.360,312.888 164.685,313.283 164.300 C 313.677 163.915,314.146 163.600,314.325 163.600 C 314.503 163.600,315.044 163.066,315.526 162.414 L 316.403 161.229 316.301 105.914 L 316.200 50.600 200.167 50.499 C 136.349 50.444,84.014 50.519,83.867 50.666 M157.675 192.043 C 157.166 192.235,156.517 192.619,156.233 192.896 C 155.948 193.173,154.223 194.750,152.398 196.400 C 150.573 198.050,148.786 199.670,148.426 200.000 C 148.066 200.330,146.615 201.590,145.200 202.800 C 143.785 204.010,142.345 205.270,141.999 205.600 C 141.441 206.131,138.551 208.716,133.439 213.255 C 128.816 217.360,123.647 221.985,122.425 223.109 L 121.050 224.374 119.225 222.900 C 118.221 222.090,117.310 221.307,117.200 221.161 C 117.090 221.015,116.190 220.220,115.200 219.396 C 113.087 217.635,107.818 212.956,106.628 211.784 C 106.173 211.334,103.640 209.095,101.000 206.808 C 98.360 204.521,95.912 202.368,95.559 202.025 C 92.993 199.524,86.216 193.625,84.827 192.683 C 82.704 191.242,82.800 188.706,82.800 246.225 C 82.800 288.448,82.904 299.620,83.300 299.876 C 83.831 300.220,149.241 300.564,150.600 300.231 C 151.381 300.039,152.084 298.874,154.119 294.400 C 156.245 289.726,157.253 287.702,158.801 285.000 C 159.683 283.460,160.629 281.749,160.902 281.198 C 163.499 275.970,169.581 270.090,173.675 268.850 C 174.404 268.629,175.720 268.175,176.600 267.842 C 177.653 267.443,179.663 267.229,182.476 267.218 C 186.796 267.200,188.855 266.549,185.310 266.322 C 178.052 265.857,170.737 268.477,166.102 273.200 C 162.671 276.697,162.690 276.672,161.150 279.336 C 160.408 280.620,159.404 282.330,158.921 283.136 C 158.437 283.941,157.847 285.050,157.609 285.600 C 156.941 287.145,156.834 287.357,156.402 288.000 C 156.181 288.330,155.820 289.050,155.601 289.600 C 155.381 290.150,155.048 290.870,154.860 291.200 C 154.672 291.530,154.141 292.610,153.681 293.600 C 153.221 294.590,152.369 296.423,151.789 297.672 L 150.733 299.945 117.467 299.723 C 99.170 299.601,84.074 299.388,83.920 299.250 C 83.594 298.958,82.965 192.800,83.290 192.800 C 83.932 192.800,85.808 194.100,88.224 196.219 C 90.931 198.593,91.450 199.056,94.126 201.483 C 96.095 203.268,102.961 209.357,105.986 212.000 C 107.371 213.210,108.706 214.392,108.952 214.627 C 110.411 216.018,118.419 223.065,119.639 224.031 L 121.096 225.184 122.048 224.359 C 128.056 219.154,131.356 216.252,135.200 212.790 C 136.850 211.305,139.010 209.374,140.000 208.500 C 140.990 207.625,143.690 205.228,146.000 203.172 C 148.310 201.116,150.727 198.976,151.371 198.417 C 152.015 197.858,152.829 197.130,153.180 196.800 C 153.530 196.470,154.838 195.332,156.086 194.271 L 158.355 192.341 160.477 193.922 C 162.419 195.368,163.603 196.317,165.183 197.693 C 165.734 198.172,169.504 201.138,171.532 202.688 C 172.045 203.080,172.747 203.665,173.093 203.989 C 173.439 204.313,174.819 205.437,176.161 206.486 C 177.502 207.535,178.864 208.620,179.186 208.897 C 179.508 209.174,181.308 210.609,183.186 212.087 C 185.064 213.566,186.780 214.921,187.000 215.100 C 187.220 215.278,188.930 216.633,190.800 218.110 C 192.670 219.587,194.470 221.032,194.800 221.321 C 197.117 223.353,199.186 224.800,199.773 224.800 C 200.154 224.800,204.902 221.276,210.326 216.969 C 220.920 208.555,221.317 208.350,223.230 210.305 C 224.019 211.111,225.416 212.232,229.664 215.467 C 231.349 216.750,234.409 219.140,236.464 220.778 C 238.519 222.417,239.930 223.366,239.600 222.888 C 239.127 222.202,231.197 215.781,225.284 211.295 C 224.781 210.913,224.061 210.321,223.684 209.980 C 220.921 207.475,221.826 207.029,209.200 217.124 C 204.470 220.905,200.330 223.998,200.000 223.996 C 199.526 223.992,178.788 207.829,178.000 206.849 C 177.890 206.712,176.630 205.711,175.200 204.625 C 172.558 202.619,172.034 202.197,170.587 200.919 C 170.140 200.523,168.790 199.458,167.587 198.552 C 166.384 197.645,164.860 196.425,164.200 195.840 C 163.540 195.256,162.820 194.647,162.600 194.489 C 162.379 194.330,161.569 193.737,160.800 193.172 C 158.784 191.691,158.694 191.658,157.675 192.043 M263.420 241.532 C 264.546 242.517,270.033 246.835,271.481 247.877 C 272.406 248.542,274.206 250.001,275.481 251.121 C 277.933 253.273,292.701 264.945,294.400 266.075 C 294.950 266.440,295.871 267.158,296.447 267.670 C 297.022 268.181,298.090 269.050,298.820 269.600 C 300.881 271.153,313.792 281.354,315.275 282.601 L 316.600 283.715 316.724 291.462 L 316.848 299.208 315.924 299.600 L 315.000 299.992 316.000 299.896 L 317.000 299.800 317.108 291.744 L 317.216 283.688 315.908 282.423 C 314.757 281.310,300.383 269.921,297.451 267.800 C 296.843 267.360,295.593 266.328,294.673 265.506 C 293.753 264.684,292.896 264.009,292.770 264.006 C 292.563 264.001,289.444 261.635,287.400 259.932 C 286.960 259.565,284.334 257.472,281.563 255.281 C 278.793 253.090,275.792 250.555,274.895 249.648 C 273.997 248.742,273.109 248.000,272.920 248.000 C 272.732 248.000,272.286 247.685,271.929 247.300 C 271.313 246.635,270.561 246.016,268.162 244.200 C 267.581 243.760,266.780 243.099,266.383 242.730 C 265.986 242.362,265.299 241.867,264.857 241.630 C 263.898 241.117,262.865 241.047,263.420 241.532 M207.751 295.200 C 207.453 297.991,207.436 299.568,207.700 299.900 C 208.014 300.295,217.028 300.392,250.549 300.360 C 279.422 300.332,292.488 300.193,291.400 299.924 C 290.374 299.671,275.116 299.591,248.886 299.703 C 226.383 299.800,207.898 299.759,207.808 299.614 C 207.718 299.468,207.825 298.046,208.046 296.453 C 208.267 294.860,208.392 292.982,208.324 292.279 C 208.256 291.575,207.998 292.890,207.751 295.200 " stroke="none" fill="#94cbfb" fill-rule="evenodd"></path><path id="path3" d="M64.800 32.368 C 64.800 32.569,65.025 32.824,65.300 32.935 C 65.700 33.096,65.700 33.143,65.300 33.168 C 64.901 33.194,64.800 66.837,64.800 199.967 C 64.800 333.006,64.901 366.774,65.300 366.935 C 65.700 367.096,65.700 367.143,65.300 367.168 C 65.025 367.186,64.800 367.379,64.800 367.599 C 64.800 367.863,110.399 367.998,200.000 367.998 C 289.601 367.998,335.200 367.863,335.200 367.599 C 335.200 367.379,334.975 367.197,334.700 367.194 C 334.301 367.189,334.301 367.124,334.701 366.870 C 335.100 366.616,335.181 347.333,335.101 271.776 L 335.000 177.000 333.770 177.051 C 332.519 177.104,331.422 177.989,325.415 183.800 C 324.051 185.120,321.715 187.280,320.224 188.600 C 315.743 192.568,315.600 193.042,315.600 203.906 L 315.600 213.038 311.191 217.319 C 308.766 219.674,306.701 221.600,306.601 221.600 C 306.501 221.600,305.043 222.950,303.361 224.600 C 301.678 226.250,300.210 227.600,300.098 227.600 C 299.986 227.600,299.330 228.185,298.640 228.900 C 297.950 229.615,296.579 230.899,295.593 231.754 C 293.426 233.632,285.631 240.919,282.386 244.100 C 281.095 245.365,279.940 246.400,279.819 246.400 C 279.309 246.400,276.800 249.422,276.800 250.037 C 276.800 250.406,277.718 251.493,278.840 252.454 C 279.961 253.414,281.221 254.515,281.640 254.900 C 282.058 255.285,282.509 255.600,282.642 255.600 C 282.869 255.600,284.145 256.573,286.334 258.414 C 286.848 258.846,287.433 259.200,287.634 259.200 C 287.835 259.200,288.000 259.427,288.000 259.705 C 288.000 259.983,288.343 260.388,288.761 260.605 C 290.490 261.502,293.941 264.069,294.150 264.614 C 294.274 264.936,294.590 265.200,294.854 265.200 C 295.117 265.200,295.618 265.473,295.966 265.807 C 296.315 266.141,297.770 267.327,299.200 268.441 C 300.630 269.556,301.860 270.632,301.933 270.834 C 302.007 271.035,302.320 271.200,302.630 271.200 C 302.940 271.200,303.418 271.560,303.693 272.000 C 303.968 272.440,304.346 272.800,304.533 272.800 C 304.941 272.800,306.635 274.083,308.758 276.000 C 310.348 277.436,310.849 277.811,313.100 279.249 C 313.815 279.705,314.400 280.241,314.400 280.440 C 314.400 280.638,314.664 280.800,314.986 280.800 C 315.308 280.800,315.765 281.160,316.000 281.600 C 316.235 282.040,316.692 282.400,317.014 282.400 C 317.511 282.400,317.600 283.757,317.600 291.350 L 317.600 300.300 316.350 300.550 C 315.662 300.688,294.614 300.800,269.575 300.800 L 224.049 300.800 223.767 302.700 C 223.613 303.745,223.152 305.227,222.743 305.994 C 222.334 306.761,221.988 307.661,221.973 307.994 C 221.959 308.327,221.423 309.500,220.783 310.600 C 220.142 311.700,219.318 313.140,218.951 313.800 C 214.962 320.972,207.263 326.933,197.000 330.797 C 195.680 331.294,193.970 331.939,193.200 332.229 C 192.430 332.520,191.170 332.878,190.400 333.027 C 189.630 333.175,188.550 333.521,188.000 333.796 C 187.450 334.071,186.100 334.427,185.000 334.588 C 183.900 334.748,182.675 335.053,182.278 335.265 C 181.881 335.478,180.441 335.830,179.078 336.047 C 177.715 336.265,175.829 336.703,174.886 337.022 C 173.943 337.340,172.612 337.600,171.928 337.600 C 171.243 337.600,169.135 337.950,167.242 338.379 C 165.349 338.807,162.450 339.347,160.800 339.579 C 159.150 339.811,156.630 340.173,155.200 340.384 C 152.113 340.839,147.100 341.478,142.400 342.017 C 133.701 343.013,131.624 343.260,129.200 343.581 C 119.125 344.918,116.602 344.566,117.865 342.000 C 118.337 341.041,119.008 339.080,120.191 335.200 C 120.493 334.210,121.214 332.140,121.795 330.600 C 122.375 329.060,123.012 327.158,123.210 326.374 C 123.409 325.589,123.846 324.419,124.183 323.774 C 124.520 323.128,124.802 322.240,124.811 321.800 C 124.820 321.360,125.175 320.280,125.600 319.400 C 126.025 318.520,126.385 317.530,126.400 317.200 C 126.415 316.870,126.775 315.880,127.200 315.000 C 127.625 314.120,127.985 313.130,128.000 312.800 C 128.015 312.470,128.375 311.480,128.800 310.600 C 129.225 309.720,129.579 308.823,129.586 308.608 C 129.604 308.092,131.146 304.092,131.849 302.738 C 132.152 302.154,132.400 301.485,132.400 301.250 C 132.400 300.954,124.888 300.789,107.820 300.712 C 91.277 300.637,83.102 300.462,82.818 300.179 C 82.527 299.887,82.428 283.174,82.499 245.779 L 82.600 191.800 83.642 191.679 C 84.769 191.548,85.373 191.979,89.284 195.700 C 90.613 196.965,91.782 198.000,91.882 198.000 C 91.981 198.000,92.752 198.675,93.595 199.500 C 94.437 200.325,95.984 201.720,97.031 202.600 C 98.079 203.480,99.364 204.560,99.887 205.000 C 100.410 205.440,101.910 206.816,103.221 208.058 C 104.531 209.300,105.873 210.419,106.202 210.545 C 106.531 210.672,106.800 211.051,106.800 211.387 C 106.800 211.724,107.030 212.000,107.311 212.000 C 107.592 212.000,108.114 212.315,108.471 212.700 C 108.827 213.085,109.557 213.760,110.091 214.200 C 112.178 215.917,116.624 219.877,118.153 221.380 C 120.486 223.673,121.585 223.551,124.518 220.674 C 125.793 219.423,126.912 218.400,127.005 218.400 C 127.097 218.400,127.767 217.815,128.493 217.100 C 129.220 216.385,130.981 214.811,132.407 213.603 C 133.833 212.394,135.144 211.179,135.320 210.903 C 135.496 210.626,135.788 210.400,135.970 210.400 C 136.151 210.400,137.376 209.365,138.691 208.100 C 141.476 205.422,143.283 203.802,146.598 201.016 C 147.916 199.907,149.587 198.415,150.311 197.700 C 151.035 196.985,151.697 196.400,151.783 196.400 C 151.869 196.400,153.047 195.320,154.400 194.000 C 157.959 190.529,158.999 190.630,163.636 194.900 C 164.532 195.725,165.355 196.400,165.464 196.400 C 165.636 196.400,170.682 200.381,172.400 201.872 C 172.730 202.158,174.170 203.305,175.600 204.420 C 177.030 205.535,178.260 206.617,178.333 206.824 C 178.407 207.031,178.720 207.200,179.030 207.200 C 179.340 207.200,179.818 207.560,180.093 208.000 C 180.368 208.440,180.736 208.800,180.911 208.800 C 181.381 208.800,186.400 212.888,186.400 213.272 C 186.400 213.452,186.610 213.600,186.866 213.600 C 187.123 213.600,187.618 213.873,187.966 214.207 C 188.315 214.541,189.698 215.671,191.039 216.718 C 192.381 217.765,193.771 218.887,194.129 219.211 C 194.487 219.535,195.252 220.160,195.829 220.600 C 196.405 221.040,197.336 221.805,197.897 222.300 C 199.222 223.469,200.455 223.439,201.927 222.200 C 202.581 221.650,203.231 221.200,203.371 221.200 C 203.512 221.200,204.257 220.570,205.027 219.800 C 205.797 219.030,206.592 218.400,206.793 218.400 C 206.995 218.400,207.304 218.174,207.480 217.898 C 207.656 217.621,208.819 216.638,210.064 215.712 C 211.310 214.786,212.796 213.617,213.368 213.114 C 213.940 212.611,214.811 211.893,215.304 211.517 C 215.797 211.141,216.766 210.376,217.458 209.817 C 218.150 209.258,218.895 208.800,219.115 208.800 C 219.335 208.800,219.618 208.530,219.745 208.200 C 219.871 207.870,220.411 207.600,220.945 207.600 C 221.478 207.600,222.018 207.870,222.145 208.200 C 222.271 208.530,222.644 208.800,222.973 208.800 C 223.303 208.800,223.765 209.160,224.000 209.600 C 224.235 210.040,224.608 210.400,224.829 210.400 C 225.357 210.400,230.400 214.448,230.400 214.872 C 230.400 215.052,230.610 215.200,230.866 215.200 C 231.123 215.200,231.618 215.469,231.966 215.798 C 233.039 216.810,235.103 218.400,235.344 218.400 C 235.470 218.400,236.203 219.030,236.973 219.800 C 237.743 220.570,238.477 221.200,238.603 221.200 C 238.729 221.200,239.356 221.587,239.995 222.060 L 241.158 222.919 246.079 218.995 C 248.786 216.836,251.293 214.784,251.651 214.435 C 252.009 214.086,252.803 213.440,253.416 213.000 C 254.624 212.133,256.689 210.506,257.619 209.690 C 257.938 209.409,259.010 208.466,260.000 207.595 C 260.990 206.724,261.926 206.009,262.079 206.006 C 262.233 206.003,262.863 205.553,263.479 205.006 C 265.436 203.271,265.716 203.039,268.183 201.107 C 269.512 200.066,270.885 198.941,271.234 198.607 C 271.582 198.273,272.077 198.000,272.334 198.000 C 272.590 198.000,272.800 197.861,272.800 197.691 C 272.800 197.379,279.817 191.600,280.196 191.600 C 280.308 191.600,280.725 191.285,281.122 190.900 C 282.098 189.954,284.922 187.619,287.624 185.524 C 289.954 183.717,290.792 183.022,291.919 181.957 C 292.294 181.604,293.327 180.794,294.215 180.157 C 295.103 179.521,296.093 178.769,296.415 178.488 C 296.737 178.206,297.630 177.429,298.400 176.762 C 300.422 175.011,299.943 167.965,297.438 162.600 C 297.130 161.940,296.671 160.950,296.419 160.400 C 294.789 156.843,291.743 152.858,288.669 150.261 C 285.867 147.894,282.763 145.767,281.577 145.403 C 281.040 145.237,280.406 144.948,280.168 144.759 C 276.728 142.023,262.801 141.182,256.665 143.341 C 250.622 145.466,246.824 147.892,242.344 152.486 C 239.685 155.213,240.102 155.133,237.261 153.467 C 228.322 148.228,217.100 149.333,208.523 156.297 L 206.847 157.658 205.778 155.929 C 202.949 151.353,202.321 150.485,200.720 148.941 C 194.918 143.343,187.435 141.144,178.398 142.379 C 174.309 142.937,173.836 142.776,173.440 140.686 C 173.156 139.186,171.537 135.097,170.923 134.329 C 170.690 134.038,170.208 133.225,169.851 132.522 C 163.914 120.829,145.094 113.810,131.800 118.332 C 129.038 119.272,125.657 120.734,125.030 121.260 C 124.793 121.459,123.754 122.167,122.721 122.835 C 117.608 126.136,112.964 132.227,110.395 139.000 C 109.172 142.225,109.376 142.111,104.928 142.052 C 97.389 141.952,92.734 143.408,86.598 147.786 C 82.385 150.793,82.783 155.966,82.898 99.730 L 83.000 50.236 84.000 49.958 C 85.307 49.594,314.693 49.594,316.000 49.958 L 317.000 50.236 317.200 105.418 C 317.417 165.225,317.267 161.583,319.426 159.570 C 319.880 159.147,320.465 158.800,320.726 158.800 C 320.987 158.800,321.200 158.658,321.200 158.486 C 321.200 158.313,323.225 156.567,325.700 154.607 C 330.389 150.894,331.280 150.152,332.105 149.272 C 332.377 148.981,332.915 148.446,333.300 148.083 C 333.685 147.720,334.000 147.211,334.000 146.954 C 334.000 146.696,334.270 146.382,334.600 146.255 C 335.424 145.939,335.523 33.397,334.700 33.065 C 334.300 32.904,334.300 32.857,334.700 32.832 C 334.975 32.814,335.200 32.621,335.200 32.401 C 335.200 32.137,289.601 32.002,200.000 32.002 C 118.643 32.002,64.800 32.148,64.800 32.368 M176.006 268.413 C 175.240 268.846,174.278 269.200,173.869 269.200 C 173.461 269.200,172.669 269.560,172.109 270.000 C 171.550 270.440,170.874 270.800,170.608 270.800 C 170.342 270.800,169.798 271.160,169.400 271.600 C 169.002 272.040,168.524 272.400,168.337 272.400 C 167.781 272.400,164.865 275.655,163.499 277.800 C 162.799 278.900,162.097 279.894,161.938 280.008 C 161.780 280.123,161.450 280.663,161.204 281.208 C 160.959 281.754,160.322 282.920,159.789 283.800 C 159.255 284.680,158.635 285.850,158.410 286.400 C 158.185 286.950,157.820 287.670,157.599 288.000 C 157.379 288.330,157.019 289.050,156.799 289.600 C 156.580 290.150,156.219 290.870,155.998 291.200 C 155.776 291.530,155.497 292.070,155.376 292.400 C 155.121 293.101,153.815 296.003,152.864 297.981 C 152.499 298.741,151.818 299.821,151.351 300.381 C 150.884 300.942,150.007 302.660,149.402 304.200 C 148.798 305.740,148.063 307.540,147.769 308.200 C 147.255 309.356,146.808 310.538,145.424 314.400 C 145.069 315.390,144.608 316.560,144.400 317.000 C 144.036 317.769,143.223 319.979,142.309 322.684 C 141.699 324.491,142.414 325.295,144.355 324.985 C 145.150 324.858,147.330 324.503,149.200 324.196 C 151.070 323.888,153.950 323.450,155.600 323.221 C 160.692 322.515,168.755 321.057,173.600 319.966 C 190.655 316.125,196.647 313.792,201.209 309.217 C 204.495 305.921,206.400 302.644,206.400 300.286 C 206.400 299.337,206.606 298.354,206.857 298.103 C 207.835 297.125,207.812 286.459,206.826 283.995 C 204.346 277.794,198.324 270.400,195.754 270.400 C 195.594 270.400,195.179 270.157,194.831 269.861 C 192.341 267.734,179.023 266.710,176.006 268.413 " stroke="none" fill="#e5eff2" fill-rule="evenodd"></path><path id="path4" d="M84.000 49.958 L 83.000 50.236 82.898 99.730 C 82.783 155.984,82.381 150.796,86.619 147.771 C 88.083 146.727,90.297 145.367,91.540 144.749 C 92.783 144.131,93.585 143.619,93.321 143.613 C 92.540 143.592,88.083 146.151,85.395 148.164 C 83.521 149.566,83.590 151.528,83.698 99.312 L 83.800 50.600 200.000 50.600 L 316.200 50.600 316.301 105.914 L 316.403 161.229 315.526 162.414 C 315.044 163.066,314.503 163.600,314.325 163.600 C 314.146 163.600,313.677 163.915,313.283 164.300 C 312.888 164.685,312.047 165.360,311.413 165.800 C 310.779 166.240,309.866 167.005,309.385 167.500 C 308.903 167.995,308.388 168.400,308.241 168.400 C 308.094 168.400,307.343 169.030,306.573 169.800 C 305.803 170.570,305.070 171.200,304.944 171.200 C 304.703 171.200,302.639 172.790,301.566 173.802 C 301.218 174.131,300.633 174.400,300.266 174.400 C 299.897 174.400,299.600 174.714,299.600 175.104 C 299.600 175.492,299.039 176.257,298.354 176.804 C 297.668 177.352,296.813 178.077,296.454 178.415 C 296.094 178.753,295.080 179.550,294.200 180.184 C 293.320 180.819,292.294 181.622,291.919 181.969 C 290.718 183.082,289.896 183.763,287.624 185.524 C 284.922 187.619,282.098 189.954,281.122 190.900 C 280.725 191.285,280.308 191.600,280.196 191.600 C 279.817 191.600,272.800 197.379,272.800 197.691 C 272.800 197.861,272.590 198.000,272.334 198.000 C 272.077 198.000,271.582 198.273,271.234 198.607 C 270.885 198.941,269.512 200.066,268.183 201.107 C 265.716 203.039,265.436 203.271,263.479 205.006 C 262.863 205.553,262.233 206.003,262.079 206.006 C 261.926 206.009,260.990 206.724,260.000 207.595 C 259.010 208.466,257.938 209.409,257.619 209.690 C 256.689 210.506,254.624 212.133,253.416 213.000 C 252.803 213.440,252.009 214.086,251.651 214.435 C 251.293 214.784,248.786 216.836,246.079 218.995 L 241.158 222.919 239.995 222.060 C 239.356 221.587,238.729 221.200,238.603 221.200 C 238.477 221.200,237.743 220.570,236.973 219.800 C 236.203 219.030,235.470 218.400,235.344 218.400 C 235.103 218.400,233.039 216.810,231.966 215.798 C 231.618 215.469,231.123 215.200,230.866 215.200 C 230.610 215.200,230.400 215.052,230.400 214.872 C 230.400 214.448,225.357 210.400,224.829 210.400 C 224.608 210.400,224.235 210.040,224.000 209.600 C 223.765 209.160,223.303 208.800,222.973 208.800 C 222.644 208.800,222.271 208.530,222.145 208.200 C 222.018 207.870,221.478 207.600,220.945 207.600 C 220.411 207.600,219.871 207.870,219.745 208.200 C 219.618 208.530,219.335 208.800,219.115 208.800 C 218.895 208.800,218.150 209.258,217.458 209.817 C 216.766 210.376,215.797 211.141,215.304 211.517 C 214.811 211.893,213.940 212.611,213.368 213.114 C 212.796 213.617,211.310 214.786,210.064 215.712 C 208.819 216.638,207.656 217.621,207.480 217.898 C 207.304 218.174,206.995 218.400,206.793 218.400 C 206.592 218.400,205.797 219.030,205.027 219.800 C 204.257 220.570,203.512 221.200,203.371 221.200 C 203.231 221.200,202.581 221.650,201.927 222.200 C 200.455 223.439,199.222 223.469,197.897 222.300 C 197.336 221.805,196.405 221.040,195.829 220.600 C 195.252 220.160,194.487 219.535,194.129 219.211 C 193.771 218.887,192.381 217.765,191.039 216.718 C 189.698 215.671,188.286 214.511,187.902 214.139 C 187.518 213.767,187.105 213.562,186.985 213.682 C 186.669 213.997,199.285 223.997,200.000 223.998 C 200.330 223.999,204.470 220.905,209.200 217.124 C 221.826 207.029,220.921 207.475,223.684 209.980 C 224.061 210.321,224.781 210.913,225.284 211.296 C 232.240 216.583,239.629 222.662,239.816 223.251 C 239.947 223.663,240.178 224.000,240.330 224.000 C 240.782 224.000,264.754 205.129,267.600 202.533 C 267.930 202.232,269.370 201.071,270.800 199.954 C 272.230 198.836,273.490 197.790,273.600 197.628 C 273.710 197.466,275.420 196.104,277.400 194.602 C 279.380 193.099,281.180 191.656,281.400 191.394 C 281.620 191.132,287.290 186.538,294.000 181.185 C 300.710 175.832,306.290 171.337,306.400 171.198 C 306.510 171.058,307.860 169.979,309.400 168.800 C 310.940 167.621,312.290 166.542,312.400 166.401 C 312.510 166.260,317.123 162.527,322.650 158.104 C 332.051 150.583,333.562 149.185,334.753 146.909 C 335.145 146.159,335.122 146.055,334.609 146.252 C 334.274 146.380,334.000 146.696,334.000 146.954 C 334.000 147.211,333.685 147.720,333.300 148.083 C 332.915 148.446,332.377 148.981,332.105 149.272 C 331.280 150.152,330.389 150.894,325.700 154.607 C 323.225 156.567,321.200 158.313,321.200 158.486 C 321.200 158.658,320.987 158.800,320.726 158.800 C 320.465 158.800,319.880 159.147,319.426 159.570 C 317.267 161.583,317.417 165.225,317.200 105.418 L 317.000 50.236 316.000 49.958 C 314.693 49.594,85.307 49.594,84.000 49.958 M137.800 116.777 C 136.615 116.926,138.163 117.028,141.600 117.029 C 145.578 117.030,146.709 116.944,145.200 116.755 C 142.594 116.428,140.527 116.434,137.800 116.777 M131.000 118.167 C 120.620 122.007,113.818 128.737,109.942 139.000 C 109.444 140.320,108.858 141.670,108.640 142.000 C 108.288 142.533,108.313 142.533,108.866 142.000 C 109.209 141.670,109.898 140.320,110.397 139.000 C 112.956 132.236,117.606 126.137,122.721 122.835 C 123.754 122.167,124.793 121.459,125.030 121.260 C 125.957 120.482,131.907 118.135,134.600 117.486 C 135.237 117.332,135.196 117.291,134.400 117.286 C 133.850 117.283,132.320 117.679,131.000 118.167 M151.200 118.210 C 157.532 120.366,162.807 123.792,166.948 128.437 C 168.102 129.732,168.440 129.997,167.789 129.098 C 164.060 123.944,154.960 118.134,149.400 117.356 C 148.740 117.264,149.550 117.648,151.200 118.210 M169.887 132.555 C 170.499 133.602,171.222 134.851,171.494 135.329 C 171.766 135.808,171.991 135.958,171.994 135.663 C 171.997 135.368,171.640 134.669,171.200 134.109 C 170.760 133.550,170.400 132.874,170.400 132.608 C 170.400 132.342,170.034 131.793,169.587 131.388 C 168.939 130.802,169.001 131.040,169.887 132.555 M172.205 137.000 C 172.372 137.440,172.762 138.430,173.072 139.200 L 173.637 140.600 173.423 139.275 C 173.306 138.546,172.915 137.556,172.556 137.075 C 171.971 136.293,171.934 136.285,172.205 137.000 M173.632 141.251 C 173.568 142.562,174.600 142.902,177.285 142.457 L 179.800 142.039 177.400 142.218 C 174.914 142.404,174.280 142.220,173.892 141.200 C 173.700 140.697,173.658 140.705,173.632 141.251 M102.100 141.894 C 103.145 141.976,104.855 141.976,105.900 141.894 C 106.945 141.812,106.090 141.744,104.000 141.744 C 101.910 141.744,101.055 141.812,102.100 141.894 M181.712 141.895 C 182.764 141.977,184.384 141.976,185.312 141.892 C 186.240 141.808,185.380 141.741,183.400 141.742 C 181.420 141.743,180.660 141.812,181.712 141.895 M264.713 141.895 C 265.876 141.976,267.676 141.976,268.713 141.893 C 269.751 141.811,268.800 141.745,266.600 141.746 C 264.400 141.747,263.551 141.814,264.713 141.895 M95.400 142.778 C 94.520 143.195,94.037 143.550,94.326 143.568 C 94.616 143.585,95.246 143.383,95.726 143.118 C 96.207 142.853,97.410 142.517,98.400 142.372 L 100.200 142.107 98.600 142.064 C 97.720 142.040,96.280 142.362,95.400 142.778 M188.400 142.275 C 191.836 142.878,197.756 146.081,200.720 148.941 C 202.321 150.485,202.949 151.353,205.778 155.929 L 206.847 157.658 208.523 156.297 C 212.120 153.376,216.353 151.403,221.200 150.386 L 222.600 150.092 221.386 150.046 C 218.764 149.947,213.060 152.426,209.396 155.258 L 206.991 157.117 205.796 155.127 C 201.653 148.232,194.214 142.491,189.037 142.193 C 188.137 142.142,187.850 142.178,188.400 142.275 M259.905 142.283 C 260.402 142.379,261.122 142.375,261.505 142.275 C 261.887 142.175,261.480 142.096,260.600 142.101 C 259.720 142.105,259.407 142.187,259.905 142.283 M273.028 142.365 C 274.144 142.546,275.437 142.899,275.902 143.148 C 276.367 143.396,276.984 143.599,277.274 143.598 C 278.769 143.591,275.081 142.310,273.200 142.183 L 271.000 142.034 273.028 142.365 M256.200 143.079 C 250.527 145.212,246.368 147.832,242.605 151.644 C 240.392 153.886,239.684 154.390,239.205 154.063 C 236.665 152.332,230.456 149.976,228.614 150.046 L 227.400 150.092 228.800 150.386 C 231.970 151.051,235.040 152.166,237.221 153.444 C 240.108 155.136,239.682 155.216,242.344 152.486 C 246.775 147.942,251.162 145.127,256.272 143.549 C 257.663 143.119,258.800 142.685,258.800 142.584 C 258.800 142.273,257.875 142.450,256.200 143.079 M279.800 144.591 C 280.900 145.132,281.937 145.581,282.104 145.587 C 282.536 145.605,286.243 148.225,288.574 150.160 C 290.600 151.842,295.200 157.328,295.200 158.063 C 295.200 158.289,295.560 158.931,296.000 159.491 C 296.440 160.050,296.800 160.326,296.800 160.103 C 296.800 159.880,296.530 159.474,296.200 159.200 C 295.870 158.926,295.600 158.466,295.600 158.177 C 295.600 156.945,288.965 149.576,286.158 147.690 C 283.194 145.699,279.132 143.597,278.260 143.604 C 278.007 143.606,278.700 144.050,279.800 144.591 M296.800 161.107 C 296.800 161.380,297.160 162.275,297.600 163.096 C 298.040 163.916,298.400 164.365,298.400 164.093 C 298.400 163.820,298.040 162.925,297.600 162.104 C 297.160 161.284,296.800 160.835,296.800 161.107 M298.426 165.227 C 298.412 165.572,298.658 166.742,298.974 167.827 C 299.290 168.912,299.623 170.340,299.714 171.000 C 299.849 171.972,299.886 171.896,299.914 170.600 C 299.945 169.114,298.485 163.840,298.426 165.227 M332.873 176.190 C 332.363 176.471,331.371 177.218,330.669 177.850 C 325.893 182.151,310.987 195.863,309.427 197.390 C 308.983 197.825,306.455 200.152,303.810 202.563 C 301.164 204.973,297.634 208.218,295.965 209.773 C 291.735 213.714,283.592 221.278,282.802 222.000 C 264.322 238.894,260.898 242.305,263.369 241.357 C 263.994 241.117,265.261 241.693,266.388 242.730 C 267.094 243.380,268.046 244.139,270.236 245.800 C 270.816 246.240,271.581 246.915,271.934 247.300 C 272.288 247.685,272.732 248.000,272.920 248.000 C 273.109 248.000,273.997 248.742,274.895 249.648 C 275.792 250.555,278.793 253.090,281.563 255.281 C 284.334 257.472,286.960 259.565,287.400 259.932 C 289.444 261.635,292.563 264.001,292.770 264.006 C 292.896 264.009,293.753 264.684,294.673 265.506 C 295.593 266.328,296.843 267.360,297.451 267.800 C 300.383 269.921,314.757 281.310,315.908 282.423 L 317.216 283.688 317.108 291.744 L 317.000 299.800 303.400 300.043 C 275.632 300.540,208.129 300.439,207.695 299.900 C 207.127 299.195,207.982 291.503,208.676 291.080 C 208.964 290.904,209.200 290.579,209.200 290.357 C 209.200 290.134,209.020 290.064,208.800 290.200 C 208.580 290.336,208.396 290.302,208.392 290.124 C 208.182 281.554,201.117 271.505,193.254 268.594 C 192.454 268.298,190.817 267.685,189.616 267.231 C 188.174 266.688,187.298 266.542,187.036 266.804 C 186.818 267.022,184.651 267.236,182.220 267.280 C 177.876 267.359,177.907 267.364,184.000 267.611 C 190.195 267.862,193.229 268.492,194.831 269.861 C 195.179 270.157,195.594 270.400,195.754 270.400 C 198.324 270.400,204.346 277.794,206.826 283.995 C 207.812 286.459,207.835 297.125,206.857 298.103 C 206.606 298.354,206.400 299.337,206.400 300.286 C 206.400 302.644,204.495 305.921,201.209 309.217 C 196.647 313.792,190.655 316.125,173.600 319.966 C 168.755 321.057,160.692 322.515,155.600 323.221 C 153.950 323.450,151.070 323.888,149.200 324.196 C 147.330 324.503,145.150 324.858,144.355 324.985 C 142.414 325.295,141.699 324.491,142.309 322.684 C 143.223 319.979,144.036 317.769,144.400 317.000 C 144.608 316.560,145.053 315.435,145.389 314.500 C 146.856 310.416,147.267 309.330,147.769 308.200 C 148.063 307.540,148.798 305.740,149.402 304.200 C 150.007 302.660,150.884 300.942,151.351 300.381 C 151.818 299.821,152.544 298.651,152.964 297.781 C 153.385 296.912,154.060 295.545,154.464 294.746 C 154.869 293.946,155.200 293.054,155.200 292.765 C 155.200 292.475,154.730 293.220,154.156 294.419 C 151.812 299.313,151.366 300.043,150.600 300.231 C 149.241 300.564,83.831 300.220,83.300 299.876 C 82.904 299.620,82.800 288.448,82.800 246.225 C 82.800 188.706,82.704 191.242,84.827 192.683 C 86.216 193.625,92.993 199.524,95.559 202.025 C 95.912 202.368,98.360 204.521,101.000 206.808 C 103.640 209.095,106.173 211.334,106.628 211.784 C 107.818 212.956,113.087 217.635,115.200 219.396 C 116.190 220.220,117.090 221.015,117.200 221.161 C 117.310 221.307,118.221 222.090,119.225 222.900 L 121.050 224.374 122.425 223.109 C 124.017 221.644,130.334 215.990,133.917 212.823 C 135.272 211.626,136.280 210.547,136.157 210.424 C 136.035 210.302,135.724 210.471,135.467 210.801 C 135.210 211.130,133.833 212.390,132.407 213.600 C 130.981 214.810,129.220 216.385,128.493 217.100 C 127.767 217.815,127.097 218.400,127.005 218.400 C 126.912 218.400,125.793 219.423,124.518 220.674 C 121.585 223.551,120.486 223.673,118.153 221.380 C 116.624 219.877,112.178 215.917,110.091 214.200 C 109.557 213.760,108.827 213.085,108.471 212.700 C 108.114 212.315,107.592 212.000,107.311 212.000 C 107.030 212.000,106.800 211.724,106.800 211.387 C 106.800 211.051,106.531 210.672,106.202 210.545 C 105.873 210.419,104.533 209.300,103.224 208.058 C 101.103 206.045,99.130 204.312,96.098 201.800 C 95.567 201.360,94.442 200.325,93.598 199.500 C 92.754 198.675,91.981 198.000,91.882 198.000 C 91.782 198.000,90.613 196.965,89.284 195.700 C 85.373 191.979,84.769 191.548,83.642 191.679 L 82.600 191.800 82.499 245.779 C 82.428 283.174,82.527 299.887,82.818 300.179 C 83.102 300.462,91.277 300.637,107.820 300.712 C 124.888 300.789,132.400 300.954,132.400 301.250 C 132.400 301.485,132.152 302.154,131.849 302.738 C 131.146 304.092,129.604 308.092,129.586 308.608 C 129.579 308.823,129.225 309.720,128.800 310.600 C 128.375 311.480,128.015 312.470,128.000 312.800 C 127.985 313.130,127.625 314.120,127.200 315.000 C 126.775 315.880,126.415 316.870,126.400 317.200 C 126.385 317.530,126.025 318.520,125.600 319.400 C 125.175 320.280,124.820 321.360,124.811 321.800 C 124.802 322.240,124.520 323.128,124.183 323.774 C 123.846 324.419,123.409 325.589,123.210 326.374 C 123.012 327.158,122.375 329.060,121.795 330.600 C 121.214 332.140,120.493 334.210,120.191 335.200 C 119.008 339.080,118.337 341.041,117.865 342.000 C 116.602 344.566,119.125 344.918,129.200 343.581 C 131.624 343.260,133.701 343.013,142.400 342.017 C 147.100 341.478,152.113 340.839,155.200 340.384 C 156.630 340.173,159.150 339.811,160.800 339.579 C 162.450 339.347,165.349 338.807,167.242 338.379 C 169.135 337.950,171.243 337.600,171.928 337.600 C 172.612 337.600,173.943 337.340,174.886 337.022 C 175.829 336.703,177.715 336.265,179.078 336.047 C 180.441 335.830,181.881 335.478,182.278 335.265 C 182.675 335.053,183.900 334.748,185.000 334.588 C 186.100 334.427,187.450 334.071,188.000 333.796 C 188.550 333.521,189.630 333.175,190.400 333.027 C 191.170 332.878,192.430 332.520,193.200 332.229 C 193.970 331.939,195.680 331.294,197.000 330.797 C 207.263 326.933,214.962 320.972,218.951 313.800 C 219.318 313.140,220.142 311.700,220.783 310.600 C 221.423 309.500,221.959 308.327,221.973 307.994 C 221.988 307.661,222.334 306.761,222.743 305.994 C 223.152 305.227,223.613 303.745,223.767 302.700 L 224.049 300.800 269.575 300.800 C 294.614 300.800,315.662 300.688,316.350 300.550 L 317.600 300.300 317.600 291.350 C 317.600 283.757,317.511 282.400,317.014 282.400 C 316.692 282.400,316.235 282.040,316.000 281.600 C 315.765 281.160,315.308 280.800,314.986 280.800 C 314.664 280.800,314.400 280.638,314.400 280.440 C 314.400 280.241,313.815 279.705,313.100 279.249 C 310.849 277.811,310.348 277.436,308.758 276.000 C 306.635 274.083,304.941 272.800,304.533 272.800 C 304.346 272.800,303.968 272.440,303.693 272.000 C 303.418 271.560,302.940 271.200,302.630 271.200 C 302.320 271.200,302.007 271.035,301.933 270.834 C 301.860 270.632,300.630 269.556,299.200 268.441 C 297.770 267.327,296.330 266.171,296.000 265.872 C 295.670 265.574,295.085 265.216,294.700 265.078 C 294.315 264.939,294.000 264.657,294.000 264.451 C 294.000 264.098,290.402 261.456,288.761 260.605 C 288.343 260.388,288.000 259.983,288.000 259.705 C 288.000 259.427,287.835 259.200,287.634 259.200 C 287.433 259.200,286.848 258.846,286.334 258.414 C 284.145 256.573,282.869 255.600,282.642 255.600 C 282.509 255.600,282.058 255.285,281.640 254.900 C 281.221 254.515,279.961 253.414,278.840 252.454 C 277.718 251.493,276.800 250.406,276.800 250.037 C 276.800 249.422,279.309 246.400,279.819 246.400 C 279.940 246.400,281.095 245.365,282.386 244.100 C 285.631 240.919,293.426 233.632,295.593 231.754 C 296.579 230.899,297.950 229.615,298.640 228.900 C 299.330 228.185,299.986 227.600,300.098 227.600 C 300.210 227.600,301.678 226.250,303.361 224.600 C 305.043 222.950,306.501 221.600,306.601 221.600 C 306.701 221.600,308.766 219.674,311.191 217.319 L 315.600 213.038 315.600 203.906 C 315.600 193.042,315.743 192.568,320.224 188.600 C 321.715 187.280,324.051 185.120,325.415 183.800 C 331.574 177.843,332.559 177.053,333.864 177.026 C 334.817 177.006,335.120 176.826,335.081 176.300 C 335.022 175.495,334.206 175.454,332.873 176.190 M154.400 194.000 C 153.047 195.320,151.869 196.400,151.783 196.400 C 151.697 196.400,151.031 196.985,150.302 197.700 C 149.574 198.415,147.903 199.894,146.589 200.987 C 145.275 202.079,143.827 203.339,143.372 203.787 C 142.916 204.234,141.251 205.760,139.672 207.178 C 138.092 208.596,136.800 209.896,136.800 210.067 C 136.800 210.326,138.532 208.835,141.987 205.600 C 142.340 205.270,143.785 204.010,145.200 202.800 C 146.615 201.590,148.066 200.330,148.426 200.000 C 148.786 199.670,150.573 198.050,152.398 196.400 C 154.223 194.750,155.948 193.173,156.233 192.896 C 156.517 192.619,157.166 192.226,157.675 192.022 C 158.587 191.656,158.587 191.650,157.730 191.625 C 157.186 191.609,155.940 192.498,154.400 194.000 M159.864 192.500 C 160.535 192.995,161.587 193.760,162.203 194.200 C 162.818 194.640,163.654 195.315,164.061 195.700 C 164.467 196.085,164.800 196.251,164.800 196.070 C 164.800 195.888,164.149 195.213,163.354 194.570 C 162.559 193.926,161.408 192.995,160.797 192.500 C 160.185 192.005,159.451 191.600,159.165 191.600 C 158.879 191.600,159.193 192.005,159.864 192.500 M165.200 196.587 C 165.200 196.690,166.229 197.545,167.487 198.487 C 168.745 199.429,170.140 200.523,170.587 200.919 C 172.034 202.197,172.558 202.619,175.200 204.625 C 176.630 205.711,177.980 206.798,178.200 207.041 C 179.108 208.041,186.400 213.589,186.400 213.279 C 186.400 212.891,181.387 208.800,180.911 208.800 C 180.736 208.800,180.368 208.440,180.093 208.000 C 179.818 207.560,179.340 207.200,179.030 207.200 C 178.720 207.200,178.407 207.031,178.333 206.824 C 178.260 206.617,177.030 205.535,175.600 204.420 C 174.170 203.305,172.730 202.158,172.400 201.872 C 168.630 198.600,165.200 196.082,165.200 196.587 M176.296 267.837 C 176.166 267.967,175.371 268.335,174.530 268.655 C 173.016 269.231,173.014 269.234,174.325 269.023 C 175.587 268.820,177.842 267.600,176.956 267.600 C 176.723 267.600,176.427 267.707,176.296 267.837 M171.256 270.013 C 170.736 270.446,170.491 270.800,170.711 270.800 C 170.931 270.800,171.536 270.446,172.056 270.013 C 172.575 269.581,172.820 269.227,172.600 269.227 C 172.380 269.227,171.775 269.581,171.256 270.013 M165.865 274.214 C 164.556 275.562,161.200 280.186,161.200 280.641 C 161.200 281.061,162.233 279.775,163.505 277.770 C 164.214 276.653,165.455 275.078,166.264 274.270 C 167.072 273.461,167.622 272.800,167.486 272.800 C 167.350 272.800,166.621 273.436,165.865 274.214 M160.300 282.214 C 159.301 283.550,159.431 283.923,160.446 282.633 C 160.911 282.042,161.226 281.495,161.146 281.418 C 161.066 281.341,160.685 281.700,160.300 282.214 M156.755 288.700 C 154.984 292.228,154.963 292.288,155.696 291.684 C 156.040 291.400,156.443 290.680,156.592 290.084 C 156.741 289.488,157.097 288.730,157.384 288.400 C 157.921 287.782,158.588 286.000,158.282 286.000 C 158.187 286.000,157.500 287.215,156.755 288.700 " stroke="none" fill="#b5c8da" fill-rule="evenodd"></path></g></svg>