<svg height="512" width="485" xmlns="http://www.w3.org/2000/svg"><path d="m70.9856796.099867 147.1711121 21.1684494c4.9958038.7186089 9.4206696 3.6028881 12.0942841 7.8835335l186.6232452 298.7956543 57.4749451 24.1019287c7.645813 3.2071838 11.9003601 11.4268799 10.1008911 19.5205688l-28.2246018 127.0107173c-1.741394 7.8406982-8.6961365 13.419281-16.7278442 13.419281h-99.7940979c-7.125061 0-13.5059204-4.4081116-16.026947-11.0715027l-64.8904114-171.496521-33.5339355 10.1796265-70.4281006 162.0817871c-2.7193909 6.257782-8.8930359 10.3066101-15.7168732 10.3066101h-96.77005c-7.6413727 0-14.3593845-5.0597839-16.4699287-12.4033813l-25.2005348-87.697876c-1.6572304-5.7675781-.1771913-11.9810791 3.9016533-16.3813171l182.9347229-197.3772888-20.0501709-34.7536011-57.9149628-11.582901c-5.8025284-1.1605988-10.5960388-5.2325439-12.6790237-10.7717438l-44.3529436-117.9385052c-3.7618599-11.4255447 3.7893296-24.361076 18.4795723-22.9935187zm280.5562821 477.6273974h74.2096558l22.1351318-99.6100159-49.2886963-20.6693725c-3.268219-1.3702698-6.030426-3.7200317-7.9076538-6.7254028l-185.2913666-296.663929-110.6150894-15.9103012 30.805191 81.9140472 56.1917801 11.2383575c4.8348541.9671631 9.0185394 3.969574 11.4824829 8.2403717l30.2406464 52.4171143c3.7544861 6.5073547 2.8321075 14.7019501-2.2749481 20.2121124l-184.9527245 199.5542717 18.9663582 66.0027466h72.6262665l69.107048-159.0409546c2.0032501-4.6099243 5.9295197-8.1074829 10.7392731-9.5673523l56.4487152-17.1363525c8.6380615-2.6244202 17.8136292 1.8988953 21.0050354 10.3322144z"/></svg>
