<?xml version="1.0" encoding="utf-8"?>
<!-- Generator: Adobe Illustrator 23.0.1, SVG Export Plug-In . SVG Version: 6.00 Build 0)  -->
<!DOCTYPE svg PUBLIC "-//W3C//DTD SVG 1.1//EN" "http://www.w3.org/Graphics/SVG/1.1/DTD/svg11.dtd" [
	<!ENTITY ns_extend "http://ns.adobe.com/Extensibility/1.0/">
	<!ENTITY ns_ai "http://ns.adobe.com/AdobeIllustrator/10.0/">
	<!ENTITY ns_graphs "http://ns.adobe.com/Graphs/1.0/">
	<!ENTITY ns_vars "http://ns.adobe.com/Variables/1.0/">
	<!ENTITY ns_imrep "http://ns.adobe.com/ImageReplacement/1.0/">
	<!ENTITY ns_sfw "http://ns.adobe.com/SaveForWeb/1.0/">
	<!ENTITY ns_custom "http://ns.adobe.com/GenericCustomNamespace/1.0/">
	<!ENTITY ns_adobe_xpath "http://ns.adobe.com/XPath/1.0/">
]>
<svg version="1.1" id="Layer_1" xmlns:x="&ns_extend;" xmlns:i="&ns_ai;" xmlns:graph="&ns_graphs;"
	 xmlns="http://www.w3.org/2000/svg" xmlns:xlink="http://www.w3.org/1999/xlink" x="0px" y="0px" viewBox="0 0 256.4 250"
	 enable-background="new 0 0 256.4 250" xml:space="preserve">
<metadata>
	<sfw  xmlns="&ns_sfw;">
		<slices></slices>
		<sliceSourceBounds  bottomLeftOrigin="true" height="250" width="256.4" x="-8.2" y="-8"></sliceSourceBounds>
	</sfw>
</metadata>
<g id="Layer_2_1_">
	<path fill="#001E36" d="M45.4,0H211c25.1,0,45.4,20.3,45.4,45.4v159.2c0,25.1-20.3,45.4-45.4,45.4H45.4C20.3,250,0,229.7,0,204.6
		V45.4C0,20.3,20.3,0,45.4,0z"/>
	<g id="LrC">
		<path fill="#31A8FF" d="M90,176.7H29c-1.1,0-1.5-0.6-1.5-1.9V65.6c0-1.1,0.4-1.5,1.4-1.5h18.9c0.7,0,1.1,0.4,1.1,1.2V155h44.4
			c1,0,1.3,0.5,1.1,1.5l-2.8,18.6c-0.1,0.6-0.3,1.1-0.6,1.3S90.3,176.7,90,176.7z"/>
		<path fill="#31A8FF" d="M105.2,91.2h16.9c1,0,1.6,0.5,2,1.7c0.3,0.7,0.6,1.6,0.7,2.5c0.2,1.1,0.3,2.2,0.4,3.3
			c0.1,1.2,0.1,2.5,0.1,3.8c2.8-3.6,6.3-6.8,10.3-9.2c4.3-2.6,9.3-4,14.3-3.8c1,0,1.4,0.5,1.4,1.5v20.8c0,0.9-0.5,1.2-1.5,1.2
			c-3.4-0.2-6.8,0-10.1,0.7c-2.8,0.6-5.4,1.6-8,2.9c-1.9,1-3.7,2.4-5.2,4v54.5c0,1.1-0.4,1.5-1.3,1.5h-18.6c-1.1,0-1.5-0.5-1.5-1.7
			v-59.2c0-2.6,0-5.2-0.1-8c0-2.8-0.1-5.6-0.2-8.3c-0.1-2.4-0.3-4.7-0.6-7.1c0-0.3,0-0.6,0.2-1C104.7,91.2,104.9,91.1,105.2,91.2z"
			/>
		<path fill="#31A8FF" d="M227.1,75.4c-2.2-1-4.7-1.5-7.2-1.8c-3.6-0.4-7.3-0.6-10.9-0.6c-10.5,0-19.7,2.2-27.2,6.6
			s-13.7,10.9-17.7,18.7c-4.2,7.9-6.2,17.3-6.2,27.8c-0.1,6.3,0.7,12.6,2.4,18.8c1.5,5.2,3.7,10.1,6.8,14.6
			c2.9,4.2,6.4,7.7,10.5,10.6s8.7,5.1,13.6,6.4c5,1.4,10.4,2.1,15.6,2.1c3.7,0,7.4-0.2,11-0.7c3-0.3,5.9-1.1,8.7-2.1
			c1.1-0.5,1.7-1.6,1.6-2.9v-15.9c0.1-0.5-0.1-1.2-0.5-1.6c-0.3-0.2-0.9-0.5-1.7,0.1c-2.4,0.9-4.9,1.5-7.5,1.8
			c-3.1,0.3-6.2,0.4-9.3,0.4c-2.8,0-5.7-0.4-8.3-1.2c-2.9-0.7-5.6-1.9-8.1-3.4c-2.7-1.6-4.9-3.7-6.7-6.2c-2-2.8-3.6-5.9-4.7-9.2
			c-1.2-4.1-1.8-8.2-1.7-12.5c-0.1-5.9,1.1-11.8,3.5-17.1c2.2-4.6,5.7-8.5,10-11.2c4.7-2.8,10.1-4.2,15.6-4.1c3.3,0,6.7,0.2,10,0.9
			c2.7,0.4,5.2,1.3,7.7,2.6c0.4,0.2,1,0.2,1.4,0c0.4-0.4,0.7-1,0.6-1.6V78C228.4,76.9,228,76,227.1,75.4z"/>
	</g>
</g>
</svg>
