<svg xmlns="http://www.w3.org/2000/svg" xmlns:xlink="http://www.w3.org/1999/xlink" id="a" data-name="Слой 1" width="486" height="500" viewBox="0 0 486 500">
  <defs>
    <style>
      .j {
        fill: #fff;
      }

      .k {
        fill: url(#g);
        fill-opacity: .8;
      }

      .l {
        fill: url(#c);
      }

      .m {
        fill: url(#h);
      }

      .n {
        fill: url(#f);
      }

      .o {
        fill: url(#d);
        fill-opacity: .6;
      }

      .p {
        fill: url(#b);
      }

      .q {
        fill: url(#e);
        fill-opacity: .1;
      }

      .r {
        fill: url(#i);
        fill-opacity: .65;
      }
    </style>
    <radialGradient id="b" data-name="Безымянный градиент" cx="-689.34" cy="753.93" fx="-689.34" fy="753.93" r="13.89" gradientTransform="translate(33260.63 15691.18) scale(47.56 -20.15)" gradientUnits="userSpaceOnUse">
      <stop offset=".18" stop-color="#1657f4"/>
      <stop offset=".57" stop-color="#0036c4"/>
    </radialGradient>
    <linearGradient id="c" data-name="Безымянный градиент 2" x1="69.43" y1="238.11" x2="388.45" y2="238.11" gradientTransform="translate(0 502) scale(1 -1)" gradientUnits="userSpaceOnUse">
      <stop offset="0" stop-color="#66c0ff"/>
      <stop offset=".26" stop-color="#0094f0"/>
    </linearGradient>
    <radialGradient id="d" data-name="Безымянный градиент 3" cx="-730.97" cy="806.4" fx="-730.97" fy="806.4" r="13.89" gradientTransform="translate(-56559.12 -24498.36) rotate(133.54) scale(29.36 -72.31) skewX(.03)" gradientUnits="userSpaceOnUse">
      <stop offset=".14" stop-color="#d471ff"/>
      <stop offset=".83" stop-color="#509df5" stop-opacity="0"/>
    </radialGradient>
    <radialGradient id="e" data-name="Безымянный градиент 4" cx="-682.21" cy="801.86" fx="-682.21" fy="801.86" r="13.89" gradientTransform="translate(-81063.08 13022.32) rotate(90) scale(18.62 -101.62)" gradientUnits="userSpaceOnUse">
      <stop offset=".28" stop-color="#4f006f" stop-opacity="0"/>
      <stop offset="1" stop-color="#4f006f"/>
    </radialGradient>
    <linearGradient id="f" data-name="Безымянный градиент 5" x1="69.48" y1="380.04" x2="485.94" y2="373.16" gradientTransform="translate(0 502) scale(1 -1)" gradientUnits="userSpaceOnUse">
      <stop offset="0" stop-color="#9deaff"/>
      <stop offset=".2" stop-color="#3bd5ff"/>
    </linearGradient>
    <radialGradient id="g" data-name="Безымянный градиент 6" cx="-749.58" cy="798.74" fx="-749.58" fy="798.74" r="13.89" gradientTransform="translate(-33867.69 -49911.37) rotate(166.85) scale(29.49 -70.64) skewX(.01)" gradientUnits="userSpaceOnUse">
      <stop offset=".06" stop-color="#e4a7fe"/>
      <stop offset=".54" stop-color="#e4a7fe" stop-opacity="0"/>
    </radialGradient>
    <radialGradient id="h" data-name="Безымянный градиент 7" cx="-675.64" cy="797.48" fx="-675.64" fy="797.48" r="13.89" gradientTransform="translate(-1949 23805.98) rotate(45.01) scale(22.62 -22.62) skewX(-.01)" gradientUnits="userSpaceOnUse">
      <stop offset=".08" stop-color="#367af2"/>
      <stop offset=".87" stop-color="#001a8f"/>
    </radialGradient>
    <radialGradient id="i" data-name="Безымянный градиент 8" cx="-657.62" cy="854.65" fx="-657.62" fy="854.65" r="13.89" gradientTransform="translate(-10796.09 7734.8) rotate(90) scale(11.2 -12.76)" gradientUnits="userSpaceOnUse">
      <stop offset=".59" stop-color="#2763e5" stop-opacity="0"/>
      <stop offset=".97" stop-color="#58aafe"/>
    </radialGradient>
  </defs>
  <path class="p" d="M69.43,376.25l194.4-237.36,222.17,154.24v158.26c0,26.85-21.76,48.61-48.6,48.61H152.74c-46.01,0-83.31-37.31-83.31-83.33v-40.42Z"/>
  <path class="l" d="M69.43,208.87c0-34.52,27.98-62.5,62.49-62.5h283.11l70.97-35.26v173.61c0,26.85-21.76,48.61-48.6,48.61H152.74c-46.01,0-83.31,37.31-83.31,83.33v-207.8Z"/>
  <path class="o" d="M69.43,208.87c0-34.52,27.98-62.5,62.49-62.5h283.11l70.97-35.26v173.61c0,26.85-21.76,48.61-48.6,48.61H152.74c-46.01,0-83.31,37.31-83.31,83.33v-207.8Z"/>
  <path class="q" d="M69.43,208.87c0-34.52,27.98-62.5,62.49-62.5h283.11l70.97-35.26v173.61c0,26.85-21.76,48.61-48.6,48.61H152.74c-46.01,0-83.31,37.31-83.31,83.33v-207.8Z"/>
  <path class="n" d="M69.43,83.33C69.43,37.31,106.73,0,152.74,0h284.66c26.84,0,48.6,21.76,48.6,48.61v69.44c0,26.85-21.76,48.61-48.6,48.61H152.74c-46.01,0-83.31,37.31-83.31,83.33V83.33Z"/>
  <path class="k" d="M69.43,83.33C69.43,37.31,106.73,0,152.74,0h284.66c26.84,0,48.6,21.76,48.6,48.61v69.44c0,26.85-21.76,48.61-48.6,48.61H152.74c-46.01,0-83.31,37.31-83.31,83.33V83.33Z"/>
  <rect class="m" y="236.11" width="222.17" height="222.22" rx="45.13" ry="45.13"/>
  <rect class="r" y="236.11" width="222.17" height="222.22" rx="45.13" ry="45.13"/>
  <path class="j" d="M187.26,283.73l-27.34,126.97-32.69.02-16.14-76.19-16.9,76.19h-33l-26.28-126.97h26.95l16.21,83.79,16.11-83.79h33.04l16.87,83.79,15.82-83.79,27.34-.02Z"/>
</svg>
