<?xml version="1.0" encoding="UTF-8"?>
<svg style="enable-background:new 0 0 240 234" version="1.1" viewBox="0 0 240 234" xml:space="preserve" xmlns="http://www.w3.org/2000/svg">
<title>Adobe Premiere Pro CC logo</title>
<style type="text/css">
	.st0{fill:#00005B;}
	.st1{fill:#9999FF;}
</style>
<g id="vlpa">
	<g id="vlpb">
		<g id="vlpc">
			<g id="vlpd">
				<path class="st0" d="M42.5,0h155C221,0,240,19,240,42.5v149c0,23.5-19,42.5-42.5,42.5h-155C19,234,0,215,0,191.5v-149      C0,19,19,0,42.5,0z"/>
			</g>
		</g>
	</g>
	<g id="vlpe">
		<g id="vlpf">
			<path class="st1" d="m57 164v-103c0-0.7 0.3-1.1 1-1.1 1.7 0 3.3 0 5.6-0.1 2.4-0.1 4.9-0.1 7.6-0.2s5.6-0.1 8.7-0.2 6.1-0.1 9.1-0.1c8.2 0 15 1 20.6 3.1 5 1.7 9.6 4.5 13.4 8.2 3.2 3.2 5.7 7.1 7.3 11.4 1.5 4.2 2.3 8.5 2.3 13 0 8.6-2 15.7-6 21.3s-9.6 9.8-16.1 12.2c-6.8 2.5-14.3 3.4-22.5 3.4-2.4 0-4 0-5-0.1s-2.4-0.1-4.3-0.1v32.1c0.1 0.7-0.4 1.3-1.1 1.4h-0.4-19c-0.8 0-1.2-0.4-1.2-1.3zm21.8-84.7v33.6c1.4 0.1 2.7 0.2 3.9 0.2h5.3c3.9 0 7.8-0.6 11.5-1.8 3.2-0.9 6-2.8 8.2-5.3 2.1-2.5 3.1-5.9 3.1-10.3 0.1-3.1-0.7-6.2-2.3-8.9-1.7-2.6-4.1-4.6-7-5.7-3.7-1.5-7.7-2.1-11.8-2-2.6 0-4.9 0-6.8 0.1-2-0.1-3.4 0-4.1 0.1z"/>
			<path class="st1" d="m147 85.2h17.5c1 0 1.8 0.7 2.1 1.6 0.3 0.8 0.5 1.6 0.6 2.5 0.2 1 0.4 2.1 0.5 3.1 0.1 1.1 0.2 2.3 0.2 3.6 3-3.5 6.6-6.4 10.7-8.6 4.6-2.6 9.9-3.9 15.2-3.9 0.7-0.1 1.3 0.4 1.4 1.1v0.4 19.5c0 0.8-0.5 1.1-1.6 1.1-3.6-0.1-7.3 0.2-10.8 1-2.9 0.6-5.7 1.5-8.4 2.7-1.9 0.9-3.7 2.1-5.1 3.7v51c0 1-0.4 1.4-1.3 1.4h-19.7c-0.8 0.1-1.5-0.4-1.6-1.2v-0.4-55.4c0-2.4 0-4.9-0.1-7.5s-0.1-5.2-0.2-7.8c0-2.3-0.2-4.5-0.4-6.8-0.1-0.5 0.2-1 0.7-1.1 0-0.1 0.2-0.1 0.3 0z"/>
		</g>
	</g>
</g>
</svg>
