<svg fill="none" height="32" viewBox="0 0 32 32" width="32" xmlns="http://www.w3.org/2000/svg"><path d="m2 12.1333c0-3.54697 0-5.32047.69029-6.67524.6072-1.19169 1.57608-2.16057 2.76777-2.76777 1.35477-.69029 3.12827-.69029 6.67524-.69029h7.7334c3.547 0 5.3205 0 6.6752.69029 1.1917.6072 2.1606 1.57608 2.7678 2.76777.6903 1.35477.6903 3.12827.6903 6.67524v7.7334c0 3.547 0 5.3205-.6903 6.6752-.6072 1.1917-1.5761 2.1606-2.7678 2.7678-1.3547.6903-3.1282.6903-6.6752.6903h-7.7334c-3.54697 0-5.32047 0-6.67524-.6903-1.19169-.6072-2.16057-1.5761-2.76777-2.7678-.69029-1.3547-.69029-3.1282-.69029-6.6752z" fill="#00005b"/><g fill="#99f"><path d="m13.7893 19.5638h-4.3389l-.88281 2.8181c-.02451.1045-.12074.1785-.22541.1734h-2.19764c-.12532 0-.16915-.0706-.13148-.2119l3.75663-11.0508c.0376-.1155.07514-.2285.11274-.3763.04913-.2571.07429-.5183.07513-.7802-.01076-.0774.05604-.14596.13144-.1349h2.9866c.0875 0 .1375.0321.1502.0963l4.2639 12.2651c.0375.1286-.0001.1928-.1127.1927h-2.4419c-.0856.0097-.1674-.049-.1878-.1349zm-3.6627-2.3761h2.9678c-.4876-1.6662-1.0379-3.3104-1.4839-4.9896-.5054 1.7418-.9721 3.3572-1.4839 4.9896z"/><path d="m20.6608 18.4757c.1727 1.4309 1.3743 2.1131 2.7048 2.084.7503-.0147 1.5521-.1312 2.2532-.4149.0624-.0511.0939-.0192.0939.0964v1.8301c.0059.0952-.0339.1803-.1127.2312-.8714.3958-1.8716.5152-2.8167.5-2.8178 0-4.7529-1.9854-4.7521-4.874-.0074-2.7374 1.7685-5.0468 4.5267-5.0468 2.3381-.0606 3.9568 1.8113 3.9633 4.1414 0 .4243-.0237.8502-.0751 1.2714-.01.0868-.0839.1542-.1691.1542-1.8673 0-3.7437.027-5.6162.027zm0-1.755c1.0407 0 2.0874.0368 3.1274-.0096.1563-.016.2724-.0457.2724-.2082-.0217-.8638-.7507-1.5743-1.5966-1.5412-1.022-.0634-1.6761.7994-1.8032 1.759z"/></g></svg>
