<svg fill="none" height="32" viewBox="0 0 32 32" width="32" xmlns="http://www.w3.org/2000/svg" xmlns:xlink="http://www.w3.org/1999/xlink"><radialGradient id="a" cx="0" cy="0" gradientTransform="matrix(11.43332608 12.20510308 -12.50140367 11.71089041 25.275 25.9316)" gradientUnits="userSpaceOnUse" r="1"><stop offset="0" stop-color="#68e048"/><stop offset="1" stop-color="#5ce049" stop-opacity="0"/></radialGradient><radialGradient id="b" cx="0" cy="0" gradientTransform="matrix(-12.54158312 11.54712854 -11.87170908 -12.89411698 6.43333 25.812)" gradientUnits="userSpaceOnUse" r="1"><stop offset="0" stop-color="#308cfe"/><stop offset="1" stop-color="#2f8bff" stop-opacity="0"/></radialGradient><radialGradient id="c" cx="0" cy="0" gradientTransform="matrix(9.91668119 1.37607087 -1.44619596 10.422039 24.75 17.6752)" gradientUnits="userSpaceOnUse" r="1"><stop offset="0" stop-color="#fdd511"/><stop offset="1" stop-color="#fdd20d" stop-opacity="0"/></radialGradient><radialGradient id="d" cx="0" cy="0" gradientTransform="matrix(-8.92494326 -11.78634623 12.00948974 -9.09391362 6.78333 12.1111)" gradientUnits="userSpaceOnUse" r="1"><stop offset="0" stop-color="#f928c2"/><stop offset="1" stop-color="#f922bc" stop-opacity="0"/></radialGradient><radialGradient id="e" cx="0" cy="0" gradientTransform="matrix(6.64999669 -13.28205249 13.42029357 6.7192106 17.8667 6.66667)" gradientUnits="userSpaceOnUse" r="1"><stop offset="0" stop-color="#f90700"/><stop offset="1" stop-color="#f90700" stop-opacity="0"/></radialGradient><radialGradient id="f" cx="0" cy="0" gradientTransform="matrix(3.67499738 -8.13675564 8.20836093 3.70733818 28.4833 6.06838)" gradientUnits="userSpaceOnUse" r="1"><stop offset="0" stop-color="#fb4200"/><stop offset="1" stop-color="#fb4300" stop-opacity="0"/></radialGradient><radialGradient id="g" cx="0" cy="0" gradientTransform="matrix(-5.48333213 -5.74359617 5.88584127 -5.61913156 4.91667 5.41026)" gradientUnits="userSpaceOnUse" r="1"><stop offset="0" stop-color="#fe0d88"/><stop offset="1" stop-color="#fe0d88" stop-opacity="0"/></radialGradient><path d="m2 12.1333c0-3.54697 0-5.32047.69029-6.67524.6072-1.19169 1.57608-2.16057 2.76777-2.76777 1.35477-.69029 3.12827-.69029 6.67524-.69029h7.7334c3.547 0 5.3205 0 6.6752.69029 1.1917.6072 2.1606 1.57608 2.7678 2.76777.6903 1.35477.6903 3.12827.6903 6.67524v7.7334c0 3.547 0 5.3205-.6903 6.6752-.6072 1.1917-1.5761 2.1606-2.7678 2.7678-1.3547.6903-3.1282.6903-6.6752.6903h-7.7334c-3.54697 0-5.32047 0-6.67524-.6903-1.19169-.6072-2.16057-1.5761-2.76777-2.7678-.69029-1.3547-.69029-3.1282-.69029-6.6752z" fill="#fff"/><path d="m2 12.1333c0-3.54697 0-5.32047.69029-6.67524.6072-1.19169 1.57608-2.16057 2.76777-2.76777 1.35477-.69029 3.12827-.69029 6.67524-.69029h7.7334c3.547 0 5.3205 0 6.6752.69029 1.1917.6072 2.1606 1.57608 2.7678 2.76777.6903 1.35477.6903 3.12827.6903 6.67524v7.7334c0 3.547 0 5.3205-.6903 6.6752-.6072 1.1917-1.5761 2.1606-2.7678 2.7678-1.3547.6903-3.1282.6903-6.6752.6903h-7.7334c-3.54697 0-5.32047 0-6.67524-.6903-1.19169-.6072-2.16057-1.5761-2.76777-2.7678-.69029-1.3547-.69029-3.1282-.69029-6.6752z" fill="url(#a)"/><path d="m2 12.1333c0-3.54697 0-5.32047.69029-6.67524.6072-1.19169 1.57608-2.16057 2.76777-2.76777 1.35477-.69029 3.12827-.69029 6.67524-.69029h7.7334c3.547 0 5.3205 0 6.6752.69029 1.1917.6072 2.1606 1.57608 2.7678 2.76777.6903 1.35477.6903 3.12827.6903 6.67524v7.7334c0 3.547 0 5.3205-.6903 6.6752-.6072 1.1917-1.5761 2.1606-2.7678 2.7678-1.3547.6903-3.1282.6903-6.6752.6903h-7.7334c-3.54697 0-5.32047 0-6.67524-.6903-1.19169-.6072-2.16057-1.5761-2.76777-2.7678-.69029-1.3547-.69029-3.1282-.69029-6.6752z" fill="url(#b)"/><path d="m2 12.1333c0-3.54697 0-5.32047.69029-6.67524.6072-1.19169 1.57608-2.16057 2.76777-2.76777 1.35477-.69029 3.12827-.69029 6.67524-.69029h7.7334c3.547 0 5.3205 0 6.6752.69029 1.1917.6072 2.1606 1.57608 2.7678 2.76777.6903 1.35477.6903 3.12827.6903 6.67524v7.7334c0 3.547 0 5.3205-.6903 6.6752-.6072 1.1917-1.5761 2.1606-2.7678 2.7678-1.3547.6903-3.1282.6903-6.6752.6903h-7.7334c-3.54697 0-5.32047 0-6.67524-.6903-1.19169-.6072-2.16057-1.5761-2.76777-2.7678-.69029-1.3547-.69029-3.1282-.69029-6.6752z" fill="url(#c)"/><path d="m2 12.1333c0-3.54697 0-5.32047.69029-6.67524.6072-1.19169 1.57608-2.16057 2.76777-2.76777 1.35477-.69029 3.12827-.69029 6.67524-.69029h7.7334c3.547 0 5.3205 0 6.6752.69029 1.1917.6072 2.1606 1.57608 2.7678 2.76777.6903 1.35477.6903 3.12827.6903 6.67524v7.7334c0 3.547 0 5.3205-.6903 6.6752-.6072 1.1917-1.5761 2.1606-2.7678 2.7678-1.3547.6903-3.1282.6903-6.6752.6903h-7.7334c-3.54697 0-5.32047 0-6.67524-.6903-1.19169-.6072-2.16057-1.5761-2.76777-2.7678-.69029-1.3547-.69029-3.1282-.69029-6.6752z" fill="url(#d)"/><path d="m2 12.1333c0-3.54697 0-5.32047.69029-6.67524.6072-1.19169 1.57608-2.16057 2.76777-2.76777 1.35477-.69029 3.12827-.69029 6.67524-.69029h7.7334c3.547 0 5.3205 0 6.6752.69029 1.1917.6072 2.1606 1.57608 2.7678 2.76777.6903 1.35477.6903 3.12827.6903 6.67524v7.7334c0 3.547 0 5.3205-.6903 6.6752-.6072 1.1917-1.5761 2.1606-2.7678 2.7678-1.3547.6903-3.1282.6903-6.6752.6903h-7.7334c-3.54697 0-5.32047 0-6.67524-.6903-1.19169-.6072-2.16057-1.5761-2.76777-2.7678-.69029-1.3547-.69029-3.1282-.69029-6.6752z" fill="url(#e)"/><path d="m2 12.1333c0-3.54697 0-5.32047.69029-6.67524.6072-1.19169 1.57608-2.16057 2.76777-2.76777 1.35477-.69029 3.12827-.69029 6.67524-.69029h7.7334c3.547 0 5.3205 0 6.6752.69029 1.1917.6072 2.1606 1.57608 2.7678 2.76777.6903 1.35477.6903 3.12827.6903 6.67524v7.7334c0 3.547 0 5.3205-.6903 6.6752-.6072 1.1917-1.5761 2.1606-2.7678 2.7678-1.3547.6903-3.1282.6903-6.6752.6903h-7.7334c-3.54697 0-5.32047 0-6.67524-.6903-1.19169-.6072-2.16057-1.5761-2.76777-2.7678-.69029-1.3547-.69029-3.1282-.69029-6.6752z" fill="url(#f)"/><path d="m2 12.1333c0-3.54697 0-5.32047.69029-6.67524.6072-1.19169 1.57608-2.16057 2.76777-2.76777 1.35477-.69029 3.12827-.69029 6.67524-.69029h7.7334c3.547 0 5.3205 0 6.6752.69029 1.1917.6072 2.1606 1.57608 2.7678 2.76777.6903 1.35477.6903 3.12827.6903 6.67524v7.7334c0 3.547 0 5.3205-.6903 6.6752-.6072 1.1917-1.5761 2.1606-2.7678 2.7678-1.3547.6903-3.1282.6903-6.6752.6903h-7.7334c-3.54697 0-5.32047 0-6.67524-.6903-1.19169-.6072-2.16057-1.5761-2.76777-2.7678-.69029-1.3547-.69029-3.1282-.69029-6.6752z" fill="url(#g)"/><path d="m24.4703 10.436c-1.4817-1.63928-3.57-2.56064-5.74-2.54868-2.1234 0-4.2817.93334-5.67 2.44098-.2567-.0239-.5134-.0478-.7584-.0478-4.16497 0-6.74331 3.5897-6.74331 6.9162.01167 1.7949.68834 3.518 1.89 4.8342 1.26 1.3761 3.01001 2.1539 4.85331 2.1539h6.4284c4.3633 0 7.91-3.6735 7.91-8.1727-.0234-2.0701-.7934-4.0564-2.17-5.5761zm-12.2967 12.5761c-3.09167 0-5.58834-2.5726-5.58834-5.7436 0-3.147 2.485-5.7077 5.56504-5.7316 1.365 0 2.8.4547 3.71 1.4479l2.345 2.4649c.385.4069.3733 1.053-.0234 1.4479-.3966.3949-1.0266.3829-1.4116-.024l-2.2867-2.417c-1.4933-1.3163-3.745-1.1488-5.02834.3829-.56.6581-.86333 1.5077-.86333 2.3812 0 2.0102 1.66837 3.7094 3.63997 3.7094h.455c.6534.9333 2.485 2.082 2.485 2.082zm11.4567-2.0581c-1.2484 1.3402-2.975 2.094-4.7834 2.106-1.715 0-3.465-.7898-4.8066-2.1539l-3.0567-3.1589c-.385-.4069-.3733-1.053.0117-1.4479.1866-.1915.4316-.2872.7-.2872.2683 0 .525.1077.7116.3111l3.045 3.1231c.9684.9932 2.205 1.5556 3.395 1.5556 1.2717 0 2.485-.5385 3.36-1.4958.8984-.9453 1.4-2.2136 1.4-3.5299 0-2.7043-2.1466-4.894-4.7833-4.906-1.0033 0-1.8317.2034-2.6483.7898-.4624-.4742-1.4584-.9453-1.9134-1.0411 1.26-1.2085 2.835-1.79482 4.5617-1.79482 3.745 0 6.7667 3.11112 6.7783 6.95212 0 1.8547-.7 3.6496-1.9716 4.9778z" fill="#fff"/></svg>
