<svg xmlns="http://www.w3.org/2000/svg" xml:space="preserve" width="60" height="63.896">
  <style>
    .st1{fill-rule:evenodd;clip-rule:evenodd;fill:#218529}
  </style>
  <path d="M34.677 9.545a9.39 9.39 0 0 0-9.332 0L12.988 16.68c-2.882 1.683-4.68 4.765-4.68 8.104v14.27c0 3.339 1.77 6.45 4.68 8.104l12.357 7.135a9.39 9.39 0 0 0 9.332 0l12.357-7.135c2.883-1.683 4.68-4.765 4.68-8.104v-14.27c0-3.339-1.769-6.45-4.68-8.104zM23.69 6.691a12.608 12.608 0 0 1 12.614 0l12.357 7.135a12.692 12.692 0 0 1 6.336 10.987v14.27c0 4.537-2.398 8.703-6.336 10.986l-12.357 7.135a12.608 12.608 0 0 1-12.614 0l-12.357-7.135a12.692 12.692 0 0 1-6.336-10.987V24.813c0-4.538 2.398-8.704 6.336-10.987z" class="st1"/>
  <path fill="#73d733" d="M31.68 23.186a4.825 4.825 0 0 0-3.224 4.566v14.412h3.225z"/>
  <path fill="#218529" d="M31.68 27.267V23.13a5.076 5.076 0 0 1 1.485-.228c4.851 0 8.761 3.938 8.761 8.761v1.798c0 4.766-3.853 8.647-8.618 8.647v-3.282a5.347 5.347 0 0 0 5.336-5.336v-1.8a5.48 5.48 0 0 0-5.48-5.48 1.57 1.57 0 0 0-1.483 1.056z"/>
  <path d="M17.954 31.976c0-5.023 4.052-9.075 9.018-9.075v3.31c-3.168 0-5.736 2.597-5.736 5.794v1.198c0 3.14 2.54 5.68 5.65 5.68v3.31c-4.937 0-8.932-4.024-8.932-8.99z" class="st1"/>
</svg>