<svg id="svg" version="1.1" xmlns="http://www.w3.org/2000/svg" xmlns:xlink="http://www.w3.org/1999/xlink" width="400" height="400" viewBox="0, 0, 400,400"><g id="svgg"><path id="path0" d="M330.397 136.367 C 330.055 136.729,328.407 137.235,326.597 137.534 C 318.995 138.790,318.111 140.316,317.402 153.400 C 316.962 161.518,316.308 166.977,315.390 170.200 C 314.158 174.520,313.713 177.730,313.200 186.000 C 312.666 194.588,312.183 198.765,311.394 201.616 C 310.007 206.626,309.598 209.465,309.005 218.204 C 308.172 230.472,307.081 236.767,305.877 236.244 C 305.615 236.130,304.647 235.814,303.727 235.542 C 301.094 234.765,300.309 232.396,299.387 222.447 C 298.739 215.460,298.303 212.955,297.438 211.259 C 296.555 209.529,295.695 204.942,295.213 199.400 C 294.660 193.048,294.186 190.360,293.192 187.962 C 292.061 185.231,291.688 183.195,291.000 176.000 C 290.322 168.907,289.896 166.532,288.987 164.775 C 288.242 163.335,287.362 159.101,286.996 155.200 C 286.557 150.516,285.148 150.015,280.800 152.991 C 280.030 153.518,278.860 154.074,278.200 154.227 C 276.118 154.709,275.300 155.810,274.995 158.537 C 274.843 159.892,274.221 162.530,273.613 164.400 C 272.478 167.887,271.808 172.012,271.405 178.000 C 271.046 183.319,270.395 187.191,269.418 189.800 C 268.378 192.580,267.773 196.426,267.184 204.000 C 266.755 209.506,266.109 213.071,265.035 215.847 C 264.209 217.984,263.698 221.248,263.195 227.600 C 262.687 234.026,261.844 238.951,260.799 241.603 C 260.380 242.667,259.750 245.666,259.399 248.269 C 257.577 261.801,254.662 261.589,253.182 247.816 C 252.923 245.405,252.451 242.525,252.132 241.416 C 250.454 235.573,249.965 232.746,249.399 225.614 C 248.723 217.092,248.266 213.935,247.412 211.891 C 246.510 209.732,245.648 204.224,245.207 197.800 C 244.704 190.478,244.168 186.838,243.197 184.162 C 242.221 181.471,241.668 178.301,241.258 173.054 C 240.764 166.728,238.610 165.801,233.014 169.508 C 231.993 170.184,230.264 170.966,229.171 171.246 C 225.848 172.098,225.490 174.243,227.766 179.664 C 228.753 182.016,229.142 184.277,229.790 191.447 C 230.463 198.885,230.994 202.022,231.870 203.728 C 232.706 205.355,233.472 209.808,233.982 216.000 C 234.520 222.519,235.114 226.231,235.853 227.684 C 236.825 229.597,237.578 233.726,238.178 240.446 C 238.831 247.758,239.313 250.673,240.136 252.300 C 241.182 254.366,241.765 257.811,242.420 265.786 C 242.912 271.784,243.360 274.288,244.391 276.800 C 245.366 279.179,245.863 282.021,246.392 288.251 C 246.838 293.513,247.475 297.198,247.940 297.203 C 248.311 297.206,255.386 295.274,258.000 294.456 C 260.761 293.591,261.462 292.309,262.293 286.600 C 262.614 284.400,263.229 281.610,263.660 280.400 C 264.941 276.808,265.500 273.733,265.988 267.600 C 266.478 261.444,267.331 256.486,268.188 254.815 C 268.999 253.233,269.542 249.964,270.192 242.739 C 270.847 235.461,271.337 232.679,272.402 230.196 C 273.275 228.158,273.875 224.469,274.418 217.800 C 274.879 212.132,275.759 207.227,276.609 205.583 C 276.906 205.008,277.538 202.481,278.013 199.969 C 279.339 192.949,280.827 190.161,282.160 192.195 C 283.226 193.822,283.552 194.981,283.987 198.695 C 284.629 204.174,285.249 207.280,286.005 208.800 C 286.980 210.761,287.535 213.662,288.222 220.386 C 288.861 226.636,289.038 227.498,290.571 231.829 C 291.262 233.783,291.766 236.569,292.198 240.829 C 292.949 248.240,293.394 250.623,294.424 252.756 C 295.271 254.509,296.110 259.295,296.779 266.200 C 297.563 274.283,299.184 276.356,303.681 275.026 C 304.846 274.681,306.852 274.112,308.137 273.761 C 311.279 272.902,311.309 272.831,312.782 262.882 C 313.019 261.277,313.564 258.937,313.993 257.682 C 315.015 254.688,315.465 251.567,315.994 243.800 C 316.482 236.640,317.309 231.070,318.204 228.929 C 319.056 226.890,319.537 223.459,320.199 214.692 C 320.833 206.299,321.206 203.838,322.392 200.200 C 323.434 197.005,323.875 193.903,324.409 186.000 C 324.896 178.791,325.684 173.529,326.608 171.320 C 327.416 169.386,327.905 166.067,328.392 159.200 C 329.002 150.622,329.573 146.549,330.637 143.200 C 332.055 138.737,331.915 134.757,330.397 136.367 M104.083 151.381 C 102.918 151.663,101.568 152.256,101.083 152.699 C 100.597 153.142,99.361 153.869,98.335 154.314 C 96.151 155.263,92.531 158.797,91.692 160.800 C 91.370 161.570,90.616 162.759,90.017 163.442 C 86.708 167.211,86.890 188.183,90.275 193.200 C 90.794 193.970,91.579 195.803,92.018 197.273 C 92.514 198.930,93.367 200.602,94.264 201.673 C 95.059 202.623,96.040 204.167,96.443 205.104 C 96.846 206.042,97.856 207.518,98.688 208.384 C 99.519 209.251,101.280 211.145,102.600 212.593 C 103.920 214.041,105.357 215.535,105.793 215.913 C 106.229 216.291,107.309 217.339,108.193 218.243 C 109.077 219.146,110.371 220.212,111.069 220.610 C 111.766 221.009,112.564 221.760,112.842 222.279 C 113.120 222.797,114.190 223.740,115.220 224.374 C 116.251 225.008,117.490 226.084,117.974 226.764 C 118.458 227.444,119.093 228.000,119.384 228.000 C 119.675 228.000,120.788 228.781,121.857 229.735 C 122.926 230.690,124.588 232.037,125.552 232.729 C 130.623 236.374,136.999 243.572,138.279 247.099 C 138.802 248.540,139.572 250.199,139.991 250.787 C 141.982 253.583,142.124 263.386,140.206 265.666 C 139.632 266.348,138.830 267.558,138.423 268.353 C 136.491 272.140,132.107 273.150,124.199 271.632 C 119.335 270.698,118.937 270.555,117.315 269.158 C 116.608 268.549,115.258 267.694,114.315 267.258 C 112.705 266.513,109.390 263.485,105.855 259.529 C 105.006 258.578,103.901 256.720,103.400 255.400 C 102.899 254.080,101.960 252.006,101.313 250.790 C 100.402 249.078,100.024 247.622,99.633 244.317 C 99.003 239.003,98.944 238.927,94.782 238.018 C 92.850 237.595,90.141 236.626,88.509 235.774 C 84.506 233.683,84.209 233.957,84.521 239.459 C 84.710 242.801,84.960 243.982,85.919 246.064 C 86.561 247.459,87.487 250.367,87.978 252.526 C 88.633 255.410,89.163 256.789,89.976 257.726 C 90.584 258.427,91.593 260.170,92.218 261.600 C 92.842 263.030,94.039 264.961,94.877 265.891 C 95.714 266.821,96.400 267.848,96.400 268.172 C 96.400 268.497,97.120 269.341,98.000 270.048 C 98.880 270.755,99.948 271.925,100.374 272.647 C 100.800 273.368,101.777 274.371,102.544 274.873 C 103.311 275.376,104.220 276.264,104.563 276.845 C 104.907 277.427,105.806 278.196,106.561 278.555 C 107.316 278.913,108.378 279.733,108.920 280.378 C 109.462 281.022,111.114 282.097,112.591 282.767 C 114.068 283.437,115.863 284.499,116.580 285.129 C 117.494 285.932,118.942 286.537,121.441 287.161 C 123.399 287.649,125.610 288.407,126.356 288.844 C 130.574 291.317,142.063 291.550,144.600 289.215 C 145.040 288.810,146.253 288.082,147.296 287.597 C 149.834 286.417,153.435 282.506,154.023 280.291 C 154.270 279.361,154.998 277.674,155.642 276.541 C 158.289 271.883,158.304 258.218,155.668 252.109 C 155.025 250.619,154.182 248.050,153.795 246.400 C 153.002 243.025,152.684 242.284,151.535 241.135 C 150.694 240.294,148.811 236.554,148.804 235.712 C 148.802 235.444,148.242 234.814,147.561 234.312 C 146.880 233.810,146.049 232.860,145.716 232.200 C 145.102 230.985,144.089 229.875,138.503 224.307 C 132.267 218.091,131.383 217.287,130.500 217.019 C 130.005 216.869,129.121 216.119,128.536 215.352 C 127.951 214.585,126.916 213.725,126.236 213.440 C 125.556 213.156,124.550 212.434,124.000 211.836 C 123.450 211.238,121.873 210.023,120.496 209.136 C 119.118 208.249,117.768 207.210,117.496 206.828 C 117.223 206.446,116.103 205.452,115.006 204.619 C 113.910 203.786,112.724 202.629,112.371 202.049 C 112.018 201.469,111.067 200.489,110.257 199.871 C 109.401 199.218,108.263 197.713,107.537 196.274 C 106.851 194.913,105.969 193.575,105.578 193.301 C 103.991 192.186,103.399 189.373,103.413 183.000 C 103.434 172.862,104.566 171.140,112.800 168.727 C 114.458 168.242,114.994 168.297,119.600 169.433 C 126.208 171.063,126.121 171.030,128.091 172.677 C 129.031 173.463,130.389 174.388,131.108 174.731 C 131.828 175.075,132.946 176.180,133.592 177.188 C 134.238 178.195,135.321 179.549,135.998 180.198 C 136.880 181.043,137.522 182.340,138.267 184.784 C 138.839 186.658,139.562 188.580,139.873 189.055 C 140.185 189.531,140.796 191.693,141.232 193.860 C 142.187 198.614,142.476 198.932,146.560 199.744 C 148.298 200.090,150.368 200.798,151.160 201.318 C 153.123 202.607,155.985 203.311,156.734 202.689 C 157.757 201.840,157.124 195.573,155.649 191.941 C 154.966 190.259,154.146 187.645,153.828 186.132 C 153.069 182.525,152.550 181.212,151.402 180.000 C 150.882 179.450,150.059 177.935,149.574 176.632 C 149.089 175.330,147.999 173.513,147.151 172.593 C 146.303 171.674,145.337 170.268,145.004 169.470 C 144.663 168.655,143.889 167.756,143.237 167.419 C 142.599 167.089,141.678 166.174,141.190 165.384 C 140.702 164.595,139.610 163.511,138.762 162.976 C 137.914 162.441,136.932 161.563,136.579 161.025 C 136.227 160.487,134.800 159.514,133.409 158.863 C 132.017 158.212,130.515 157.315,130.070 156.870 C 128.880 155.680,127.921 155.249,124.523 154.380 C 122.839 153.950,120.818 153.211,120.031 152.739 C 117.004 150.924,108.842 150.228,104.083 151.381 " stroke="none" fill="#f8efed" fill-rule="evenodd"></path><path id="path1" d="M357.000 81.573 C 354.186 81.868,352.385 82.736,351.236 84.349 C 350.293 85.673,349.924 85.795,345.050 86.397 C 341.630 86.819,339.423 87.623,337.212 89.252 C 336.595 89.706,334.955 90.155,333.010 90.400 C 328.793 90.933,324.400 92.380,324.400 93.237 C 324.400 93.684,322.117 94.319,319.400 94.627 C 316.586 94.946,313.680 95.966,311.649 97.347 C 310.568 98.082,309.235 98.454,306.400 98.812 C 302.566 99.296,299.504 100.390,298.400 101.670 C 297.989 102.146,296.730 102.499,294.400 102.791 C 289.159 103.449,287.388 103.961,285.965 105.231 C 285.245 105.874,284.553 106.403,284.428 106.407 C 281.382 106.505,274.446 108.132,273.055 109.076 C 270.735 110.652,270.287 110.799,265.905 111.424 C 262.157 111.958,259.560 112.897,258.276 114.181 C 257.920 114.537,255.974 115.043,253.575 115.404 C 249.466 116.021,247.797 116.589,245.200 118.253 C 244.292 118.836,242.623 119.309,240.449 119.602 C 236.850 120.086,233.195 121.319,232.687 122.221 C 232.329 122.856,230.384 123.417,227.200 123.803 C 223.761 124.221,220.964 125.145,219.889 126.220 C 219.069 127.040,218.176 127.306,214.552 127.810 C 209.340 128.536,208.139 128.897,206.132 130.348 C 202.494 132.975,195.867 133.540,192.400 131.519 C 190.562 130.447,189.604 130.144,184.484 129.015 C 182.880 128.661,180.540 127.859,179.284 127.232 C 176.386 125.785,174.841 125.306,171.600 124.847 C 170.170 124.644,167.830 123.939,166.400 123.280 C 162.929 121.679,160.648 120.950,158.000 120.597 C 156.790 120.435,154.630 119.721,153.200 119.009 C 150.138 117.486,148.284 116.914,145.600 116.664 C 143.561 116.474,141.173 115.629,139.800 114.611 C 138.595 113.717,136.984 113.264,131.800 112.361 C 129.071 111.886,128.081 111.531,125.200 109.997 C 123.667 109.181,120.803 108.448,118.000 108.155 C 117.010 108.051,115.120 107.410,113.800 106.730 C 110.924 105.248,109.939 104.933,105.918 104.203 C 104.138 103.880,101.940 103.146,100.718 102.465 C 99.553 101.817,98.467 101.263,98.304 101.233 C 98.142 101.203,97.782 101.107,97.504 101.019 C 95.359 100.344,93.899 100.020,92.000 99.796 C 90.710 99.645,88.459 98.892,86.558 97.978 C 84.398 96.939,82.194 96.237,79.958 95.876 C 77.763 95.521,75.739 94.883,74.114 94.033 C 72.746 93.318,71.396 92.698,71.114 92.655 C 70.831 92.613,70.406 92.456,70.169 92.308 C 69.931 92.159,68.581 91.924,67.169 91.785 C 65.304 91.602,63.610 91.051,60.988 89.778 C 59.001 88.813,56.751 87.940,55.988 87.838 C 55.225 87.735,53.700 87.540,52.600 87.403 C 49.237 86.984,47.426 86.107,46.361 84.383 C 45.246 82.579,42.955 81.390,42.039 82.140 C 41.351 82.703,41.454 82.709,40.678 82.065 C 40.120 81.601,40.002 81.655,39.805 82.465 C 39.471 83.835,39.759 302.825,40.096 303.971 C 40.564 305.562,41.081 305.790,44.518 305.921 C 46.323 305.990,48.070 306.154,48.400 306.286 C 48.730 306.419,49.148 306.494,49.330 306.454 C 49.511 306.413,49.545 306.565,49.406 306.790 C 49.267 307.016,49.484 307.200,49.889 307.200 C 50.324 307.200,50.794 307.649,51.040 308.300 C 51.541 309.625,53.372 310.215,57.440 310.362 C 60.718 310.481,60.702 310.473,61.024 312.186 C 61.335 313.848,61.755 314.032,65.800 314.287 C 67.560 314.397,69.041 314.524,69.091 314.568 C 69.179 314.646,69.511 316.274,69.570 316.924 C 69.587 317.102,69.773 317.140,69.985 317.009 C 70.197 316.878,70.693 317.092,71.086 317.485 C 71.479 317.878,72.251 318.231,72.801 318.269 C 73.691 318.331,77.745 318.687,78.487 318.768 C 78.646 318.786,78.685 319.034,78.576 319.319 C 78.352 319.901,80.253 321.880,80.652 321.481 C 80.792 321.341,81.326 321.556,81.838 321.958 C 82.557 322.524,83.566 322.708,86.274 322.768 C 90.333 322.857,89.905 322.695,90.070 324.203 C 90.273 326.074,91.277 326.617,94.739 326.732 C 97.737 326.832,99.620 327.797,98.945 328.889 C 98.839 329.060,98.928 329.200,99.143 329.200 C 99.358 329.200,99.593 329.038,99.667 328.839 C 99.740 328.641,100.032 328.731,100.316 329.039 C 100.614 329.363,100.656 329.600,100.416 329.600 C 99.821 329.600,99.900 330.260,100.500 330.301 C 101.051 330.339,102.494 330.656,103.532 330.966 C 103.899 331.076,105.577 331.213,107.260 331.271 C 109.949 331.363,110.304 331.462,110.183 332.088 C 110.108 332.479,110.196 332.800,110.379 332.800 C 110.561 332.800,110.686 333.104,110.656 333.477 C 110.569 334.531,112.162 335.086,115.498 335.163 C 118.427 335.231,119.837 335.694,119.377 336.437 C 119.044 336.976,119.958 338.400,120.638 338.400 C 120.973 338.400,121.143 338.569,121.015 338.776 C 120.887 338.982,121.102 339.150,121.491 339.149 C 121.881 339.147,123.370 339.235,124.800 339.344 C 126.230 339.454,127.636 339.556,127.924 339.571 C 128.212 339.587,128.336 339.780,128.200 340.000 C 128.064 340.220,128.173 340.400,128.443 340.400 C 128.713 340.400,128.828 340.505,128.700 340.633 C 128.236 341.098,129.776 342.290,130.309 341.879 C 130.693 341.583,130.750 341.664,130.541 342.209 C 130.339 342.735,130.403 342.845,130.777 342.614 C 131.078 342.428,131.426 342.519,131.621 342.835 C 131.981 343.417,132.725 343.518,137.018 343.568 L 139.836 343.600 139.935 345.066 C 140.049 346.761,140.303 347.307,140.828 346.983 C 141.032 346.856,141.200 346.915,141.200 347.113 C 141.200 347.311,142.055 347.504,143.100 347.541 C 147.422 347.696,149.182 348.258,148.550 349.281 C 148.442 349.456,148.543 349.600,148.776 349.600 C 149.009 349.600,149.200 349.870,149.200 350.200 C 149.200 350.530,149.470 350.800,149.800 350.800 C 150.130 350.800,150.400 350.950,150.400 351.133 C 150.400 351.317,150.625 351.488,150.900 351.514 C 151.175 351.540,152.634 351.673,154.143 351.809 C 156.582 352.030,159.376 352.709,158.114 352.775 C 157.840 352.789,158.013 353.193,158.514 353.705 C 159.060 354.263,159.513 354.455,159.694 354.205 C 159.866 353.967,159.990 354.061,159.994 354.432 C 160.004 355.489,161.622 355.988,165.388 356.097 L 168.977 356.200 169.318 357.931 C 169.572 359.218,169.811 359.604,170.251 359.436 C 170.583 359.308,170.735 359.382,170.597 359.605 C 170.455 359.834,170.951 360.021,171.776 360.050 C 172.559 360.078,173.740 360.145,174.400 360.200 C 175.060 360.255,176.151 360.322,176.824 360.350 C 177.497 360.378,177.948 360.561,177.826 360.758 C 177.704 360.955,177.894 361.227,178.248 361.363 C 178.654 361.519,178.814 361.901,178.683 362.403 C 178.508 363.072,178.625 363.159,179.434 362.956 C 180.113 362.785,180.467 362.909,180.648 363.381 C 180.789 363.749,181.158 363.948,181.472 363.828 C 181.785 363.707,181.946 363.764,181.828 363.954 C 181.711 364.144,182.883 364.325,184.433 364.357 C 186.946 364.409,187.350 364.529,188.159 365.470 C 188.825 366.244,189.067 366.353,189.067 365.880 C 189.067 365.526,188.929 365.320,188.761 365.424 C 188.593 365.528,188.350 365.443,188.221 365.234 C 188.092 365.026,188.157 364.750,188.366 364.621 C 188.842 364.327,189.340 365.099,189.513 366.400 C 189.733 368.055,190.399 368.327,194.948 368.616 C 198.416 368.837,199.366 368.782,199.642 368.346 C 199.834 368.042,199.990 316.271,199.994 251.509 L 200.000 135.218 200.900 134.640 C 201.395 134.322,202.700 133.945,203.800 133.802 C 206.291 133.478,207.856 132.920,209.400 131.806 C 210.874 130.743,213.265 130.075,217.200 129.627 C 220.465 129.255,221.495 128.893,223.553 127.394 C 225.148 126.232,227.182 125.607,229.400 125.597 C 231.684 125.588,235.153 124.584,236.155 123.642 C 237.257 122.607,239.673 121.600,241.054 121.600 C 243.484 121.600,247.271 120.669,248.502 119.769 C 250.472 118.329,251.477 117.985,255.484 117.381 C 259.338 116.799,261.128 116.169,262.800 114.808 C 263.473 114.260,265.043 113.800,267.600 113.404 C 272.684 112.615,274.408 112.101,275.600 111.018 C 276.657 110.058,281.038 108.800,283.323 108.800 C 285.131 108.800,287.149 108.080,288.519 106.946 C 289.794 105.891,293.115 104.800,295.053 104.800 C 297.318 104.800,300.321 103.976,301.685 102.980 C 303.708 101.504,304.697 101.171,308.808 100.587 C 313.306 99.947,313.701 99.820,315.833 98.314 C 317.069 97.441,318.332 97.025,321.033 96.601 C 325.680 95.872,327.323 95.369,328.188 94.413 C 329.068 93.440,330.509 92.982,334.600 92.372 C 337.741 91.903,341.600 90.595,341.600 89.999 C 341.600 89.452,343.737 88.849,347.984 88.198 C 352.343 87.530,355.010 86.429,355.423 85.128 C 355.754 84.085,356.953 83.562,358.555 83.760 C 360.117 83.954,360.673 83.258,359.984 81.971 C 359.758 81.547,359.533 81.227,359.486 81.261 C 359.439 81.295,358.320 81.435,357.000 81.573 M118.330 149.419 C 120.713 149.637,122.986 150.471,124.195 151.571 C 125.010 152.313,126.455 152.872,129.445 153.600 C 130.389 153.830,131.743 154.618,132.624 155.449 C 133.469 156.245,134.932 157.228,135.876 157.633 C 136.873 158.060,137.909 158.889,138.348 159.611 C 138.764 160.295,139.707 161.157,140.444 161.527 C 141.181 161.897,142.195 162.816,142.698 163.568 C 143.201 164.320,144.130 165.251,144.763 165.636 C 145.396 166.021,146.236 167.067,146.630 167.960 C 147.025 168.853,147.992 170.102,148.780 170.735 C 149.825 171.576,150.466 172.607,151.154 174.555 C 151.699 176.097,152.428 177.401,152.882 177.644 C 153.871 178.173,154.645 180.011,155.410 183.648 C 155.782 185.416,156.381 186.937,156.989 187.660 C 158.420 189.360,158.811 191.159,159.078 197.273 L 159.317 202.745 158.089 203.973 C 156.726 205.336,156.504 205.369,152.800 204.781 C 151.105 204.511,149.434 203.902,148.000 203.032 C 146.790 202.298,144.802 201.411,143.581 201.061 C 139.805 199.978,138.382 197.587,137.185 190.308 C 136.302 184.942,135.821 183.371,134.963 183.041 C 134.654 182.922,133.594 181.579,132.608 180.055 C 131.178 177.844,130.352 177.025,128.508 175.990 C 127.239 175.277,125.556 174.116,124.768 173.409 C 123.453 172.230,122.987 172.086,119.059 171.644 C 108.489 170.454,105.190 172.998,105.210 182.326 C 105.221 188.031,105.615 189.929,106.995 190.934 C 107.566 191.350,108.535 192.796,109.147 194.145 C 109.760 195.495,110.882 197.144,111.641 197.809 C 112.400 198.474,113.540 199.699,114.176 200.532 C 114.811 201.366,115.796 202.290,116.365 202.588 C 116.934 202.885,118.300 203.967,119.400 204.991 C 120.500 206.016,122.128 207.288,123.017 207.817 C 123.906 208.346,125.036 209.323,125.528 209.989 C 126.021 210.654,127.024 211.450,127.759 211.757 C 128.493 212.064,129.584 212.957,130.183 213.742 C 130.781 214.527,131.660 215.286,132.136 215.429 C 133.198 215.750,135.200 217.577,135.200 218.226 C 135.200 218.488,135.696 218.908,136.302 219.160 C 137.489 219.651,143.600 225.668,143.600 226.345 C 143.600 226.571,144.144 227.076,144.808 227.469 C 145.473 227.861,146.373 228.917,146.807 229.815 C 147.242 230.713,148.149 231.856,148.823 232.354 C 149.542 232.885,150.474 234.241,151.077 235.630 C 151.642 236.934,152.249 238.000,152.425 238.000 C 153.147 238.000,154.411 240.455,155.194 243.379 C 155.653 245.090,156.450 247.055,156.965 247.745 C 158.854 250.277,159.000 251.428,159.000 263.800 C 159.000 276.711,158.871 277.835,157.173 279.770 C 156.520 280.513,155.780 281.725,155.529 282.461 C 154.786 284.642,153.003 286.931,151.216 288.000 C 150.296 288.550,148.835 289.571,147.970 290.269 C 143.815 293.623,126.379 293.610,122.386 290.250 C 121.770 289.731,120.035 288.988,118.533 288.598 C 115.863 287.906,112.800 286.329,112.800 285.647 C 112.800 285.458,111.713 284.833,110.384 284.257 C 108.763 283.554,107.745 282.820,107.290 282.028 C 106.909 281.364,105.963 280.592,105.124 280.263 C 104.271 279.928,103.304 279.133,102.858 278.399 C 102.430 277.696,101.515 276.776,100.824 276.356 C 100.134 275.936,99.194 274.958,98.736 274.182 C 98.278 273.406,97.409 272.515,96.804 272.202 C 96.199 271.889,95.339 270.861,94.893 269.917 C 94.448 268.972,93.569 267.823,92.940 267.361 C 92.275 266.873,91.393 265.536,90.829 264.161 C 90.297 262.863,89.282 261.116,88.574 260.279 C 87.642 259.178,87.050 257.811,86.425 255.318 C 85.950 253.426,85.210 251.431,84.780 250.884 C 83.404 249.135,82.742 246.052,82.511 240.324 L 82.290 234.849 83.566 233.573 C 85.299 231.839,90.398 232.425,92.463 234.595 C 93.100 235.264,94.315 235.784,96.260 236.221 C 100.212 237.108,101.556 238.804,101.590 242.950 C 101.596 243.582,102.211 245.472,102.957 247.150 C 103.703 248.827,104.648 251.625,105.057 253.367 C 105.703 256.119,105.963 256.630,107.042 257.272 C 107.724 257.678,108.613 258.741,109.016 259.635 C 109.514 260.740,110.233 261.507,111.266 262.034 C 112.101 262.459,113.058 263.339,113.394 263.989 C 113.839 264.848,114.468 265.293,115.703 265.618 C 117.588 266.115,120.800 267.848,120.800 268.368 C 120.800 269.580,131.483 270.454,134.813 269.514 C 138.844 268.377,138.856 245.600,134.825 245.600 C 134.629 245.600,133.783 244.666,132.945 243.525 C 132.108 242.384,130.350 240.449,129.038 239.225 C 127.727 238.001,126.192 236.527,125.627 235.950 C 125.062 235.372,123.840 234.427,122.910 233.851 C 121.981 233.274,120.918 232.342,120.549 231.778 C 120.180 231.215,119.170 230.393,118.306 229.952 C 117.442 229.511,116.434 228.622,116.067 227.976 C 115.700 227.330,114.626 226.436,113.680 225.989 C 112.668 225.511,111.632 224.621,111.163 223.828 C 110.726 223.086,109.957 222.376,109.456 222.250 C 108.441 221.995,102.400 216.346,102.400 215.652 C 102.400 215.410,101.704 214.750,100.852 214.187 C 99.959 213.596,99.004 212.495,98.592 211.582 C 98.199 210.712,97.652 210.000,97.375 210.000 C 96.664 210.000,94.800 207.686,94.800 206.803 C 94.800 206.398,94.072 205.377,93.181 204.534 C 91.923 203.341,91.377 202.377,90.729 200.200 C 90.271 198.660,89.492 196.950,88.997 196.400 C 87.190 194.391,86.902 193.158,85.830 182.868 C 84.932 174.254,86.208 163.453,88.379 161.282 C 88.997 160.664,89.892 159.396,90.368 158.463 C 91.519 156.206,94.084 153.695,96.187 152.764 C 97.126 152.349,98.130 151.725,98.418 151.378 C 100.259 149.160,107.609 148.437,118.330 149.419 M49.802 308.402 C 50.618 309.304,50.945 309.242,50.567 308.257 C 50.428 307.896,50.036 307.600,49.695 307.600 C 49.172 307.600,49.188 307.724,49.802 308.402 M270.293 342.000 C 269.916 342.440,269.746 342.800,269.915 342.800 C 270.084 342.800,270.530 342.440,270.907 342.000 C 271.284 341.560,271.454 341.200,271.285 341.200 C 271.116 341.200,270.670 341.560,270.293 342.000 M210.894 364.967 C 210.493 365.606,210.427 366.400,210.773 366.400 C 211.099 366.400,212.400 365.069,212.400 364.735 C 212.400 364.347,211.162 364.537,210.894 364.967 " stroke="none" fill="#dc2c04" fill-rule="evenodd"></path><path id="path2" d="M360.000 83.570 C 360.000 83.773,359.363 83.861,358.584 83.764 C 356.955 83.562,355.756 84.080,355.423 85.128 C 355.010 86.429,352.343 87.530,347.984 88.198 C 343.737 88.849,341.600 89.452,341.600 89.999 C 341.600 90.595,337.741 91.903,334.600 92.372 C 330.509 92.982,329.068 93.440,328.188 94.413 C 327.323 95.369,325.680 95.872,321.033 96.601 C 318.332 97.025,317.069 97.441,315.833 98.314 C 313.701 99.820,313.306 99.947,308.808 100.587 C 304.697 101.171,303.708 101.504,301.685 102.980 C 300.321 103.976,297.318 104.800,295.053 104.800 C 293.115 104.800,289.794 105.891,288.519 106.946 C 287.149 108.080,285.131 108.800,283.323 108.800 C 281.038 108.800,276.657 110.058,275.600 111.018 C 274.408 112.101,272.684 112.615,267.600 113.404 C 265.043 113.800,263.473 114.260,262.800 114.808 C 261.128 116.169,259.338 116.799,255.484 117.381 C 251.477 117.985,250.472 118.329,248.502 119.769 C 247.271 120.669,243.484 121.600,241.054 121.600 C 239.673 121.600,237.257 122.607,236.155 123.642 C 235.153 124.584,231.684 125.588,229.400 125.597 C 227.182 125.607,225.148 126.232,223.553 127.394 C 221.495 128.893,220.465 129.255,217.200 129.627 C 213.265 130.075,210.874 130.743,209.400 131.806 C 207.822 132.945,206.262 133.494,203.698 133.814 C 202.541 133.958,201.234 134.374,200.793 134.738 C 199.995 135.397,199.991 135.858,199.896 252.114 L 199.800 368.828 204.800 368.734 C 209.716 368.642,211.429 368.266,210.319 367.523 C 209.995 367.306,210.194 367.267,210.847 367.418 C 211.967 367.677,213.569 366.195,213.628 364.846 C 213.649 364.355,213.739 364.392,214.000 365.000 C 214.294 365.684,214.348 365.699,214.372 365.100 C 214.401 364.365,214.358 364.372,219.872 364.276 C 221.232 364.252,222.256 364.091,222.148 363.917 C 222.041 363.742,222.098 363.599,222.276 363.598 C 222.454 363.597,222.633 362.949,222.674 362.157 C 222.771 360.290,222.581 360.383,226.343 360.359 C 228.326 360.346,229.600 360.174,229.600 359.920 C 229.600 359.649,229.794 359.663,230.151 359.959 C 230.584 360.319,230.748 360.244,230.914 359.608 C 231.056 359.064,230.974 358.890,230.663 359.076 C 230.397 359.236,230.425 359.076,230.729 358.701 C 231.020 358.342,231.200 357.645,231.129 357.153 C 231.004 356.283,231.105 356.257,234.700 356.229 C 236.735 356.213,238.400 356.054,238.400 355.876 C 238.400 355.698,238.580 355.664,238.800 355.800 C 239.020 355.936,239.203 355.812,239.206 355.524 C 239.210 355.202,239.326 355.155,239.506 355.402 C 239.869 355.899,242.623 355.921,243.072 355.431 C 243.259 355.226,243.186 355.195,242.900 355.359 C 242.110 355.814,241.477 355.230,242.034 354.559 C 242.392 354.128,242.639 354.100,243.053 354.444 C 243.688 354.971,243.759 354.645,243.228 353.652 C 242.611 352.499,243.294 352.053,245.809 351.966 C 247.124 351.921,248.460 351.685,248.777 351.442 C 249.229 351.095,249.281 351.120,249.017 351.558 C 248.667 352.139,250.657 351.886,251.272 351.272 C 251.887 350.656,252.138 348.669,251.558 348.997 C 251.208 349.195,251.245 349.052,251.658 348.612 C 252.179 348.058,253.056 347.899,255.862 347.851 L 259.408 347.791 261.103 346.195 C 262.036 345.318,262.799 344.375,262.799 344.100 C 262.800 343.758,263.588 343.588,265.300 343.561 C 268.925 343.503,269.379 343.444,269.590 343.000 C 269.929 342.284,270.969 341.200,271.317 341.200 C 271.504 341.200,271.374 341.483,271.029 341.829 C 270.235 342.622,270.233 343.050,271.021 343.353 C 271.426 343.508,271.542 343.430,271.355 343.127 C 271.166 342.821,271.287 342.748,271.714 342.912 C 272.189 343.094,272.294 342.989,272.112 342.514 C 271.947 342.084,272.020 341.965,272.332 342.158 C 273.028 342.588,272.898 341.975,272.100 341.063 C 271.715 340.623,271.625 340.394,271.900 340.555 C 272.211 340.737,272.400 340.612,272.400 340.224 C 272.400 339.576,272.522 339.559,277.891 339.466 C 280.356 339.423,281.179 338.937,280.539 337.902 C 280.375 337.636,280.469 337.595,280.788 337.793 C 281.176 338.032,281.262 337.779,281.142 336.754 L 280.984 335.399 282.792 335.379 C 286.485 335.339,289.166 335.068,288.972 334.755 C 288.862 334.577,289.328 334.626,290.007 334.862 C 290.685 335.099,291.352 335.182,291.487 335.046 C 291.623 334.911,291.388 334.797,290.967 334.794 C 290.328 334.789,290.366 334.704,291.192 334.286 C 291.738 334.010,292.392 333.367,292.647 332.856 C 292.968 332.212,293.175 332.092,293.323 332.464 C 293.442 332.762,293.551 332.601,293.568 332.100 C 293.598 331.261,293.779 331.200,296.224 331.200 C 297.751 331.200,298.751 331.044,298.616 330.826 C 298.475 330.597,298.843 330.583,299.563 330.789 C 300.460 331.047,300.796 330.986,300.968 330.538 C 301.093 330.214,301.376 330.061,301.597 330.198 C 301.819 330.335,302.000 330.257,302.000 330.024 C 302.000 329.791,301.836 329.600,301.635 329.600 C 301.434 329.600,301.473 329.060,301.722 328.400 C 302.158 327.246,303.051 326.915,305.066 327.162 C 305.322 327.194,306.266 327.054,307.163 326.853 C 308.105 326.641,308.701 326.637,308.573 326.843 C 308.452 327.039,308.543 327.200,308.776 327.200 C 309.009 327.200,309.200 326.908,309.200 326.551 C 309.200 326.078,309.336 326.014,309.700 326.315 C 310.086 326.633,310.221 326.310,310.292 324.905 C 310.407 322.627,309.922 322.862,314.813 322.721 C 318.029 322.628,318.975 322.477,318.890 322.070 C 318.808 321.673,319.004 321.698,319.679 322.170 C 320.627 322.834,321.357 323.005,321.087 322.500 C 320.877 322.107,322.263 320.796,322.567 321.100 C 323.036 321.570,322.784 320.555,322.236 319.773 C 321.608 318.876,321.712 318.842,325.674 318.668 C 326.704 318.623,327.673 318.461,327.826 318.307 C 327.980 318.154,328.437 318.206,328.843 318.423 C 330.025 319.055,331.222 318.109,330.764 316.904 C 330.502 316.215,330.529 316.033,330.864 316.240 C 331.180 316.435,331.255 316.252,331.101 315.663 C 330.793 314.488,330.898 314.457,335.505 314.348 C 337.733 314.296,339.472 314.116,339.369 313.950 C 339.266 313.784,339.469 313.412,339.820 313.124 C 341.237 311.959,341.907 311.278,342.050 310.858 C 342.132 310.615,343.100 310.393,344.200 310.365 C 347.185 310.289,348.849 310.003,348.605 309.607 C 348.485 309.414,348.570 309.142,348.793 309.004 C 349.019 308.865,349.200 309.120,349.200 309.576 C 349.200 310.029,349.401 310.400,349.647 310.400 C 349.894 310.400,350.001 310.049,349.888 309.615 C 349.654 308.720,350.566 307.697,350.988 308.381 C 351.321 308.920,352.000 308.924,352.000 308.387 C 352.000 308.160,351.595 307.811,351.100 307.612 C 350.464 307.357,350.396 307.243,350.867 307.225 C 351.233 307.211,351.606 306.983,351.694 306.718 C 351.800 306.401,352.841 306.235,354.727 306.235 C 356.307 306.235,357.600 306.082,357.600 305.894 C 357.600 305.706,357.790 305.670,358.023 305.814 C 358.969 306.399,360.445 305.632,359.995 304.790 C 359.708 304.254,359.704 304.000,359.984 304.000 C 360.267 304.000,360.397 269.186,360.397 193.600 C 360.397 132.880,360.308 83.200,360.199 83.200 C 360.089 83.200,360.000 83.366,360.000 83.570 M333.070 133.900 L 334.101 135.000 333.878 140.600 C 333.651 146.288,332.780 151.705,331.782 153.635 C 330.995 155.156,330.494 158.814,330.006 166.600 C 329.516 174.410,328.717 179.681,327.620 182.343 C 326.738 184.481,326.131 188.944,325.788 195.800 C 325.466 202.226,324.645 207.601,323.464 211.000 C 322.366 214.162,322.182 215.519,321.594 224.800 C 321.133 232.083,320.401 236.759,319.246 239.800 C 318.378 242.088,317.747 246.871,317.400 253.800 C 317.085 260.093,316.232 265.383,315.033 268.490 C 314.500 269.870,313.824 271.701,313.532 272.557 C 312.833 274.602,311.577 275.466,308.323 276.139 C 306.292 276.559,305.343 276.996,304.392 277.946 C 303.257 279.082,302.904 279.200,300.658 279.200 C 296.266 279.200,295.855 278.539,294.966 270.044 C 294.268 263.376,294.047 262.320,292.658 259.000 C 291.976 257.369,291.513 255.190,291.214 252.200 C 290.212 242.190,289.948 240.572,288.967 238.422 C 287.887 236.056,286.990 231.355,286.598 226.000 C 286.265 221.461,285.663 218.073,285.006 217.043 C 283.942 215.375,283.171 211.689,282.571 205.400 C 281.504 194.209,280.887 194.412,279.585 206.384 C 279.087 210.958,278.945 211.589,277.783 214.402 C 276.784 216.817,276.270 220.126,275.585 228.541 C 275.114 234.337,274.377 237.961,273.352 239.529 C 272.745 240.455,272.042 245.469,271.254 254.488 C 270.960 257.850,270.498 260.185,269.620 262.743 C 268.343 266.461,267.943 268.984,267.198 278.000 C 266.884 281.799,266.460 284.230,265.765 286.200 C 265.223 287.740,264.427 290.170,263.997 291.600 C 262.968 295.023,261.771 296.094,258.031 296.938 C 255.935 297.412,254.835 297.903,253.999 298.740 C 252.828 299.910,251.349 300.400,248.983 300.400 C 246.048 300.400,245.436 299.401,244.802 293.575 C 244.291 288.870,244.050 287.783,242.623 283.750 C 241.931 281.796,241.483 279.345,241.196 275.950 C 240.415 266.701,239.927 263.414,239.007 261.200 C 237.722 258.108,237.275 255.666,236.798 249.114 C 236.263 241.787,235.749 238.602,234.770 236.556 C 233.735 234.394,232.926 229.991,232.609 224.800 C 232.237 218.691,231.638 214.844,230.741 212.800 C 229.560 210.109,228.904 206.470,228.397 199.800 C 227.911 193.394,227.364 190.374,226.029 186.704 C 223.255 179.083,223.721 170.377,226.957 169.350 C 227.414 169.205,228.431 168.570,229.217 167.938 C 231.262 166.295,239.030 164.662,240.777 165.508 C 242.095 166.146,242.980 167.795,243.357 170.311 C 243.498 171.252,244.047 173.322,244.577 174.911 C 245.682 178.224,246.245 181.932,246.593 188.200 C 246.982 195.194,247.571 199.219,248.583 201.800 C 249.747 204.764,250.250 208.017,250.782 216.000 C 251.344 224.430,251.530 225.677,252.815 229.600 C 253.973 233.134,254.567 237.136,255.040 244.570 C 255.193 246.973,255.529 249.763,255.786 250.770 L 256.253 252.600 256.723 250.737 C 256.982 249.712,257.380 246.652,257.609 243.937 C 258.148 237.554,258.639 234.846,259.833 231.673 C 260.803 229.097,261.183 226.441,261.989 216.600 C 262.430 211.217,263.029 208.265,264.096 206.200 C 264.824 204.790,265.468 200.593,265.814 195.000 C 266.199 188.778,267.081 183.459,268.148 180.920 C 269.111 178.629,269.198 178.018,270.380 165.195 C 271.309 155.122,274.424 150.922,282.134 149.350 C 286.862 148.386,288.268 149.219,289.158 153.511 C 289.399 154.673,289.860 156.025,290.182 156.516 C 291.111 157.935,291.928 162.162,292.401 168.000 C 292.959 174.893,293.456 177.792,294.434 179.844 C 295.401 181.873,296.246 186.248,296.590 191.000 C 297.040 197.214,297.631 200.893,298.433 202.464 C 299.588 204.730,300.298 208.355,300.807 214.600 C 301.246 219.982,301.807 223.941,302.185 224.318 C 302.387 224.520,305.853 222.562,306.154 222.075 C 306.533 221.461,307.191 214.911,307.607 207.600 C 308.115 198.676,308.546 195.543,309.810 191.600 C 310.824 188.432,311.409 183.568,311.804 175.000 C 312.102 168.544,313.014 162.101,313.977 159.657 C 314.804 157.555,315.448 152.754,315.808 146.000 C 316.223 138.196,316.635 137.540,321.944 136.210 C 323.405 135.844,324.968 135.201,325.418 134.780 C 327.624 132.717,331.538 132.267,333.070 133.900 M341.340 311.011 C 341.211 311.347,340.722 311.822,340.253 312.065 C 339.468 312.473,339.478 312.424,340.370 311.454 C 341.485 310.242,341.668 310.158,341.340 311.011 M78.240 320.735 C 78.113 320.941,78.261 321.318,78.569 321.574 C 78.900 321.849,79.223 321.886,79.360 321.665 C 79.487 321.459,79.339 321.082,79.031 320.826 C 78.700 320.551,78.377 320.514,78.240 320.735 M108.387 331.891 C 108.624 332.381,109.219 332.976,109.709 333.213 C 110.538 333.614,110.549 333.603,109.868 333.054 C 109.465 332.730,108.870 332.135,108.546 331.732 C 107.997 331.051,107.986 331.062,108.387 331.891 M107.600 332.352 C 107.600 332.742,109.155 334.198,109.323 333.964 C 109.387 333.874,109.026 333.401,108.520 332.914 C 108.014 332.427,107.600 332.174,107.600 332.352 M261.802 344.798 C 261.403 345.239,260.893 345.600,260.668 345.600 C 260.444 345.600,260.683 345.151,261.199 344.602 C 262.299 343.430,262.872 343.616,261.802 344.798 M212.400 364.735 C 212.400 365.069,211.099 366.400,210.773 366.400 C 210.427 366.400,210.493 365.606,210.894 364.967 C 211.162 364.537,212.400 364.347,212.400 364.735 M212.213 366.312 L 211.069 367.400 212.034 366.153 C 212.565 365.467,213.080 364.977,213.179 365.065 C 213.277 365.153,212.843 365.714,212.213 366.312 M187.970 366.123 C 189.052 367.326,188.714 367.572,187.431 366.515 C 186.642 365.864,186.643 365.877,187.456 366.759 C 188.046 367.401,188.493 367.582,188.897 367.345 C 189.369 367.067,189.242 366.810,188.241 366.023 L 187.000 365.045 187.970 366.123 " stroke="none" fill="#a42404" fill-rule="evenodd"></path><path id="path3" d="M186.300 31.476 C 185.753 31.619,185.600 32.089,185.600 33.629 L 185.600 35.600 179.649 35.600 C 172.335 35.600,169.659 36.466,169.613 38.849 C 169.602 39.406,168.825 39.523,164.100 39.677 C 157.926 39.878,157.005 40.180,156.640 42.130 L 156.386 43.482 150.708 43.763 C 144.395 44.075,144.000 44.233,144.000 46.449 L 144.000 48.000 138.574 48.000 C 132.346 48.000,131.801 48.179,131.455 50.348 L 131.203 51.925 125.386 52.062 C 118.932 52.215,118.817 52.264,118.806 54.890 L 118.800 56.379 112.700 56.490 L 106.600 56.600 106.478 58.500 L 106.356 60.400 100.611 60.400 C 93.904 60.400,91.480 61.075,90.693 63.160 C 90.163 64.563,89.155 64.789,83.389 64.796 C 78.793 64.801,77.837 65.211,77.435 67.353 L 77.178 68.725 71.374 68.863 C 65.003 69.013,64.817 69.088,64.806 71.500 L 64.800 72.800 60.900 72.840 C 54.312 72.906,52.620 73.220,52.488 74.400 C 52.151 77.405,52.612 77.200,46.206 77.200 C 40.903 77.200,40.394 77.264,40.014 77.974 C 39.487 78.959,39.474 82.275,39.995 82.597 C 40.233 82.744,40.283 82.554,40.121 82.121 C 39.905 81.545,39.966 81.486,40.425 81.825 C 41.055 82.290,41.586 82.323,42.200 81.936 C 43.008 81.426,45.404 82.836,46.361 84.383 C 47.426 86.107,49.237 86.984,52.600 87.403 C 53.700 87.540,55.225 87.735,55.988 87.838 C 56.751 87.940,59.001 88.813,60.988 89.778 C 63.610 91.051,65.304 91.602,67.169 91.785 C 68.581 91.924,69.931 92.159,70.169 92.308 C 70.406 92.456,70.831 92.613,71.114 92.655 C 71.396 92.698,72.746 93.318,74.114 94.033 C 75.739 94.883,77.763 95.521,79.958 95.876 C 82.194 96.237,84.398 96.939,86.558 97.978 C 88.459 98.892,90.710 99.645,92.000 99.796 C 93.935 100.024,95.540 100.385,97.600 101.056 C 97.930 101.164,98.200 101.210,98.200 101.158 C 98.200 101.107,99.243 101.645,100.518 102.354 C 101.935 103.143,104.032 103.861,105.918 104.203 C 109.939 104.933,110.924 105.248,113.800 106.730 C 115.120 107.410,117.010 108.051,118.000 108.155 C 120.803 108.448,123.667 109.181,125.200 109.997 C 128.081 111.531,129.071 111.886,131.800 112.361 C 136.984 113.264,138.595 113.717,139.800 114.611 C 141.173 115.629,143.561 116.474,145.600 116.664 C 148.284 116.914,150.138 117.486,153.200 119.009 C 154.630 119.721,156.790 120.435,158.000 120.597 C 160.648 120.950,162.929 121.679,166.400 123.280 C 167.830 123.939,170.170 124.644,171.600 124.847 C 174.841 125.306,176.386 125.785,179.284 127.232 C 180.540 127.859,182.880 128.661,184.484 129.015 C 189.604 130.144,190.562 130.447,192.400 131.519 C 195.867 133.540,202.494 132.975,206.132 130.348 C 208.139 128.897,209.340 128.536,214.552 127.810 C 218.176 127.306,219.069 127.040,219.889 126.220 C 220.964 125.145,223.761 124.221,227.200 123.803 C 230.384 123.417,232.329 122.856,232.687 122.221 C 233.195 121.319,236.850 120.086,240.449 119.602 C 242.623 119.309,244.292 118.836,245.200 118.253 C 247.797 116.589,249.466 116.021,253.575 115.404 C 255.974 115.043,257.920 114.537,258.276 114.181 C 259.560 112.897,262.157 111.958,265.905 111.424 C 270.287 110.799,270.735 110.652,273.055 109.076 C 274.446 108.132,281.382 106.505,284.428 106.407 C 284.553 106.403,285.245 105.874,285.965 105.231 C 287.388 103.961,289.159 103.449,294.400 102.791 C 296.730 102.499,297.989 102.146,298.400 101.670 C 299.504 100.390,302.566 99.296,306.400 98.812 C 309.235 98.454,310.568 98.082,311.649 97.347 C 313.680 95.966,316.586 94.946,319.400 94.627 C 322.117 94.319,324.400 93.684,324.400 93.237 C 324.400 92.380,328.793 90.933,333.010 90.400 C 334.955 90.155,336.595 89.706,337.212 89.252 C 339.423 87.623,341.630 86.819,345.050 86.397 C 349.925 85.795,350.293 85.673,351.238 84.346 C 352.867 82.059,359.017 80.434,360.024 82.026 C 360.268 82.411,360.390 81.868,360.394 80.380 C 360.403 77.236,360.327 77.200,353.763 77.200 L 348.087 77.200 347.740 75.300 L 347.394 73.400 345.397 73.135 C 344.299 72.989,341.555 72.854,339.300 72.835 L 335.200 72.800 335.200 71.214 C 335.200 69.011,334.594 68.800,328.277 68.800 L 322.902 68.800 322.648 67.213 C 322.317 65.141,321.596 64.801,317.526 64.797 C 311.584 64.790,310.116 64.478,309.853 63.167 C 309.434 61.071,308.090 60.624,301.709 60.459 L 295.972 60.310 294.786 59.124 C 294.134 58.472,293.600 57.592,293.600 57.169 C 293.600 56.443,293.251 56.400,287.400 56.400 L 281.200 56.400 281.200 54.590 C 281.200 52.210,280.617 52.000,274.019 52.000 L 268.891 52.000 268.626 50.235 C 268.292 48.005,268.277 48.000,261.567 48.000 L 256.000 48.000 256.000 46.224 C 256.000 43.948,256.270 44.051,249.508 43.744 L 243.729 43.482 243.364 41.843 C 242.922 39.855,242.208 39.658,235.300 39.623 C 230.829 39.600,230.800 39.594,230.800 38.644 C 230.800 36.189,229.852 35.821,223.138 35.667 L 217.000 35.527 215.700 34.285 C 214.985 33.602,214.400 32.738,214.400 32.364 C 214.400 31.991,214.115 31.576,213.767 31.443 C 213.045 31.166,187.368 31.197,186.300 31.476 M39.680 303.773 C 39.680 304.558,39.845 305.200,40.046 305.200 C 40.247 305.200,40.309 304.620,40.185 303.912 C 39.871 302.133,39.680 302.081,39.680 303.773 M44.300 306.282 C 44.795 306.378,45.605 306.378,46.100 306.282 C 46.595 306.187,46.190 306.109,45.200 306.109 C 44.210 306.109,43.805 306.187,44.300 306.282 M48.173 307.900 C 48.606 309.577,48.789 309.798,49.732 309.784 C 50.319 309.776,50.800 309.911,50.800 310.084 C 50.800 310.258,51.441 310.400,52.224 310.400 C 53.095 310.400,53.549 310.241,53.393 309.989 C 53.254 309.764,52.838 309.629,52.470 309.689 C 52.047 309.759,51.579 309.324,51.200 308.509 C 50.852 307.759,50.296 307.214,49.876 307.209 C 49.432 307.203,49.263 307.022,49.438 306.738 C 49.609 306.463,49.549 306.385,49.289 306.545 C 49.051 306.692,48.742 306.630,48.604 306.407 C 47.964 305.371,47.730 306.182,48.173 307.900 M354.100 306.276 C 354.485 306.376,355.115 306.376,355.500 306.276 C 355.885 306.175,355.570 306.093,354.800 306.093 C 354.030 306.093,353.715 306.175,354.100 306.276 M50.400 307.767 C 50.400 307.859,50.521 308.264,50.668 308.667 C 50.918 309.351,50.884 309.356,50.168 308.752 C 49.746 308.396,49.130 308.005,48.800 307.884 C 48.460 307.759,48.677 307.649,49.300 307.632 C 49.905 307.614,50.400 307.675,50.400 307.767 M350.871 308.800 C 350.942 309.130,350.775 309.355,350.500 309.300 C 350.225 309.245,350.000 309.380,350.000 309.600 C 350.000 310.138,351.084 310.111,351.422 309.565 C 351.569 309.326,351.477 308.921,351.217 308.665 C 350.855 308.310,350.773 308.342,350.871 308.800 M57.661 311.375 C 58.308 312.795,62.000 314.999,62.000 313.965 C 62.000 313.764,61.820 313.600,61.600 313.600 C 61.380 313.600,61.200 313.270,61.200 312.867 C 61.200 312.463,61.065 311.998,60.900 311.833 C 60.735 311.668,60.600 311.323,60.600 311.067 C 60.600 310.804,59.858 310.546,58.898 310.477 C 57.205 310.354,57.199 310.359,57.661 311.375 M340.370 311.454 C 339.478 312.424,339.468 312.473,340.253 312.065 C 340.722 311.822,341.211 311.347,341.340 311.011 C 341.668 310.158,341.485 310.242,340.370 311.454 M341.689 311.365 C 341.447 311.896,340.922 312.434,340.523 312.561 C 340.124 312.687,339.578 313.144,339.308 313.575 C 338.826 314.348,338.843 314.349,340.493 313.648 C 341.664 313.151,342.322 312.556,342.685 311.669 C 343.330 310.087,342.400 309.804,341.689 311.365 M68.874 315.900 C 68.847 317.854,69.359 318.801,70.063 318.097 C 70.672 317.488,71.200 317.454,71.200 318.024 C 71.200 318.257,71.020 318.336,70.800 318.200 C 70.580 318.064,70.400 318.147,70.400 318.384 C 70.400 318.644,71.199 318.786,72.420 318.743 C 73.531 318.704,74.245 318.551,74.006 318.404 C 73.768 318.256,73.188 318.164,72.717 318.199 C 72.247 318.233,71.526 317.926,71.116 317.516 C 70.706 317.106,70.197 316.878,69.985 317.009 C 69.773 317.140,69.587 317.102,69.570 316.924 C 69.497 316.129,69.169 314.636,69.038 314.505 C 68.959 314.426,68.885 315.054,68.874 315.900 M77.387 320.300 C 77.754 322.301,77.909 322.413,80.643 322.655 C 82.300 322.802,82.828 322.744,82.419 322.459 C 82.100 322.235,81.690 322.144,81.509 322.256 C 81.328 322.368,81.206 322.311,81.237 322.130 C 81.392 321.238,81.140 321.122,80.573 321.824 C 79.975 322.564,79.955 322.544,80.157 321.400 C 80.273 320.740,80.268 320.433,80.145 320.717 C 79.970 321.122,79.797 321.129,79.342 320.752 C 78.874 320.363,78.862 320.204,79.281 319.923 C 79.600 319.710,79.337 319.668,78.600 319.815 C 77.458 320.043,77.438 320.024,78.176 319.427 C 78.935 318.814,78.932 318.800,78.032 318.800 C 77.185 318.800,77.133 318.921,77.387 320.300 M79.360 321.665 C 79.223 321.886,78.900 321.849,78.569 321.574 C 78.261 321.318,78.113 320.941,78.240 320.735 C 78.377 320.514,78.700 320.551,79.031 320.826 C 79.339 321.082,79.487 321.459,79.360 321.665 M321.500 321.667 C 320.908 322.287,320.894 322.400,321.413 322.400 C 321.749 322.400,322.132 322.122,322.262 321.783 C 322.609 320.879,322.298 320.831,321.500 321.667 M310.318 323.979 C 310.138 325.203,310.370 325.219,311.700 324.077 C 312.665 323.248,312.576 322.800,311.445 322.800 C 310.694 322.800,310.454 323.051,310.318 323.979 M89.713 324.962 C 89.807 326.646,89.902 326.707,93.000 327.063 C 94.037 327.182,94.414 327.119,94.071 326.882 C 93.779 326.681,93.113 326.564,92.589 326.621 C 92.065 326.679,91.428 326.474,91.173 326.167 C 90.918 325.860,90.530 325.719,90.312 325.854 C 90.076 326.000,90.009 325.795,90.148 325.350 C 90.277 324.938,90.212 324.330,90.004 324.000 C 89.735 323.573,89.651 323.850,89.713 324.962 M98.006 328.700 C 98.016 330.483,98.565 330.949,100.779 331.051 C 102.050 331.109,102.720 330.995,102.566 330.746 C 102.431 330.526,102.224 330.442,102.107 330.559 C 101.990 330.676,101.537 330.580,101.099 330.346 C 100.466 330.007,100.366 330.031,100.610 330.460 C 100.862 330.903,100.818 330.907,100.362 330.483 C 99.963 330.113,99.934 329.887,100.259 329.683 C 100.587 329.478,100.566 329.265,100.185 328.912 C 99.771 328.527,99.621 328.527,99.479 328.912 C 99.344 329.280,99.165 329.263,98.750 328.841 C 98.283 328.367,98.290 328.333,98.800 328.618 C 99.317 328.907,99.324 328.860,98.851 328.277 C 98.109 327.362,97.999 327.417,98.006 328.700 M106.800 332.289 C 106.800 333.442,108.125 334.790,109.300 334.833 C 109.795 334.851,110.740 334.934,111.400 335.016 C 112.559 335.162,112.552 335.149,111.200 334.648 C 109.745 334.108,109.558 333.726,110.466 333.151 C 110.831 332.920,110.849 332.810,110.523 332.806 C 110.261 332.803,110.108 332.480,110.183 332.089 C 110.297 331.494,110.031 331.378,108.560 331.378 C 106.995 331.378,106.800 331.479,106.800 332.289 M109.194 332.076 C 109.197 331.788,109.399 331.676,109.643 331.826 C 109.951 332.017,109.921 332.204,109.543 332.444 C 109.092 332.729,109.096 332.789,109.567 332.794 C 109.878 332.797,110.018 332.916,109.876 333.057 C 109.547 333.387,108.398 332.444,108.406 331.851 C 108.409 331.603,108.587 331.670,108.800 332.000 C 109.082 332.436,109.189 332.457,109.194 332.076 M109.323 333.964 C 109.155 334.198,107.600 332.742,107.600 332.352 C 107.600 332.174,108.014 332.427,108.520 332.914 C 109.026 333.401,109.387 333.874,109.323 333.964 M292.846 332.438 C 292.787 333.252,291.731 334.172,290.200 334.743 L 289.000 335.191 290.400 334.956 C 292.111 334.670,293.346 333.564,293.085 332.550 C 292.943 331.995,292.881 331.966,292.846 332.438 M118.880 337.407 C 118.880 339.065,119.517 339.525,121.800 339.511 C 122.952 339.504,123.176 339.419,122.600 339.206 C 122.160 339.044,121.545 339.006,121.234 339.123 C 120.875 339.258,120.774 339.165,120.958 338.868 C 121.207 338.464,120.576 338.221,119.566 338.331 C 119.437 338.345,119.363 337.826,119.401 337.178 C 119.440 336.530,119.338 336.000,119.176 336.000 C 119.013 336.000,118.880 336.633,118.880 337.407 M127.255 340.883 C 127.724 343.020,128.488 343.618,130.642 343.537 C 132.054 343.483,132.242 343.385,131.794 342.936 C 131.136 342.279,130.648 342.231,131.038 342.862 C 131.221 343.157,131.147 343.215,130.835 343.021 C 130.566 342.855,130.452 342.442,130.582 342.103 C 130.770 341.612,130.704 341.582,130.256 341.954 C 129.815 342.319,129.639 342.278,129.442 341.765 C 129.271 341.319,128.904 341.181,128.295 341.335 C 127.430 341.553,127.426 341.541,128.176 340.980 C 128.604 340.661,128.728 340.400,128.453 340.400 C 128.166 340.400,128.075 340.187,128.241 339.900 C 128.399 339.625,128.381 339.533,128.201 339.697 C 128.021 339.860,127.649 339.807,127.376 339.580 C 126.982 339.253,126.957 339.527,127.255 340.883 M272.284 340.400 C 272.169 340.839,272.238 341.300,272.438 341.423 C 272.637 341.546,272.800 341.187,272.800 340.624 C 272.800 339.398,272.572 339.299,272.284 340.400 M271.659 342.667 C 271.361 342.990,270.872 343.160,270.572 343.045 C 270.271 342.929,269.919 343.007,269.789 343.217 C 269.424 343.808,270.952 343.669,271.823 343.033 C 272.250 342.721,272.509 342.379,272.399 342.273 C 272.290 342.167,271.957 342.345,271.659 342.667 M136.400 344.031 C 136.400 344.425,137.730 345.813,139.368 347.127 C 140.235 347.823,143.029 348.294,142.649 347.680 C 142.498 347.435,142.110 347.336,141.787 347.460 C 141.464 347.584,141.200 347.492,141.200 347.255 C 141.200 347.019,140.930 346.929,140.600 347.055 C 139.990 347.289,139.906 347.013,139.877 344.700 C 139.865 343.671,139.751 343.600,138.132 343.600 C 137.161 343.600,136.400 343.789,136.400 344.031 M261.199 344.602 C 260.683 345.151,260.444 345.600,260.668 345.600 C 261.179 345.600,262.598 344.065,262.332 343.799 C 262.225 343.691,261.714 344.052,261.199 344.602 M262.800 344.188 C 262.800 344.511,262.269 345.169,261.619 345.649 C 259.939 346.891,259.717 347.657,261.185 347.145 C 263.074 346.487,264.899 343.600,263.427 343.600 C 263.082 343.600,262.800 343.865,262.800 344.188 M148.000 350.320 C 148.000 350.716,148.216 351.256,148.480 351.520 C 149.156 352.196,150.400 352.118,150.400 351.400 C 150.400 351.070,150.130 350.800,149.800 350.800 C 149.470 350.800,149.200 350.530,149.200 350.200 C 149.200 349.870,148.930 349.600,148.600 349.600 C 148.270 349.600,148.000 349.924,148.000 350.320 M251.632 350.513 C 251.614 350.905,251.195 351.389,250.700 351.588 C 250.091 351.832,250.010 351.957,250.451 351.975 C 251.274 352.007,252.141 350.990,251.869 350.313 C 251.742 349.996,251.651 350.072,251.632 350.513 M156.539 353.499 C 156.866 355.517,160.800 357.435,160.800 355.576 C 160.800 355.343,160.620 355.264,160.400 355.400 C 160.179 355.537,159.994 355.235,159.986 354.724 L 159.972 353.800 159.400 354.800 C 159.086 355.350,158.822 355.588,158.814 355.329 C 158.806 355.069,158.517 354.574,158.171 354.229 C 157.826 353.883,157.727 353.600,157.952 353.600 C 158.176 353.600,158.544 353.915,158.768 354.300 C 158.992 354.685,159.181 354.797,159.188 354.549 C 159.207 353.839,158.074 353.086,157.384 353.351 C 157.024 353.489,156.862 353.423,157.003 353.195 C 157.137 352.978,157.552 352.787,157.924 352.772 C 158.475 352.749,158.452 352.680,157.800 352.400 C 156.441 351.816,156.287 351.950,156.539 353.499 M243.080 352.536 C 242.967 352.831,243.035 353.326,243.231 353.636 C 243.491 354.047,243.589 353.901,243.594 353.100 C 243.601 351.906,243.404 351.690,243.080 352.536 M242.014 354.583 C 241.732 354.922,241.659 355.218,241.851 355.240 C 242.043 355.262,241.750 355.424,241.200 355.600 C 240.338 355.876,240.314 355.926,241.024 355.960 C 242.214 356.018,243.519 354.975,242.963 354.410 C 242.644 354.085,242.388 354.132,242.014 354.583 M162.905 356.287 C 163.514 356.379,164.414 356.377,164.905 356.282 C 165.397 356.187,164.900 356.111,163.800 356.114 C 162.700 356.117,162.297 356.195,162.905 356.287 M166.400 356.156 C 166.400 356.242,167.017 356.385,167.772 356.473 C 168.527 356.561,169.056 356.490,168.948 356.316 C 168.755 356.003,166.400 355.855,166.400 356.156 M231.113 357.501 L 230.960 358.801 232.376 357.501 C 233.154 356.785,233.837 356.187,233.892 356.170 C 233.948 356.154,233.380 356.154,232.630 356.170 C 231.397 356.197,231.252 356.325,231.113 357.501 M235.700 356.276 C 236.085 356.376,236.715 356.376,237.100 356.276 C 237.485 356.175,237.170 356.093,236.400 356.093 C 235.630 356.093,235.315 356.175,235.700 356.276 M168.923 358.400 C 168.953 359.996,170.667 361.410,170.667 359.838 C 170.667 359.529,170.463 359.354,170.215 359.450 C 169.966 359.545,169.569 359.123,169.333 358.512 C 168.907 357.408,168.904 357.408,168.923 358.400 M177.200 361.997 C 177.200 363.671,177.897 364.351,179.590 364.328 C 181.018 364.308,181.137 364.230,180.775 363.553 C 180.336 362.734,179.582 362.578,178.977 363.183 C 178.736 363.424,178.372 363.427,177.997 363.189 C 177.496 362.873,177.517 362.811,178.129 362.806 C 179.069 362.798,178.865 361.462,177.895 361.275 C 177.410 361.182,177.200 361.400,177.200 361.997 M185.742 365.102 C 185.849 365.486,186.056 366.215,186.202 366.723 C 186.600 368.102,189.467 369.043,189.467 367.794 C 189.467 367.411,189.222 367.266,188.800 367.400 C 188.406 367.525,187.821 367.242,187.367 366.706 L 186.600 365.800 187.502 366.564 C 188.617 367.508,189.102 367.197,188.029 366.227 C 187.603 365.841,187.336 365.311,187.436 365.050 C 187.543 364.771,187.193 364.541,186.583 364.490 C 185.771 364.423,185.590 364.555,185.742 365.102 M188.085 364.875 C 187.719 365.241,187.761 365.515,188.267 366.075 C 189.130 367.028,189.625 366.995,189.472 365.995 C 189.292 364.818,188.656 364.304,188.085 364.875 M213.600 364.946 C 213.600 365.904,211.935 367.676,211.212 367.487 C 210.808 367.381,210.533 367.541,210.533 367.882 C 210.533 368.695,212.409 368.191,213.300 367.139 C 213.931 366.393,214.295 364.400,213.800 364.400 C 213.690 364.400,213.600 364.646,213.600 364.946 M189.046 365.834 C 189.117 366.316,189.017 366.346,188.572 365.977 C 188.262 365.720,188.115 365.338,188.244 365.128 C 188.532 364.662,188.925 365.008,189.046 365.834 M212.034 366.153 L 211.069 367.400 212.213 366.312 C 212.843 365.714,213.277 365.153,213.179 365.065 C 213.080 364.977,212.565 365.467,212.034 366.153 " stroke="none" fill="#fc3c04" fill-rule="evenodd"></path><path id="path4" d="M327.818 133.436 C 326.948 133.754,325.868 134.359,325.418 134.780 C 324.968 135.201,323.405 135.844,321.944 136.210 C 316.635 137.540,316.223 138.196,315.808 146.000 C 315.448 152.754,314.804 157.555,313.977 159.657 C 313.014 162.101,312.102 168.544,311.804 175.000 C 311.409 183.568,310.824 188.432,309.810 191.600 C 308.546 195.543,308.115 198.676,307.607 207.600 C 307.191 214.911,306.533 221.461,306.154 222.075 C 305.853 222.562,302.387 224.520,302.185 224.318 C 301.807 223.941,301.246 219.982,300.807 214.600 C 300.298 208.355,299.588 204.730,298.433 202.464 C 297.631 200.893,297.040 197.214,296.590 191.000 C 296.246 186.248,295.401 181.873,294.434 179.844 C 293.456 177.792,292.959 174.893,292.401 168.000 C 291.928 162.162,291.111 157.935,290.182 156.516 C 289.860 156.025,289.399 154.673,289.158 153.511 C 288.268 149.219,286.862 148.386,282.134 149.350 C 274.424 150.922,271.309 155.122,270.380 165.195 C 269.198 178.018,269.111 178.629,268.148 180.920 C 267.081 183.459,266.199 188.778,265.814 195.000 C 265.468 200.593,264.824 204.790,264.096 206.200 C 263.029 208.265,262.430 211.217,261.989 216.600 C 261.183 226.441,260.803 229.097,259.833 231.673 C 258.639 234.846,258.148 237.554,257.609 243.937 C 257.380 246.652,256.982 249.712,256.723 250.737 L 256.253 252.600 255.786 250.770 C 255.529 249.763,255.193 246.973,255.040 244.570 C 254.567 237.136,253.973 233.134,252.815 229.600 C 251.530 225.677,251.344 224.430,250.782 216.000 C 250.250 208.017,249.747 204.764,248.583 201.800 C 247.571 199.219,246.982 195.194,246.593 188.200 C 246.245 181.932,245.682 178.224,244.577 174.911 C 244.047 173.322,243.498 171.252,243.357 170.311 C 242.980 167.795,242.095 166.146,240.777 165.508 C 239.030 164.662,231.262 166.295,229.217 167.938 C 228.431 168.570,227.414 169.205,226.957 169.350 C 223.721 170.377,223.255 179.083,226.029 186.704 C 227.364 190.374,227.911 193.394,228.397 199.800 C 228.904 206.470,229.560 210.109,230.741 212.800 C 231.638 214.844,232.237 218.691,232.609 224.800 C 232.926 229.991,233.735 234.394,234.770 236.556 C 235.749 238.602,236.263 241.787,236.798 249.114 C 237.275 255.666,237.722 258.108,239.007 261.200 C 239.927 263.414,240.415 266.701,241.196 275.950 C 241.483 279.345,241.931 281.796,242.623 283.750 C 244.050 287.783,244.291 288.870,244.802 293.575 C 245.436 299.401,246.048 300.400,248.983 300.400 C 251.349 300.400,252.828 299.910,253.999 298.740 C 254.835 297.903,255.935 297.412,258.031 296.938 C 261.771 296.094,262.968 295.023,263.997 291.600 C 264.427 290.170,265.223 287.740,265.765 286.200 C 266.460 284.230,266.884 281.799,267.198 278.000 C 267.943 268.984,268.343 266.461,269.620 262.743 C 270.498 260.185,270.960 257.850,271.254 254.488 C 272.042 245.469,272.745 240.455,273.352 239.529 C 274.377 237.961,275.114 234.337,275.585 228.541 C 276.270 220.126,276.784 216.817,277.783 214.402 C 278.945 211.589,279.087 210.958,279.585 206.384 C 280.887 194.412,281.504 194.209,282.571 205.400 C 283.171 211.689,283.942 215.375,285.006 217.043 C 285.663 218.073,286.265 221.461,286.598 226.000 C 286.990 231.355,287.887 236.056,288.967 238.422 C 289.948 240.572,290.212 242.190,291.214 252.200 C 291.513 255.190,291.976 257.369,292.658 259.000 C 294.047 262.320,294.268 263.376,294.966 270.044 C 295.855 278.539,296.266 279.200,300.658 279.200 C 302.904 279.200,303.257 279.082,304.392 277.946 C 305.343 276.996,306.292 276.559,308.323 276.139 C 311.577 275.466,312.833 274.602,313.532 272.557 C 313.824 271.701,314.500 269.870,315.033 268.490 C 316.232 265.383,317.085 260.093,317.400 253.800 C 317.747 246.871,318.378 242.088,319.246 239.800 C 320.401 236.759,321.133 232.083,321.594 224.800 C 322.182 215.519,322.366 214.162,323.464 211.000 C 324.645 207.601,325.466 202.226,325.788 195.800 C 326.131 188.944,326.738 184.481,327.620 182.343 C 328.717 179.681,329.516 174.410,330.006 166.600 C 330.494 158.814,330.995 155.156,331.782 153.635 C 332.780 151.705,333.651 146.288,333.878 140.600 L 334.101 135.000 333.070 133.900 C 331.888 132.640,330.360 132.505,327.818 133.436 M331.595 138.124 C 331.592 139.266,331.161 141.550,330.637 143.200 C 329.573 146.549,329.002 150.622,328.392 159.200 C 327.905 166.067,327.416 169.386,326.608 171.320 C 325.684 173.529,324.896 178.791,324.409 186.000 C 323.875 193.903,323.434 197.005,322.392 200.200 C 321.206 203.838,320.833 206.299,320.199 214.692 C 319.537 223.459,319.056 226.890,318.204 228.929 C 317.309 231.070,316.482 236.640,315.994 243.800 C 315.465 251.567,315.015 254.688,313.993 257.682 C 313.564 258.937,313.019 261.277,312.782 262.882 C 311.309 272.831,311.279 272.902,308.137 273.761 C 306.852 274.112,304.846 274.681,303.681 275.026 C 299.184 276.356,297.563 274.283,296.779 266.200 C 296.110 259.295,295.271 254.509,294.424 252.756 C 293.394 250.623,292.949 248.240,292.198 240.829 C 291.766 236.569,291.262 233.783,290.571 231.829 C 289.038 227.498,288.861 226.636,288.222 220.386 C 287.535 213.662,286.980 210.761,286.005 208.800 C 285.249 207.280,284.629 204.174,283.987 198.695 C 283.552 194.981,283.226 193.822,282.160 192.195 C 280.827 190.161,279.339 192.949,278.013 199.969 C 277.538 202.481,276.906 205.008,276.609 205.583 C 275.759 207.227,274.879 212.132,274.418 217.800 C 273.875 224.469,273.275 228.158,272.402 230.196 C 271.337 232.679,270.847 235.461,270.192 242.739 C 269.542 249.964,268.999 253.233,268.188 254.815 C 267.331 256.486,266.478 261.444,265.988 267.600 C 265.500 273.733,264.941 276.808,263.660 280.400 C 263.229 281.610,262.614 284.400,262.293 286.600 C 261.462 292.309,260.761 293.591,258.000 294.456 C 255.386 295.274,248.311 297.206,247.940 297.203 C 247.475 297.198,246.838 293.513,246.392 288.251 C 245.863 282.021,245.366 279.179,244.391 276.800 C 243.360 274.288,242.912 271.784,242.420 265.786 C 241.765 257.811,241.182 254.366,240.136 252.300 C 239.313 250.673,238.831 247.758,238.178 240.446 C 237.578 233.726,236.825 229.597,235.853 227.684 C 235.114 226.231,234.520 222.519,233.982 216.000 C 233.472 209.808,232.706 205.355,231.870 203.728 C 230.994 202.022,230.463 198.885,229.790 191.447 C 229.142 184.277,228.753 182.016,227.766 179.664 C 225.490 174.243,225.848 172.098,229.171 171.246 C 230.264 170.966,231.993 170.184,233.014 169.508 C 238.610 165.801,240.764 166.728,241.258 173.054 C 241.668 178.301,242.221 181.471,243.197 184.162 C 244.168 186.838,244.704 190.478,245.207 197.800 C 245.648 204.224,246.510 209.732,247.412 211.891 C 248.266 213.935,248.723 217.092,249.399 225.614 C 249.965 232.746,250.454 235.573,252.132 241.416 C 252.451 242.525,252.923 245.405,253.182 247.816 C 254.662 261.589,257.577 261.801,259.399 248.269 C 259.750 245.666,260.380 242.667,260.799 241.603 C 261.844 238.951,262.687 234.026,263.195 227.600 C 263.698 221.248,264.209 217.984,265.035 215.847 C 266.109 213.071,266.755 209.506,267.184 204.000 C 267.773 196.426,268.378 192.580,269.418 189.800 C 270.395 187.191,271.046 183.319,271.405 178.000 C 271.808 172.012,272.478 167.887,273.613 164.400 C 274.221 162.530,274.843 159.892,274.995 158.537 C 275.300 155.810,276.118 154.709,278.200 154.227 C 278.860 154.074,280.030 153.518,280.800 152.991 C 285.148 150.015,286.557 150.516,286.996 155.200 C 287.362 159.101,288.242 163.335,288.987 164.775 C 289.896 166.532,290.322 168.907,291.000 176.000 C 291.688 183.195,292.061 185.231,293.192 187.962 C 294.186 190.360,294.660 193.048,295.213 199.400 C 295.695 204.942,296.555 209.529,297.438 211.259 C 298.303 212.955,298.739 215.460,299.387 222.447 C 300.309 232.396,301.094 234.765,303.727 235.542 C 304.647 235.814,305.615 236.130,305.877 236.244 C 307.081 236.767,308.172 230.472,309.005 218.204 C 309.598 209.465,310.007 206.626,311.394 201.616 C 312.183 198.765,312.666 194.588,313.200 186.000 C 313.713 177.730,314.158 174.520,315.390 170.200 C 316.308 166.977,316.962 161.518,317.402 153.400 C 318.111 140.316,318.995 138.790,326.597 137.534 C 328.407 137.235,330.055 136.729,330.397 136.367 C 331.306 135.402,331.601 135.834,331.595 138.124 M105.400 149.183 C 101.414 149.426,99.553 150.011,98.418 151.378 C 98.130 151.725,97.126 152.349,96.187 152.764 C 94.084 153.695,91.519 156.206,90.368 158.463 C 89.892 159.396,88.997 160.664,88.379 161.282 C 86.208 163.453,84.932 174.254,85.830 182.868 C 86.902 193.158,87.190 194.391,88.997 196.400 C 89.492 196.950,90.271 198.660,90.729 200.200 C 91.377 202.377,91.923 203.341,93.181 204.534 C 94.072 205.377,94.800 206.398,94.800 206.803 C 94.800 207.686,96.664 210.000,97.375 210.000 C 97.652 210.000,98.199 210.712,98.592 211.582 C 99.004 212.495,99.959 213.596,100.852 214.187 C 101.704 214.750,102.400 215.410,102.400 215.652 C 102.400 216.346,108.441 221.995,109.456 222.250 C 109.957 222.376,110.726 223.086,111.163 223.828 C 111.632 224.621,112.668 225.511,113.680 225.989 C 114.626 226.436,115.700 227.330,116.067 227.976 C 116.434 228.622,117.442 229.511,118.306 229.952 C 119.170 230.393,120.180 231.215,120.549 231.778 C 120.918 232.342,121.981 233.274,122.910 233.851 C 123.840 234.427,125.062 235.372,125.627 235.950 C 126.192 236.527,127.727 238.001,129.038 239.225 C 130.350 240.449,132.108 242.384,132.945 243.525 C 133.783 244.666,134.629 245.600,134.825 245.600 C 138.856 245.600,138.844 268.377,134.813 269.514 C 131.483 270.454,120.800 269.580,120.800 268.368 C 120.800 267.848,117.588 266.115,115.703 265.618 C 114.468 265.293,113.839 264.848,113.394 263.989 C 113.058 263.339,112.101 262.459,111.266 262.034 C 110.233 261.507,109.514 260.740,109.016 259.635 C 108.613 258.741,107.724 257.678,107.042 257.272 C 105.963 256.630,105.703 256.119,105.057 253.367 C 104.648 251.625,103.703 248.827,102.957 247.150 C 102.211 245.472,101.596 243.582,101.590 242.950 C 101.556 238.804,100.212 237.108,96.260 236.221 C 94.315 235.784,93.100 235.264,92.463 234.595 C 90.398 232.425,85.299 231.839,83.566 233.573 L 82.290 234.849 82.511 240.324 C 82.742 246.052,83.404 249.135,84.780 250.884 C 85.210 251.431,85.950 253.426,86.425 255.318 C 87.050 257.811,87.642 259.178,88.574 260.279 C 89.282 261.116,90.292 262.851,90.819 264.136 C 91.381 265.505,92.243 266.804,92.905 267.274 C 93.525 267.716,94.408 268.877,94.868 269.855 C 95.338 270.854,96.186 271.882,96.804 272.202 C 97.409 272.515,98.278 273.406,98.736 274.182 C 99.194 274.958,100.134 275.936,100.824 276.356 C 101.515 276.776,102.430 277.696,102.858 278.399 C 103.304 279.133,104.271 279.928,105.124 280.263 C 105.963 280.592,106.909 281.364,107.290 282.028 C 107.745 282.820,108.763 283.554,110.384 284.257 C 111.713 284.833,112.800 285.458,112.800 285.647 C 112.800 286.329,115.863 287.906,118.533 288.598 C 120.035 288.988,121.770 289.731,122.386 290.250 C 126.379 293.610,143.815 293.623,147.970 290.269 C 148.835 289.571,150.296 288.550,151.216 288.000 C 153.003 286.931,154.786 284.642,155.529 282.461 C 155.780 281.725,156.520 280.513,157.173 279.770 C 158.871 277.835,159.000 276.711,159.000 263.800 C 159.000 251.428,158.854 250.277,156.965 247.745 C 156.450 247.055,155.653 245.090,155.194 243.379 C 154.411 240.455,153.147 238.000,152.425 238.000 C 152.249 238.000,151.642 236.934,151.077 235.630 C 150.474 234.241,149.542 232.885,148.823 232.354 C 148.149 231.856,147.242 230.713,146.807 229.815 C 146.373 228.917,145.473 227.861,144.808 227.469 C 144.144 227.076,143.600 226.571,143.600 226.345 C 143.600 225.668,137.489 219.651,136.302 219.160 C 135.696 218.908,135.200 218.488,135.200 218.226 C 135.200 217.577,133.198 215.750,132.136 215.429 C 131.660 215.286,130.781 214.527,130.183 213.742 C 129.584 212.957,128.493 212.064,127.759 211.757 C 127.024 211.450,126.021 210.654,125.528 209.989 C 125.036 209.323,123.906 208.346,123.017 207.817 C 122.128 207.288,120.500 206.016,119.400 204.991 C 118.300 203.967,116.934 202.885,116.365 202.588 C 115.796 202.290,114.811 201.366,114.176 200.532 C 113.540 199.699,112.400 198.474,111.641 197.809 C 110.882 197.144,109.760 195.495,109.147 194.145 C 108.535 192.796,107.566 191.350,106.995 190.934 C 105.615 189.929,105.221 188.031,105.210 182.326 C 105.190 172.998,108.489 170.454,119.059 171.644 C 122.987 172.086,123.453 172.230,124.768 173.409 C 125.556 174.116,127.239 175.277,128.508 175.990 C 130.352 177.025,131.178 177.844,132.608 180.055 C 133.594 181.579,134.654 182.922,134.963 183.041 C 135.821 183.371,136.302 184.942,137.185 190.308 C 138.382 197.587,139.805 199.978,143.581 201.061 C 144.802 201.411,146.790 202.298,148.000 203.032 C 149.434 203.902,151.105 204.511,152.800 204.781 C 156.504 205.369,156.726 205.336,158.089 203.973 L 159.317 202.745 159.078 197.273 C 158.811 191.159,158.420 189.360,156.989 187.660 C 156.381 186.937,155.782 185.416,155.410 183.648 C 154.645 180.011,153.871 178.173,152.882 177.644 C 152.428 177.401,151.699 176.097,151.154 174.555 C 150.466 172.607,149.825 171.576,148.780 170.735 C 147.992 170.102,147.025 168.853,146.630 167.960 C 146.236 167.067,145.396 166.021,144.763 165.636 C 144.130 165.251,143.201 164.320,142.698 163.568 C 142.195 162.816,141.181 161.897,140.444 161.527 C 139.707 161.157,138.764 160.295,138.348 159.611 C 137.909 158.889,136.873 158.060,135.876 157.633 C 134.932 157.228,133.469 156.245,132.624 155.449 C 131.743 154.618,130.389 153.830,129.445 153.600 C 126.455 152.872,125.010 152.313,124.195 151.571 C 121.877 149.462,115.060 148.595,105.400 149.183 M116.200 151.354 C 117.520 151.644,119.244 152.267,120.031 152.739 C 120.818 153.211,122.839 153.950,124.523 154.380 C 127.921 155.249,128.880 155.680,130.070 156.870 C 130.515 157.315,132.017 158.212,133.409 158.863 C 134.800 159.514,136.227 160.487,136.579 161.025 C 136.932 161.563,137.914 162.441,138.762 162.976 C 139.610 163.511,140.702 164.595,141.190 165.384 C 141.678 166.174,142.599 167.089,143.237 167.419 C 143.889 167.756,144.663 168.655,145.004 169.470 C 145.337 170.268,146.303 171.674,147.151 172.593 C 147.999 173.513,149.089 175.330,149.574 176.632 C 150.059 177.935,150.882 179.450,151.402 180.000 C 152.550 181.212,153.069 182.525,153.828 186.132 C 154.146 187.645,154.966 190.259,155.649 191.941 C 157.124 195.573,157.757 201.840,156.734 202.689 C 155.985 203.311,153.123 202.607,151.160 201.318 C 150.368 200.798,148.298 200.090,146.560 199.744 C 142.476 198.932,142.187 198.614,141.232 193.860 C 140.796 191.693,140.185 189.531,139.873 189.055 C 139.562 188.580,138.839 186.658,138.267 184.784 C 137.522 182.340,136.880 181.043,135.998 180.198 C 135.321 179.549,134.238 178.195,133.592 177.188 C 132.946 176.180,131.828 175.075,131.108 174.731 C 130.389 174.388,129.031 173.463,128.091 172.677 C 126.121 171.030,126.208 171.063,119.600 169.433 C 114.994 168.297,114.458 168.242,112.800 168.727 C 104.566 171.140,103.434 172.862,103.413 183.000 C 103.399 189.373,103.991 192.186,105.578 193.301 C 105.969 193.575,106.851 194.913,107.537 196.274 C 108.263 197.713,109.401 199.218,110.257 199.871 C 111.067 200.489,112.018 201.469,112.371 202.049 C 112.724 202.629,113.910 203.786,115.006 204.619 C 116.103 205.452,117.223 206.446,117.496 206.828 C 117.768 207.210,119.118 208.249,120.496 209.136 C 121.873 210.023,123.450 211.238,124.000 211.836 C 124.550 212.434,125.556 213.156,126.236 213.440 C 126.916 213.725,127.951 214.585,128.536 215.352 C 129.121 216.119,130.005 216.869,130.500 217.019 C 131.383 217.287,132.267 218.091,138.503 224.307 C 144.089 229.875,145.102 230.985,145.716 232.200 C 146.049 232.860,146.880 233.810,147.561 234.312 C 148.242 234.814,148.802 235.444,148.804 235.712 C 148.811 236.554,150.694 240.294,151.535 241.135 C 152.684 242.284,153.002 243.025,153.795 246.400 C 154.182 248.050,155.025 250.619,155.668 252.109 C 158.304 258.218,158.289 271.883,155.642 276.541 C 154.998 277.674,154.270 279.361,154.023 280.291 C 153.435 282.506,149.834 286.417,147.296 287.597 C 146.253 288.082,145.040 288.810,144.600 289.215 C 142.063 291.550,130.574 291.317,126.356 288.844 C 125.610 288.407,123.399 287.649,121.441 287.161 C 118.942 286.537,117.494 285.932,116.580 285.129 C 115.863 284.499,114.068 283.437,112.591 282.767 C 111.114 282.097,109.462 281.022,108.920 280.378 C 108.378 279.733,107.316 278.913,106.561 278.555 C 105.806 278.196,104.907 277.427,104.563 276.845 C 104.220 276.264,103.311 275.376,102.544 274.873 C 101.777 274.371,100.800 273.368,100.374 272.647 C 99.948 271.925,98.880 270.755,98.000 270.048 C 97.120 269.341,96.400 268.497,96.400 268.172 C 96.400 267.848,95.714 266.821,94.877 265.891 C 94.039 264.961,92.842 263.030,92.218 261.600 C 91.593 260.170,90.584 258.427,89.976 257.726 C 89.163 256.789,88.633 255.410,87.978 252.526 C 87.487 250.367,86.561 247.459,85.919 246.064 C 84.960 243.982,84.710 242.801,84.521 239.459 C 84.209 233.957,84.506 233.683,88.509 235.774 C 90.141 236.626,92.850 237.595,94.782 238.018 C 98.944 238.927,99.003 239.003,99.633 244.317 C 100.024 247.622,100.402 249.078,101.313 250.790 C 101.960 252.006,102.899 254.080,103.400 255.400 C 103.901 256.720,105.006 258.578,105.855 259.529 C 109.390 263.485,112.705 266.513,114.315 267.258 C 115.258 267.694,116.608 268.549,117.315 269.158 C 118.937 270.555,119.335 270.698,124.199 271.632 C 132.107 273.150,136.491 272.140,138.423 268.353 C 138.830 267.558,139.632 266.348,140.206 265.666 C 142.124 263.386,141.982 253.583,139.991 250.787 C 139.572 250.199,138.802 248.540,138.279 247.099 C 136.999 243.572,130.623 236.374,125.552 232.729 C 124.588 232.037,122.926 230.690,121.857 229.735 C 120.788 228.781,119.675 228.000,119.384 228.000 C 119.093 228.000,118.458 227.444,117.974 226.764 C 117.490 226.084,116.251 225.008,115.220 224.374 C 114.190 223.740,113.120 222.797,112.842 222.279 C 112.564 221.760,111.766 221.009,111.069 220.610 C 110.371 220.212,109.077 219.146,108.193 218.243 C 107.309 217.339,106.229 216.291,105.793 215.913 C 105.357 215.535,103.920 214.041,102.600 212.593 C 101.280 211.145,99.519 209.251,98.688 208.384 C 97.856 207.518,96.846 206.042,96.443 205.104 C 96.040 204.167,95.059 202.623,94.264 201.673 C 93.367 200.602,92.514 198.930,92.018 197.273 C 91.579 195.803,90.794 193.970,90.275 193.200 C 86.890 188.183,86.708 167.211,90.017 163.442 C 90.616 162.759,91.370 161.570,91.692 160.800 C 92.531 158.797,96.151 155.263,98.335 154.314 C 99.361 153.869,100.597 153.142,101.083 152.699 C 102.986 150.962,111.113 150.239,116.200 151.354 " stroke="none" fill="#d68c79" fill-rule="evenodd"></path></g></svg>
