<?xml version="1.0" encoding="UTF-8" standalone="no"?>
<svg
   width="600"
   height="600"
   viewBox="0 0 600 600"
   fill="none"
   version="1.1"
   id="svg16"
   sodipodi:docname="Turbotax_logo.svg"
   inkscape:version="1.4.2 (ebf0e940d0, 2025-05-08)"
   xmlns:inkscape="http://www.inkscape.org/namespaces/inkscape"
   xmlns:sodipodi="http://sodipodi.sourceforge.net/DTD/sodipodi-0.dtd"
   xmlns="http://www.w3.org/2000/svg"
   xmlns:svg="http://www.w3.org/2000/svg">
  <defs
     id="defs16" />
  <sodipodi:namedview
     id="namedview16"
     pagecolor="#ffffff"
     bordercolor="#000000"
     borderopacity="0.25"
     inkscape:showpageshadow="2"
     inkscape:pageopacity="0.0"
     inkscape:pagecheckerboard="0"
     inkscape:deskcolor="#d1d1d1"
     inkscape:zoom="1.0036799"
     inkscape:cx="510.1228"
     inkscape:cy="300.39458"
     inkscape:window-width="2327"
     inkscape:window-height="1236"
     inkscape:window-x="0"
     inkscape:window-y="0"
     inkscape:window-maximized="1"
     inkscape:current-layer="svg16" />
  <path
     d="M 300,600 C 465.685,600 600,465.685 600,300 600,134.315 465.685,0 300,0 134.315,0 0,134.315 0,300 0,465.685 134.315,600 300,600 Z"
     fill="#d52b1e"
     id="path1" />
  <path
     d="m 233.067,410 c -34.466,-24.867 -67.6,-51.4 -99.333,-79.533 -11.667,25.6 -22.133,51.8 -31.4,78.6 50.6,42.933 118.267,92.133 164.667,119.8 C 327.201,373 421.134,271.333 511.001,200.4 499.467,176 483.801,153.867 464.934,135 369.134,208.467 289.667,302.333 233.067,410 Z"
     fill="#ffffff"
     id="path2" />
  <path
     d="m 2040.6,481.4 -66.87,-87 h 55.67 l 40.2,57.6 41.4,-57.6 h 53.33 l -66.53,87 75.8,98.6 h -56.47 L 2068.8,512.334 2020.07,580 h -54.94 z"
     fill="#000000"
     id="path10" />
</svg>
